<svg version="1.1" xmlns="http://www.w3.org/2000/svg" xmlns:xlink="http://www.w3.org/1999/xlink" viewBox="0 0 172 172"><g fill="none" fill-rule="nonzero" stroke="none" stroke-width="1" stroke-linecap="butt" stroke-linejoin="miter" stroke-miterlimit="10" stroke-dasharray="" stroke-dashoffset="0" font-family="none" font-weight="none" font-size="none" text-anchor="none" style="mix-blend-mode: normal"><path d="M0,172v-172h172v172z" fill="none"></path><g id="original-icon" fill="#c13526" opacity="0" visibility="hidden"><path d="M86,17.2c-37.9948,0 -68.8,30.8052 -68.8,68.8c0,37.9948 30.8052,68.8 68.8,68.8c37.9948,0 68.8,-30.8052 68.8,-68.8c0,-37.9948 -30.8052,-68.8 -68.8,-68.8z"></path></g><g id="subtracted-icon" fill="#c13526"><path d="M154.8,86c0,37.9948 -30.8052,68.8 -68.8,68.8c-37.9948,0 -68.8,-30.8052 -68.8,-68.8c0,-37.9948 30.8052,-68.8 68.8,-68.8c17.04944,0 32.65118,6.20291 44.67141,16.47493c-1.18956,0.80983 -2.31134,1.73804 -3.35051,2.77859l-29.6528,29.64707l-6.71947,-6.71373c-4.32867,-4.3344 -10.09067,-6.71947 -16.21387,-6.71947c-6.1232,0 -11.8852,2.38507 -16.21387,6.71947c-8.944,8.944 -8.944,23.48947 0,32.43347l22.93333,22.93333c4.32867,4.32867 10.09067,6.71373 16.21387,6.71373c6.1232,0 11.8852,-2.38507 16.21387,-6.71947l40.00195,-40.00195c0.60265,3.66203 0.91609,7.42145 0.91609,11.25403z"></path></g><g><g id="Layer_1" fill="#007e58"><path d="M151.6417,60.7736l-45.86667,45.86667c-2.24173,2.24173 -5.17147,3.35973 -8.10693,3.35973c-2.93547,0 -5.8652,-1.118 -8.10693,-3.35973l-22.93333,-22.93333c-4.47773,-4.47773 -4.47773,-11.73613 0,-16.21387c4.47773,-4.47773 11.73613,-4.47773 16.21387,0l14.8264,14.8264l37.75973,-37.75973c4.47773,-4.47773 11.73613,-4.47773 16.21387,0c4.47773,4.47773 4.47773,11.73613 0,16.21387z"></path></g><g id="Layer_1" fill="#000000" opacity="0"><path d="M159.74863,36.45352c-4.32867,-4.3344 -10.09067,-6.71947 -16.21387,-6.71947c-6.1232,0 -11.8852,2.38507 -16.21387,6.71947l-29.6528,29.64707l-6.71947,-6.71373c-4.32867,-4.3344 -10.09067,-6.71947 -16.21387,-6.71947c-6.1232,0 -11.8852,2.38507 -16.21387,6.71947c-8.944,8.944 -8.944,23.48947 0,32.43347l22.93333,22.93333c4.32867,4.32867 10.09067,6.71373 16.21387,6.71373c6.1232,0 11.8852,-2.38507 16.21387,-6.71947l45.86667,-45.86667c8.944,-8.93827 8.944,-23.48947 0,-32.42773z"></path></g></g></g></svg>