<svg version="1.1" xmlns="http://www.w3.org/2000/svg" xmlns:xlink="http://www.w3.org/1999/xlink" viewBox="0 0 172 172"><g fill="none" fill-rule="nonzero" stroke="none" stroke-width="1" stroke-linecap="butt" stroke-linejoin="miter" stroke-miterlimit="10" stroke-dasharray="" stroke-dashoffset="0" font-family="none" font-weight="none" font-size="none" text-anchor="none" style="mix-blend-mode: normal"><path d="M0,172v-172h172v172z" fill="none"></path><g id="Layer_1"><circle cx="97.2" cy="47.2" transform="scale(1.34375,1.34375)" r="30" fill="rgba(255,160,140)"></circle><path d="M155.06875,70.00938c-13.975,-38.29687 -54.01875,-51.86875 -92.45,-37.89375c-38.43125,13.975 -60.46875,50.12188 -46.49375,88.41875l4.3,-6.85312c4.43437,-6.9875 12.9,-10.2125 20.9625,-8.0625l8.86875,2.41875l5.50937,-7.92813c4.56875,-6.58438 12.76563,-9.675 20.55938,-7.525l9.27187,2.55313l5.50938,-7.92813c4.56875,-6.58438 12.76563,-9.675 20.55937,-7.525l9.27188,2.55312l5.24063,-7.525c4.70312,-6.85312 13.30313,-9.80937 21.23125,-7.25625z" fill="#adf9d2"></path><path d="M16.25937,124.56563c-0.13437,0 -0.26875,0 -0.40312,0c-1.47813,-0.13437 -2.82188,-1.20937 -3.35937,-2.6875c-11.42187,-31.175 -0.13438,-63.9625 28.75625,-83.3125c1.88125,-1.20938 4.3,-0.80625 5.64375,1.075c1.34375,1.88125 0.80625,4.3 -1.075,5.64375c-23.65,15.85625 -33.99687,40.44688 -28.21875,65.70937c2.6875,-3.89688 6.31563,-6.71875 10.61563,-8.46562c2.01563,-0.80625 4.43438,0.26875 5.24063,2.28437c0.80625,2.01563 -0.26875,4.43438 -2.28438,5.24063c-2.95625,1.20938 -5.50937,3.225 -7.12188,5.9125l-4.3,6.85312c-0.94063,1.075 -2.15,1.74687 -3.49375,1.74687z" fill="#444b54"></path><path d="M50.25625,112.20313c-0.13438,0 -0.40313,0 -0.5375,0c-1.47812,-0.13437 -2.82187,-1.20938 -3.225,-2.6875c-5.9125,-16.25937 -8.19687,-32.25 -6.71875,-46.225c0.26875,-2.15 2.28438,-3.7625 4.43438,-3.62812c2.15,0.26875 3.7625,2.28437 3.62812,4.43437c-1.20937,10.61562 0.13438,22.575 3.7625,35.07188l0.80625,-1.20938c5.50937,-8.0625 15.5875,-11.69063 24.99375,-9.1375l1.74687,0.5375l-14.10937,-38.83437c-0.80625,-2.15 0.26875,-4.43437 2.41875,-5.10625c2.15,-0.80625 4.43437,0.26875 5.10625,2.41875c0,0 16.125,44.47813 16.79688,46.09063c0.13437,0.5375 0.26875,1.075 0.26875,1.6125c-0.13437,1.88125 -1.47812,3.49375 -3.35937,3.7625c-1.075,0.13437 -1.88125,0 -2.41875,-0.26875l-8.6,-2.41875c-6.04687,-1.74688 -12.63125,0.67188 -16.125,5.9125l-5.50937,7.92813c-0.80625,1.075 -2.01562,1.74687 -3.35937,1.74687z" fill="#444b54"></path><path d="M158.83125,68.66563c-6.9875,-19.21563 -20.9625,-33.8625 -39.37188,-40.98437c-16.52813,-6.45 -35.60937,-6.58438 -54.42187,-0.67187l-0.94063,-2.55312c-0.80625,-2.15 -3.09062,-3.225 -5.10625,-2.41875c-2.15,0.80625 -3.225,3.09063 -2.41875,5.10625l2.28438,6.31562c0.40312,0.94062 1.075,1.88125 2.15,2.28437c0.94063,0.40313 2.01563,0.5375 3.09062,0.13438c18.14063,-6.58437 36.68438,-6.85313 52.54063,-0.67187c13.70625,5.375 24.45625,15.05 31.175,28.35312c-9.40625,-2.6875 -19.48437,0.94063 -24.99375,9.00313l-0.94063,1.34375c-5.64375,-13.16875 -13.16875,-24.32187 -21.76875,-32.65313c-1.6125,-1.47812 -4.16562,-1.47812 -5.64375,0.13438c-1.47813,1.6125 -1.47813,4.16562 0.13437,5.64375c7.79375,7.39063 14.37812,17.46875 19.61875,29.29375l-1.47812,-0.40313c-4.70312,-1.34375 -9.54062,-1.075 -14.10937,0.67188c-2.15,0.80625 -3.09063,3.09063 -2.41875,5.24062c0.80625,2.15 3.09063,3.09063 5.24063,2.41875c2.95625,-1.075 6.04688,-1.20937 9.1375,-0.40313l9.27187,2.55313c0.40313,0.13437 0.67188,0.13437 1.075,0.13437c1.34375,0 2.55313,-0.67187 3.35938,-1.74688l5.24062,-7.525c3.7625,-5.375 10.34688,-7.65937 16.6625,-5.77812l7.65938,2.41875c1.47812,0.40313 3.09062,0 4.16562,-1.075c1.075,-1.20937 1.34375,-2.82187 0.80625,-4.16562z" fill="#444b54"></path><path d="M147.8125,162.59375h-33.325l-19.08125,-52.27188c-0.80625,-2.15 -3.09063,-3.225 -5.10625,-2.41875c-2.15,0.80625 -3.225,3.09062 -2.41875,5.10625l18.00625,49.58438h-23.1125c-1.74688,0 -3.35937,-0.40312 -4.97188,-1.20937l-3.49375,-1.74688c-5.375,-2.6875 -11.69063,-2.6875 -17.06563,0c-3.09062,1.47813 -6.71875,1.47813 -9.80937,0c-13.70625,-6.85312 -30.1,-5.64375 -42.59687,3.35938l-0.5375,0.40313c-1.74688,1.34375 -2.28437,3.7625 -0.94062,5.64375c0.80625,1.075 2.01562,1.74688 3.225,1.74688c0.80625,0 1.6125,-0.26875 2.28438,-0.80625l0.5375,-0.40312c10.07813,-7.25625 23.24688,-8.19688 34.4,-2.6875c5.375,2.6875 11.69062,2.6875 17.06562,0c3.09062,-1.47813 6.71875,-1.47813 9.80937,0l3.49375,1.74687c2.6875,1.34375 5.64375,2.01563 8.46562,2.01563h65.17188c2.28438,0 4.03125,-1.74687 4.03125,-4.03125c0,-2.28438 -1.74687,-4.03125 -4.03125,-4.03125z" fill="#444b54"></path><circle cx="124" cy="124" transform="scale(1.34375,1.34375)" r="3" fill="#444b54"></circle></g></g></svg>