<svg version="1.1" xmlns="http://www.w3.org/2000/svg" xmlns:xlink="http://www.w3.org/1999/xlink" viewBox="0 0 172 172">
<g fill="none" fill-rule="nonzero" stroke="none" stroke-width="1" stroke-linecap="butt" stroke-linejoin="miter" stroke-miterlimit="10" stroke-dasharray="" stroke-dashoffset="0" font-family="none" font-weight="none" font-size="none" text-anchor="none" style="mix-blend-mode: normal">
<path d="M0,172v-172h172v172z" fill="none">
</path>
<g>
<path d="M150.04248,95.54772c0.516,-1.05952 0.97352,-2.17408 1.36912,-3.34196c4.52876,-13.3644 -2.32028,-29.37416 -16.74076,-33.239c-1.55832,-19.57876 -15.31832,-33.01196 -30.85852,-35.303c-17.78652,-2.623 -34.08008,8.67568 -39.50152,26.6342c-6.53428,-2.31512 -12.90172,-2.03304 -18.9028,1.47404c-2.72276,1.25904 -5.21332,3.11664 -7.4476,5.56076c-3.28004,3.58792 -5.41284,8.11668 -6.28144,12.8914c-1.28656,0.20296 -2.55076,0.40592 -3.74272,0.83248c-6.9488,2.49228 -11.33308,7.62132 -12.53536,15.34756c-0.7482,4.81084 0.76196,9.60964 1.60476,11.54808c3.3282,7.6626 11.04584,12.0056 18.88732,10.85664c0.39044,-0.05676 0.95804,0.11868 1.29344,0.40076c0.41452,12.2464 6.36056,23.07724 15.28048,29.26408c14.31212,9.92784 32.72644,6.86968 44.34332,-6.74412c4.97768,5.0912 10.90136,7.56456 17.86048,6.66672c6.91956,-0.89268 12.29284,-4.71108 16.21272,-10.92028c1.81116,0.48676 3.52772,1.18852 5.30276,1.38288c6.95224,0.76024 12.55084,-2.03648 16.73904,-8.256c0.14276,-0.21328 0.34916,-0.37668 0.52632,-0.56416c0.59856,-1.37256 1.19712,-2.74512 1.79568,-4.11768c0.2666,-2.08292 0.73788,-4.16756 0.76196,-6.24704c0.06708,-5.60032 -2.22224,-10.70528 -5.96668,-14.12636z" fill="#ffffff">
</path><path d="M60.77964,67.80756c0,0 20.10852,0 20.23064,0c4.644,0 8.40736,-3.76508 8.40736,-8.40908c0,-4.0506 -2.86552,-7.43212 -6.68048,-8.22848c0.04472,-0.35432 0.07396,-0.7138 0.07396,-1.08016c0,-4.80912 -3.89924,-8.70836 -8.70836,-8.70836c-2.83972,0 -5.35436,1.36568 -6.94364,3.46924c-0.40592,-5.35436 -5.18924,-9.48408 -10.7844,-8.79952c-4.09188,0.50052 -7.47512,3.6636 -8.22848,7.71592c-0.2408,1.30032 -0.21672,2.56108 0.02408,3.74444c-1.09736,-1.18164 -2.65912,-1.92468 -4.39804,-1.92468c-3.182,0 -5.78092,2.47852 -5.9856,5.60892c-1.4448,-0.31992 -3.01688,-0.29928 -4.67324,0.32336c-3.1648,1.18852 -5.418,4.16756 -5.55044,7.54564c-0.18748,4.79708 3.6464,8.7462 8.4022,8.7462c0.3612,0 1.63056,0 1.92296,0h17.45972" fill="#dcdcdc">
</path>
<path d="M81.01028,68.66756h-20.23064c-0.47472,0 -0.86,-0.38528 -0.86,-0.86c0,-0.47472 0.38528,-0.86 0.86,-0.86h20.23064c4.1624,0 7.54908,-3.38668 7.54908,-7.54908c0,-3.55352 -2.52152,-6.66156 -5.99592,-7.3874c-0.4386,-0.09116 -0.73272,-0.50396 -0.67768,-0.94944c0.03956,-0.31992 0.06708,-0.64328 0.06708,-0.9718c0,-4.32924 -3.52084,-7.84836 -7.84664,-7.84836c-2.47336,0 -4.7558,1.14036 -6.25736,3.12696c-0.215,0.28552 -0.58136,0.40764 -0.9288,0.30616c-0.34228,-0.10148 -0.58824,-0.40248 -0.61404,-0.75852c-0.17888,-2.36844 -1.33988,-4.59412 -3.182,-6.10428c-1.86276,-1.52736 -4.22432,-2.20504 -6.6392,-1.90748c-3.72552,0.45752 -6.80432,3.34196 -7.48716,7.01932c-0.21328,1.14724 -0.2064,2.2962 0.02236,3.41592c0.07568,0.3784 -0.10664,0.76024 -0.45064,0.93568c-0.344,0.17888 -0.76196,0.1032 -1.0234,-0.17888c-0.989,-1.06296 -2.32716,-1.64948 -3.7668,-1.64948c-2.69868,0 -4.95016,2.11216 -5.12732,4.80568c-0.0172,0.25112 -0.14104,0.47988 -0.34228,0.62952c-0.20124,0.15308 -0.46096,0.2064 -0.70176,0.15308c-1.44652,-0.3182 -2.81564,-0.22704 -4.18476,0.28724c-2.87068,1.07844 -4.8762,3.79948 -4.99316,6.77336c-0.08084,2.07604 0.66564,4.042 2.10012,5.53496c1.4362,1.49468 3.36948,2.31856 5.44208,2.31856h19.38268c0.47472,0 0.86,0.38528 0.86,0.86c0,0.47472 -0.38528,0.86 -0.86,0.86h-19.38612c-2.54388,0 -4.91576,-1.01136 -6.68048,-2.84488c-1.763,-1.83352 -2.67976,-4.24668 -2.58,-6.794c0.14276,-3.65672 2.5972,-6.99868 6.106,-8.3162c1.376,-0.51772 2.79672,-0.68456 4.24496,-0.51428c0.64844,-3.13384 3.43656,-5.47304 6.7166,-5.47304c1.17648,0 2.32888,0.3096 3.34368,0.8772c0,-0.66392 0.0602,-1.32784 0.18232,-1.99348c0.82044,-4.40664 4.50812,-7.86556 8.9698,-8.41252c2.88788,-0.3526 5.7104,0.45752 7.93952,2.28416c1.72516,1.41556 2.95152,3.35572 3.50536,5.49196c1.74064,-1.57552 3.98868,-2.45272 6.38808,-2.45272c5.27524,0 9.56664,4.29312 9.56664,9.56836c0,0.14276 -0.00344,0.28552 -0.01204,0.42656c3.87688,1.15756 6.61856,4.77472 6.61856,8.88208c0.00172,5.11356 -4.15552,9.26908 -9.26736,9.26908z" fill="#282828">
</path>
<path d="M55.90688,49.2866c-3.10976,-0.20468 -5.7878,1.9436 -5.97872,4.79708c-0.02408,0.35432 -0.0086,0.70348 0.043,1.04232c-0.60028,-0.67768 -1.4878,-1.13692 -2.50776,-1.204c-1.8662,-0.12212 -3.47784,1.1094 -3.71176,2.7864c-0.33884,-0.09288 -0.69316,-0.1548 -1.05952,-0.17888c-2.72104,-0.17888 -5.06368,1.70108 -5.23224,4.19852" fill="#dcdcdc">
</path>
<path d="M37.4616,61.15632c-0.01032,0 -0.02064,0 -0.02924,-0.00172c-0.23736,-0.01548 -0.41624,-0.22016 -0.40076,-0.45752c0.18404,-2.72964 2.73136,-4.79708 5.68976,-4.59928c0.23564,0.01548 0.46956,0.04472 0.70348,0.09116c0.47128,-1.66496 2.16032,-2.8294 4.06952,-2.69524c0.731,0.04644 1.41556,0.27348 2.00208,0.65704c0,-0.03268 0.00344,-0.06364 0.00516,-0.09632c0.2064,-3.0874 3.07364,-5.4352 6.43624,-5.19612c0.23736,0.01548 0.41624,0.22016 0.40076,0.45752c-0.01548,0.23736 -0.21328,0.4386 -0.45752,0.39904c-2.83972,-0.1806 -5.34576,1.78364 -5.5212,4.39804c-0.02064,0.31648 -0.00688,0.6364 0.03956,0.95116c0.02924,0.18748 -0.07052,0.37324 -0.24252,0.45408c-0.172,0.08084 -0.37668,0.03784 -0.50396,-0.10492c-0.55556,-0.6278 -1.3416,-1.00448 -2.21364,-1.06124c-1.63572,-0.05848 -3.053,0.95632 -3.25768,2.41488c-0.0172,0.12212 -0.086,0.2322 -0.1892,0.301c-0.1032,0.06708 -0.22876,0.08772 -0.35088,0.05504c-0.32164,-0.08772 -0.64844,-0.14276 -0.97524,-0.16684c-2.4768,-0.15824 -4.62164,1.54112 -4.773,3.79948c-0.01892,0.22704 -0.20812,0.40076 -0.43172,0.40076z" fill="#282828">
</path>
<path d="M84.41588,52.15556c-2.92228,-1.37772 -6.30208,-0.40248 -7.54908,2.17924c-0.1548,0.31992 -0.27004,0.65188 -0.34572,0.98728" fill="#dcdcdc">
</path>
<path d="M76.52108,55.75208c-0.03096,0 -0.06364,-0.00344 -0.09632,-0.01032c-0.23048,-0.05332 -0.37668,-0.2838 -0.32336,-0.516c0.08428,-0.37324 0.21156,-0.73616 0.37668,-1.07844c1.34676,-2.78812 4.99144,-3.85108 8.12012,-2.3822c0.215,0.1032 0.30788,0.35776 0.2064,0.57276c-0.10148,0.21672 -0.35948,0.30272 -0.57276,0.2064c-2.70728,-1.27968 -5.83768,-0.39044 -6.97976,1.97628c-0.1376,0.2838 -0.24252,0.5848 -0.31304,0.89612c-0.04472,0.20124 -0.22188,0.3354 -0.41796,0.3354z" fill="#282828">
</path>
<path d="M25.62628,94.6h-17.2516c-0.47472,0 -0.86,-0.38528 -0.86,-0.86c0,-0.47472 0.38528,-0.86 0.86,-0.86h17.2516c0.47472,0 0.86,0.38528 0.86,0.86c0,0.47472 -0.38356,0.86 -0.86,0.86zM31.4416,93.74c0,-0.47472 -0.38528,-0.86 -0.86,-0.86h-2.48712c-0.47472,0 -0.86,0.38528 -0.86,0.86c0,0.47472 0.38528,0.86 0.86,0.86h2.48712c0.47644,0 0.86,-0.38528 0.86,-0.86zM38.4162,93.74c0,-0.47472 -0.38528,-0.86 -0.86,-0.86h-4.37912c-0.47472,0 -0.86,0.38528 -0.86,0.86c0,0.47472 0.38528,0.86 0.86,0.86h4.37912c0.47644,0 0.86,-0.38528 0.86,-0.86zM38.4162,97.18c0,-0.47472 -0.38528,-0.86 -0.86,-0.86h-16.53952c-0.47472,0 -0.86,0.38528 -0.86,0.86c0,0.47472 0.38528,0.86 0.86,0.86h16.53952c0.47644,0 0.86,-0.38528 0.86,-0.86zM18.89764,97.18c0,-0.47472 -0.38528,-0.86 -0.86,-0.86h-0.9976c-0.47472,0 -0.86,0.38528 -0.86,0.86c0,0.47472 0.38528,0.86 0.86,0.86h0.9976c0.47472,0 0.86,-0.38528 0.86,-0.86zM14.81092,97.18c0,-0.47472 -0.38528,-0.86 -0.86,-0.86h-2.50604c-0.47472,0 -0.86,0.38528 -0.86,0.86c0,0.47472 0.38528,0.86 0.86,0.86h2.50604c0.47472,0 0.86,-0.38528 0.86,-0.86zM30.52312,90.3c0,-0.47472 -0.38528,-0.86 -0.86,-0.86h-8.64644c-0.47472,0 -0.86,0.38528 -0.86,0.86c0,0.47472 0.38528,0.86 0.86,0.86h8.64644c0.47644,0 0.86,-0.38528 0.86,-0.86zM30.52312,86.86c0,-0.47472 -0.38528,-0.86 -0.86,-0.86h-2.16204c-0.47472,0 -0.86,0.38528 -0.86,0.86c0,0.47472 0.38528,0.86 0.86,0.86h2.16204c0.47644,0 0.86,-0.38528 0.86,-0.86zM24.90044,100.62c0,-0.47472 -0.38528,-0.86 -0.86,-0.86h-3.02376c-0.47472,0 -0.86,0.38528 -0.86,0.86c0,0.47472 0.38528,0.86 0.86,0.86h3.02376c0.47644,0 0.86,-0.38528 0.86,-0.86z" fill="#ffffff"></path><path d="M133.71968,56.76h-17.2516c-0.47472,0 -0.86,-0.38528 -0.86,-0.86c0,-0.47472 0.38528,-0.86 0.86,-0.86h17.25332c0.47472,0 0.86,0.38528 0.86,0.86c0,0.47472 -0.38528,0.86 -0.86172,0.86zM139.535,55.9c0,-0.47472 -0.38528,-0.86 -0.86,-0.86h-2.48712c-0.47472,0 -0.86,0.38528 -0.86,0.86c0,0.47472 0.38528,0.86 0.86,0.86h2.48712c0.47644,0 0.86,-0.38528 0.86,-0.86zM146.5096,55.9c0,-0.47472 -0.38528,-0.86 -0.86,-0.86h-4.37912c-0.47472,0 -0.86,0.38528 -0.86,0.86c0,0.47472 0.38528,0.86 0.86,0.86h4.37912c0.47472,0 0.86,-0.38528 0.86,-0.86zM143.02488,49.02c0,-0.47472 -0.38528,-0.86 -0.86,-0.86h-16.53952c-0.47472,0 -0.86,0.38528 -0.86,0.86c0,0.47472 0.38528,0.86 0.86,0.86h16.53952c0.47472,0 0.86,-0.38528 0.86,-0.86zM123.50632,49.02c0,-0.47472 -0.38528,-0.86 -0.86,-0.86h-0.9976c-0.47472,0 -0.86,0.38528 -0.86,0.86c0,0.47472 0.38528,0.86 0.86,0.86h0.9976c0.47644,0 0.86,-0.38528 0.86,-0.86zM119.41788,49.02c0,-0.47472 -0.38528,-0.86 -0.86,-0.86h-2.50432c-0.47472,0 -0.86,0.38528 -0.86,0.86c0,0.47472 0.38528,0.86 0.86,0.86h2.50432c0.47644,0 0.86,-0.38528 0.86,-0.86zM138.61652,52.46c0,-0.47472 -0.38528,-0.86 -0.86,-0.86h-8.64644c-0.47472,0 -0.86,0.38528 -0.86,0.86c0,0.47472 0.38528,0.86 0.86,0.86h8.64644c0.47472,0 0.86,-0.38528 0.86,-0.86zM138.61652,49.02c0,-0.47472 -0.38528,-0.86 -0.86,-0.86h-2.16204c-0.47472,0 -0.86,0.38528 -0.86,0.86c0,0.47472 0.38528,0.86 0.86,0.86h2.16204c0.47472,0 0.86,-0.38528 0.86,-0.86zM127.46576,52.46c0,-0.47472 -0.38528,-0.86 -0.86,-0.86h-3.02376c-0.47472,0 -0.86,0.38528 -0.86,0.86c0,0.47472 0.38528,0.86 0.86,0.86h3.02376c0.47644,0 0.86,-0.38528 0.86,-0.86z" fill="#ffffff"></path><path d="M60.65408,95.46h-11.22816c-2.1242,0 -3.84592,-1.72172 -3.84592,-3.84592v-0.90816c0,-2.1242 1.72172,-3.84592 3.84592,-3.84592h11.22816c2.1242,0 3.84592,1.72172 3.84592,3.84592v0.90816c0,2.1242 -1.72172,3.84592 -3.84592,3.84592z" fill="#007e58"></path><path d="M60.65408,96.32h-11.22644c-2.59548,0 -4.70764,-2.11216 -4.70764,-4.70592v-0.90644c0,-2.59548 2.11216,-4.70764 4.70592,-4.70764h11.22644c2.59548,0 4.70764,2.11216 4.70764,4.70592v0.90644c0,2.59548 -2.11216,4.70764 -4.70592,4.70764zM49.42592,87.72c-1.64604,0 -2.98592,1.33988 -2.98592,2.98592v0.90644c0,1.64776 1.33988,2.98764 2.98592,2.98764h11.22644c1.64776,0 2.98764,-1.33988 2.98764,-2.98592v-0.90644c0,-1.64776 -1.33988,-2.98764 -2.98592,-2.98764z" fill="#282828"></path><path d="M129.45408,95.46h-11.22816c-2.1242,0 -3.84592,-1.72172 -3.84592,-3.84592v-0.90816c0,-2.1242 1.72172,-3.84592 3.84592,-3.84592h11.22816c2.1242,0 3.84592,1.72172 3.84592,3.84592v0.90816c0,2.1242 -1.72172,3.84592 -3.84592,3.84592z" fill="#007e58"></path><path d="M129.45408,96.32h-11.22644c-2.59548,0 -4.70764,-2.11216 -4.70764,-4.70592v-0.90644c0,-2.59548 2.11216,-4.70764 4.70592,-4.70764h11.22644c2.59548,0 4.70764,2.11216 4.70764,4.70592v0.90644c0,2.59548 -2.11216,4.70764 -4.70592,4.70764zM118.22592,87.72c-1.64604,0 -2.98592,1.33988 -2.98592,2.98592v0.90644c0,1.64776 1.33988,2.98764 2.98592,2.98764h11.22644c1.64776,0 2.98764,-1.33988 2.98764,-2.98592v-0.90644c0,-1.64776 -1.33988,-2.98764 -2.98592,-2.98764z" fill="#282828"></path><path d="M90.644,57.62h-2.408v-12.04c0,-5.87208 4.71624,-8.944 9.374,-8.944c4.65776,0 9.374,3.07192 9.374,8.944h-2.408c0,-4.49092 -3.612,-6.536 -6.966,-6.536c-3.354,0 -6.966,2.04336 -6.966,6.536z" fill="#282828"></path><path d="M116.444,103.716v-25.112h6.106c2.89304,0 5.246,2.35296 5.246,5.246v14.62c0,2.89304 -2.35296,5.246 -5.246,5.246z" fill="#dcdcdc"></path><path d="M122.55,79.808c2.22912,0 4.042,1.81288 4.042,4.042v14.62c0,2.22912 -1.81288,4.042 -4.042,4.042h-4.902v-22.704h4.902M122.55,77.4h-7.31v27.52h7.31c3.56212,0 6.45,-2.88788 6.45,-6.45v-14.62c0,-3.56212 -2.88788,-6.45 -6.45,-6.45z" fill="#282828"></path><path d="M75.22076,62.436c0.60888,-6.36056 5.98216,-11.352 12.49924,-11.352h3.44c6.51708,0 11.89036,4.98972 12.49924,11.352z" fill="#dcdcdc"></path><path d="M91.16,52.288c5.43348,0 9.98804,3.83732 11.09572,8.944h-25.63144c1.10768,-5.10668 5.66224,-8.944 11.09572,-8.944h3.44M91.16,49.88h-3.44c-7.59896,0 -13.76,6.16104 -13.76,13.76h30.96c0,-7.59896 -6.16104,-13.76 -13.76,-13.76z" fill="#282828"></path><path d="M56.33,103.716c-2.89304,0 -5.246,-2.35296 -5.246,-5.246v-14.62c0,-2.89304 2.35296,-5.246 5.246,-5.246h6.106v25.112z" fill="#dcdcdc"></path><path d="M61.232,79.808v22.704h-4.902c-2.22912,0 -4.042,-1.81288 -4.042,-4.042v-14.62c0,-2.22912 1.81288,-4.042 4.042,-4.042h4.902M63.64,77.4h-7.31c-3.56212,0 -6.45,2.88788 -6.45,6.45v14.62c0,3.56212 2.88788,6.45 6.45,6.45h7.31v-27.52z" fill="#282828"></path><path d="M69.80276,122.636c-6.5274,0 -11.83876,-5.31136 -11.83876,-11.83876v-39.27448c0,-6.5274 5.31136,-11.83876 11.83876,-11.83876h39.27448c6.5274,0 11.83876,5.31136 11.83876,11.83876v39.27448c0,6.5274 -5.31136,11.83876 -11.83876,11.83876z" fill="#f0f0f0"></path><path d="M109.07724,60.888c5.8652,0 10.63476,4.77128 10.63476,10.63648v39.27276c0,5.8652 -4.77128,10.63648 -10.63476,10.63648h-39.27448c-5.8652,0 -10.63476,-4.77128 -10.63476,-10.63648v-39.27448c0,-5.8652 4.77128,-10.63648 10.63476,-10.63648h39.27448M109.07724,58.48h-39.27448c-7.20336,0 -13.04276,5.8394 -13.04276,13.04276v39.27276c0,7.20508 5.8394,13.04448 13.04276,13.04448h39.27276c7.20508,0 13.04448,-5.8394 13.04448,-13.04276v-39.27448c0,-7.20336 -5.8394,-13.04276 -13.04276,-13.04276z" fill="#282828"></path><path d="M96.61584,111.0776l-7.16208,-6.88l-7.16552,6.87828l-7.17584,-6.88172l-5.38704,5.16688l-3.57072,-3.72208l8.95776,-8.59312l7.17412,6.87828l7.16724,-6.88172l7.16208,6.88l7.16208,-6.88l8.94916,8.59656l-3.57416,3.72208l-5.375,-5.16344z" fill="#c13526"></path><path d="M69.72536,109.79104c-0.1118,0 -0.22532,-0.043 -0.31132,-0.13244l-3.57072,-3.72208c-0.16512,-0.172 -0.15824,-0.44376 0.01376,-0.60888l1.80084,-1.7286c0.16856,-0.16168 0.44032,-0.15996 0.60888,0.01376c0.16512,0.172 0.15824,0.44376 -0.01376,0.60888l-1.48952,1.42932l2.9756,3.10288l5.07572,-4.86932c0.17028,-0.16168 0.44204,-0.15996 0.60888,0.01376c0.16512,0.172 0.15824,0.44376 -0.01376,0.60888l-5.38704,5.16688c-0.08256,0.0774 -0.1892,0.11696 -0.29756,0.11696z" fill="#282828"></path><path d="M80.35496,109.65172c-0.10836,0 -0.215,-0.03956 -0.29756,-0.11868l-3.70488,-3.5518c-0.172,-0.16512 -0.17888,-0.43688 -0.01376,-0.60888c0.16512,-0.17372 0.44032,-0.17544 0.60888,-0.01376l3.70488,3.5518c0.172,0.16512 0.17888,0.43688 0.01376,0.60888c-0.08428,0.08944 -0.19952,0.13244 -0.31132,0.13244z" fill="#282828"></path><path d="M96.61584,111.5076c-0.10836,0 -0.215,-0.03956 -0.29756,-0.11868l-6.86452,-6.59448l-6.86796,6.59276c-0.16856,0.1634 -0.44032,0.1634 -0.60888,-0.01376c-0.16512,-0.172 -0.15824,-0.44376 0.01376,-0.60888l7.16552,-6.87828c0.16512,-0.15824 0.43,-0.15824 0.59512,0l6.86452,6.59448l6.86452,-6.59448c0.17028,-0.16168 0.44204,-0.15996 0.60888,0.01376c0.16512,0.172 0.15824,0.44376 -0.01376,0.60888l-7.16208,6.88c-0.08256,0.07912 -0.19092,0.11868 -0.29756,0.11868z" fill="#282828"></path><path d="M109.15292,109.79104c-0.10836,0 -0.215,-0.03956 -0.29756,-0.11868l-2.77952,-2.66944c-0.172,-0.16512 -0.17888,-0.43688 -0.01376,-0.60888c0.17028,-0.17372 0.44204,-0.17544 0.60888,-0.01376l2.47164,2.37188l2.97732,-3.10288l-8.342,-8.01176l-4.644,4.46168c-0.16856,0.1634 -0.44032,0.16168 -0.60888,-0.01376c-0.16512,-0.172 -0.15824,-0.44376 0.01376,-0.60888l4.94156,-4.7472c0.16512,-0.15824 0.43,-0.15824 0.59512,0l8.94916,8.59656c0.172,0.16512 0.17888,0.43688 0.01376,0.60888l-3.57416,3.72208c-0.086,0.09116 -0.19952,0.13416 -0.31132,0.13416z" fill="#282828"></path><path d="M96.61584,104.3524c-0.10836,0 -0.215,-0.03956 -0.29756,-0.11868l-7.16208,-6.88c-0.172,-0.16512 -0.17888,-0.43688 -0.01376,-0.60888c0.16856,-0.17372 0.44032,-0.17372 0.60888,-0.01376l7.16208,6.88c0.172,0.16512 0.17888,0.43688 0.01376,0.60888c-0.086,0.08944 -0.19952,0.13244 -0.31132,0.13244z" fill="#282828"></path><path d="M82.28652,104.35412c-0.10836,0 -0.215,-0.03956 -0.29756,-0.11868l-6.87656,-6.59276l-4.61304,4.42384c-0.16856,0.1634 -0.44032,0.1634 -0.60888,-0.01376c-0.16512,-0.172 -0.15824,-0.44376 0.01376,-0.60888l4.90888,-4.70936c0.16512,-0.15824 0.43,-0.15824 0.59512,0l6.87656,6.59276l4.70764,-4.52188c0.17028,-0.16168 0.44204,-0.15996 0.60888,0.01376c0.16512,0.172 0.15824,0.44376 -0.01376,0.60888l-5.0052,4.8074c-0.08084,0.0774 -0.1892,0.11868 -0.29584,0.11868z" fill="#282828"></path><circle cx="59.5" cy="47.5" transform="scale(1.72,1.72)" r="5" fill="#c13526"></circle><path d="M102.34,90.73c-4.9794,0 -9.03,-4.0506 -9.03,-9.03c0,-4.9794 4.0506,-9.03 9.03,-9.03c4.9794,0 9.03,4.0506 9.03,9.03c0,4.9794 -4.0506,9.03 -9.03,9.03zM102.34,73.53c-4.50468,0 -8.17,3.66532 -8.17,8.17c0,4.50468 3.66532,8.17 8.17,8.17c4.50468,0 8.17,-3.66532 8.17,-8.17c0,-4.50468 -3.66532,-8.17 -8.17,-8.17z" fill="#282828"></path><circle cx="59.5" cy="47.5" transform="scale(1.72,1.72)" r="2" fill="#007e58"></circle><path d="M105.55296,83.36152c-0.04988,0 -0.1032,-0.0086 -0.15308,-0.02924c-0.22188,-0.08428 -0.33368,-0.33196 -0.2494,-0.55384c0.13072,-0.34572 0.1978,-0.70864 0.1978,-1.07844c0,-1.6598 -1.3502,-3.01 -3.01,-3.01c-0.62952,0 -1.23324,0.19092 -1.74236,0.55384c-0.19264,0.13932 -0.4644,0.0946 -0.60028,-0.09976c-0.13932,-0.19436 -0.0946,-0.46268 0.09976,-0.60028c0.65704,-0.46784 1.43276,-0.71552 2.24288,-0.71552c2.1328,0 3.87,1.7372 3.87,3.87c0,0.47472 -0.086,0.94084 -0.25456,1.3846c-0.06536,0.172 -0.22704,0.27864 -0.40076,0.27864z" fill="#282828"></path><path d="M102.34,85.57c-2.1328,0 -3.87,-1.7372 -3.87,-3.87c0,-0.23736 0.19264,-0.43 0.43,-0.43c0.23736,0 0.43,0.19264 0.43,0.43c0,1.6598 1.3502,3.01 3.01,3.01c0.80496,0 1.56004,-0.31304 2.12764,-0.88236c0.16684,-0.16856 0.4386,-0.16856 0.60888,0c0.16856,0.16856 0.16856,0.44032 0,0.60888c-0.72928,0.731 -1.70108,1.13348 -2.73652,1.13348z" fill="#282828"></path><path d="M84.92328,75.46328l-3.00484,-3.00484c-0.51256,-0.51256 -1.34504,-0.51256 -1.85932,0l-3.94912,3.94912l-3.94912,-3.94912c-0.51256,-0.51256 -1.34504,-0.51256 -1.85932,0l-3.00484,3.00484c-0.51256,0.51256 -0.51256,1.34504 0,1.85932l3.94912,3.94912l-3.94912,3.94912c-0.51256,0.51256 -0.51256,1.34504 0,1.85932l3.00484,3.00484c0.51256,0.51256 1.34504,0.51256 1.85932,0l3.94912,-3.94912l3.94912,3.94912c0.51256,0.51256 1.34504,0.51256 1.85932,0l3.00484,-3.00484c0.51256,-0.51256 0.51256,-1.34504 0,-1.85932l-3.94912,-3.94912l3.94912,-3.94912c0.51256,-0.51428 0.51256,-1.34676 0,-1.85932z" fill="#c13526"></path><path d="M80.98792,90.89856c-0.4472,0 -0.8944,-0.172 -1.23324,-0.51084l-3.64468,-3.64468l-3.64468,3.64468c-0.6794,0.6794 -1.78708,0.6794 -2.46648,0l-3.00656,-3.00656c-0.68112,-0.68112 -0.68112,-1.78536 0,-2.46648l3.64468,-3.64468l-3.64468,-3.64468c-0.68112,-0.68112 -0.68112,-1.78536 0,-2.46648l3.00656,-3.00656c0.6794,-0.6794 1.78708,-0.6794 2.46648,0l3.64468,3.64468l3.64468,-3.64468c0.6794,-0.6794 1.78708,-0.6794 2.46648,0l3.00656,3.00656c0.68112,0.68112 0.68112,1.78536 0,2.46648l-3.64468,3.64468l3.64468,3.64468c0.68112,0.68112 0.68112,1.78536 0,2.46648l-3.00656,3.00656c-0.34056,0.33884 -0.78604,0.51084 -1.23324,0.51084zM76.11,85.70416c0.11008,0 0.22016,0.04128 0.30444,0.12556l3.94912,3.94912c0.34572,0.34572 0.903,0.34572 1.25044,0l3.00656,-3.00656c0.344,-0.344 0.344,-0.90472 0,-1.25044l-3.94912,-3.94912c-0.16856,-0.16856 -0.16856,-0.44032 0,-0.60888l3.94912,-3.94912c0.344,-0.344 0.344,-0.90472 0,-1.25044l-3.00656,-3.00656c-0.34572,-0.34572 -0.903,-0.34572 -1.25044,0l-3.94912,3.94912c-0.16856,0.16856 -0.44032,0.16856 -0.60888,0l-3.94912,-3.94912c-0.34572,-0.34572 -0.903,-0.34572 -1.25044,0l-3.00656,3.00656c-0.344,0.344 -0.344,0.90472 0,1.25044l3.94912,3.94912c0.16856,0.16856 0.16856,0.44032 0,0.60888l-3.94912,3.94912c-0.344,0.344 -0.344,0.90472 0,1.25044l3.00656,3.00656c0.34572,0.34572 0.903,0.34572 1.25044,0l3.94912,-3.94912c0.08428,-0.08256 0.19436,-0.12556 0.30444,-0.12556z" fill="#282828"></path><g><circle cx="61.5" cy="27.5" transform="scale(1.72,1.72)" r="2" fill="#007e58"></circle><path d="M105.78,51.6c-2.37188,0 -4.3,-1.92812 -4.3,-4.3c0,-2.37188 1.92812,-4.3 4.3,-4.3c2.37188,0 4.3,1.92812 4.3,4.3c0,2.37188 -1.92812,4.3 -4.3,4.3zM105.78,44.72c-1.42244,0 -2.58,1.15756 -2.58,2.58c0,1.42244 1.15756,2.58 2.58,2.58c1.42244,0 2.58,-1.15756 2.58,-2.58c0,-1.42244 -1.15756,-2.58 -2.58,-2.58z" fill="#282828"></path></g><g fill="#282828"><path d="M81.40416,86.99416c-0.11008,0 -0.22016,-0.04128 -0.30444,-0.12556l-6.72692,-6.72692c-0.16856,-0.16856 -0.16856,-0.44032 0,-0.60888c0.16856,-0.16856 0.44032,-0.16856 0.60888,0l6.72692,6.72692c0.16856,0.16856 0.16856,0.44032 0,0.60888c-0.08428,0.08428 -0.19264,0.12556 -0.30444,0.12556z"></path></g><g fill="#282828"><path d="M73.02776,78.61776c-0.11008,0 -0.22016,-0.04128 -0.30444,-0.12556l-1.64776,-1.64776c-0.16856,-0.16856 -0.16856,-0.44032 0,-0.60888c0.16856,-0.16856 0.44032,-0.16856 0.60888,0l1.64776,1.64776c0.16856,0.16856 0.16856,0.44032 0,0.60888c-0.08428,0.08428 -0.19436,0.12556 -0.30444,0.12556z"></path></g><g fill="#282828"><path d="M79.79768,78.5782c-0.11008,0 -0.22016,-0.04128 -0.30444,-0.12556c-0.16856,-0.16856 -0.16856,-0.44032 0,-0.60888l1.6082,-1.6082c0.16856,-0.16856 0.44032,-0.16856 0.60888,0c0.16856,0.16856 0.16856,0.44032 0,0.60888l-1.6082,1.6082c-0.086,0.08256 -0.19436,0.12556 -0.30444,0.12556z"></path></g><g fill="#282828"><path d="M71.38,86.99416c-0.11008,0 -0.22016,-0.04128 -0.30444,-0.12556c-0.16856,-0.16856 -0.16856,-0.44032 0,-0.60888l6.87484,-6.87484c0.16856,-0.16856 0.44032,-0.16856 0.60888,0c0.16856,0.16856 0.16856,0.44032 0,0.60888l-6.87484,6.87484c-0.08428,0.08428 -0.19436,0.12556 -0.30444,0.12556z"></path></g><g fill="#282828"><path d="M83.42,67.08h-8.6c-0.47472,0 -0.86,-0.38528 -0.86,-0.86c0,-0.47472 0.38528,-0.86 0.86,-0.86h8.6c0.47472,0 0.86,0.38528 0.86,0.86c0,0.47472 -0.38528,0.86 -0.86,0.86z"></path></g><g fill="#282828"><path d="M69.66,67.08h-5.16c-0.47472,0 -0.86,-0.38528 -0.86,-0.86c0,-0.47472 0.38528,-0.86 0.86,-0.86h5.16c0.47472,0 0.86,0.38528 0.86,0.86c0,0.47472 -0.38528,0.86 -0.86,0.86z"></path></g><g fill="#282828"><path d="M114.38,67.08h-25.8c-0.47472,0 -0.86,-0.38528 -0.86,-0.86c0,-0.47472 0.38528,-0.86 0.86,-0.86h25.8c0.47472,0 0.86,0.38528 0.86,0.86c0,0.47472 -0.38528,0.86 -0.86,0.86z"></path></g><g fill="#282828"><path d="M73.1,116.96h-8.6c-0.47472,0 -0.86,-0.38528 -0.86,-0.86c0,-0.47472 0.38528,-0.86 0.86,-0.86h8.6c0.47472,0 0.86,0.38528 0.86,0.86c0,0.47472 -0.38528,0.86 -0.86,0.86z"></path></g><g fill="#282828"><path d="M114.38,116.96h-5.16c-0.47472,0 -0.86,-0.38528 -0.86,-0.86c0,-0.47472 0.38528,-0.86 0.86,-0.86h5.16c0.47472,0 0.86,0.38528 0.86,0.86c0,0.47472 -0.38528,0.86 -0.86,0.86z"></path></g><g fill="#282828"><path d="M104.06,116.96h-25.8c-0.47472,0 -0.86,-0.38528 -0.86,-0.86c0,-0.47472 0.38528,-0.86 0.86,-0.86h25.8c0.47472,0 0.86,0.38528 0.86,0.86c0,0.47472 -0.38528,0.86 -0.86,0.86z"></path></g><g><path d="M123.68176,132.93364h13.64648c0.22876,0 1.2212,0 1.50328,0c3.71692,0 6.71316,-3.02032 6.56696,-6.68908c-0.1032,-2.58516 -1.86448,-4.86416 -4.33784,-5.77232c-1.29344,-0.47472 -2.52152,-0.4902 -3.65156,-0.24596c-0.15996,-2.39424 -2.19128,-4.28968 -4.6784,-4.28968c-1.3588,0 -2.58,0.56932 -3.43656,1.47232c0.18748,-0.90472 0.20812,-1.86964 0.01892,-2.8638c-0.58824,-3.09944 -3.2336,-5.51776 -6.43108,-5.90132c-4.37224,-0.5246 -8.1098,2.63504 -8.428,6.73036c-1.24184,-1.60992 -3.2078,-2.65396 -5.4266,-2.65396c-3.7582,0 -6.80604,2.98248 -6.80604,6.66156c0,0.28036 0.02408,0.55384 0.05848,0.8256c-2.98076,0.6106 -5.2202,3.19576 -5.2202,6.2952c0,3.5518 2.94292,6.43108 6.57212,6.43108c0.03956,0 2.85004,0 6.0888,0M120.24176,132.93364h0.6192" fill="#dcdcdc"></path><path d="M96.20132,126.50084c0,-3.182 2.13108,-5.99076 5.16516,-6.94536c-0.00172,-0.0602 -0.00172,-0.11868 -0.00172,-0.17716c0,-4.14692 3.43828,-7.52156 7.66604,-7.52156c1.81632,0 3.52772,0.61748 4.88824,1.73204c0.46096,-1.53596 1.37256,-2.90508 2.65912,-3.95944c1.79052,-1.46716 4.06092,-2.12936 6.40872,-1.84212c3.56728,0.42656 6.51708,3.13728 7.1724,6.59276c0.07912,0.41796 0.12728,0.8342 0.14276,1.25044c0.75164,-0.3612 1.58412,-0.55556 2.43208,-0.55556c2.59032,0 4.80052,1.76816 5.3922,4.16928c1.1008,-0.1032 2.1844,0.03268 3.2336,0.41968c2.81564,1.03544 4.78504,3.66532 4.90028,6.54632c0.07912,1.97628 -0.6364,3.85624 -2.01756,5.29416c-1.39836,1.45512 -3.36948,2.28932 -5.40768,2.28932h-15.14804c-0.47472,0 -0.86,-0.38528 -0.86,-0.86c0,-0.47472 0.38528,-0.86 0.86,-0.86h15.14804c1.59444,0 3.07536,-0.62608 4.16756,-1.76128c1.05264,-1.09564 1.5996,-2.5284 1.5394,-4.03512c-0.08772,-2.19128 -1.60476,-4.20024 -3.7754,-4.9966c-1.03716,-0.38356 -2.07604,-0.45236 -3.17512,-0.215c-0.24424,0.05332 -0.4988,-0.00344 -0.69832,-0.15308c-0.19952,-0.15136 -0.32336,-0.3784 -0.34056,-0.62952c-0.13072,-1.95392 -1.80944,-3.48644 -3.82012,-3.48644c-1.07672,0 -2.07604,0.42828 -2.8122,1.204c-0.26488,0.28036 -0.68284,0.34744 -1.02168,0.172c-0.34056,-0.17888 -0.52116,-0.56072 -0.44376,-0.9374c0.172,-0.82904 0.17716,-1.68044 0.01548,-2.53184c-0.51772,-2.7262 -2.85692,-4.8676 -5.68804,-5.20644c-1.87136,-0.21672 -3.68768,0.29756 -5.11356,1.46716c-1.38288,1.1352 -2.2188,2.72448 -2.35468,4.47888c-0.02752,0.35432 -0.27004,0.6536 -0.6106,0.7568c-0.34056,0.09804 -0.71036,-0.0172 -0.92708,-0.29928c-1.13864,-1.47576 -2.86896,-2.32028 -4.7472,-2.32028c-3.27832,0 -5.94604,2.60236 -5.94604,5.80156c0,0.24424 0.02064,0.4816 0.0516,0.71724c0.05676,0.4472 -0.2408,0.86172 -0.68112,0.95288c-2.62816,0.53664 -4.53392,2.83112 -4.53392,5.4524c0,3.07192 2.5628,5.57108 5.71212,5.57108h6.0888c0.47472,0 0.86,0.38528 0.86,0.86c0,0.47472 -0.38528,0.86 -0.86,0.86h-6.0888c-4.09876,0 -7.43212,-3.27144 -7.4304,-7.29452zM119.38176,132.93536c0,-0.47472 0.38528,-0.86 0.86,-0.86h0.6192c0.47472,0 0.86,0.38528 0.86,0.86c0,0.47472 -0.38528,0.86 -0.86,0.86h-0.6192c-0.47472,0 -0.86,-0.38528 -0.86,-0.86z" fill="#282828"></path><g fill="#282828"><path d="M106.56776,123.81248c0.03096,0 0.06192,-0.00344 0.0946,-0.01032c0.2322,-0.0516 0.3784,-0.28208 0.32508,-0.51428c-0.06364,-0.28208 -0.16168,-0.559 -0.2924,-0.82388c-1.03888,-2.10528 -3.90784,-2.88444 -6.40184,-1.73204c-0.215,0.09976 -0.3096,0.35432 -0.20984,0.56932c0.09976,0.21672 0.35604,0.30788 0.57104,0.20984c2.06572,-0.95632 4.43244,-0.35776 5.26836,1.33128c0.09976,0.20296 0.17544,0.41624 0.2236,0.63124c0.04644,0.20296 0.2236,0.33884 0.4214,0.33884z"></path></g><g fill="#282828"><path d="M115.44124,133.79536h1.90404c0.47472,0 0.86,-0.38528 0.86,-0.86c0,-0.47472 -0.38528,-0.86 -0.86,-0.86h-1.90404c-0.47472,0 -0.86,0.38528 -0.86,0.86c0,0.47472 0.38356,0.86 0.86,0.86z"></path></g></g></g></g></svg>