<svg version="1.1" xmlns="http://www.w3.org/2000/svg" xmlns:xlink="http://www.w3.org/1999/xlink" viewBox="0 0 172 172"><g fill="none" fill-rule="nonzero" stroke="none" stroke-width="1" stroke-linecap="butt" stroke-linejoin="miter" stroke-miterlimit="10" stroke-dasharray="" stroke-dashoffset="0" font-family="none" font-weight="none" font-size="none" text-anchor="none" style="mix-blend-mode: normal"><path d="M0,172v-172h172v172z" fill="none"></path><g id="Layer_1"><path d="M70.81563,16.39375l25.39687,24.32188c2.28438,2.15 5.375,3.09062 8.46563,2.41875l34.4,-7.12187c7.65938,-1.6125 13.70625,6.31562 10.34688,13.30313l-15.18438,31.7125c-1.34375,2.82187 -1.20937,6.04688 0.26875,8.73438l17.46875,30.50312c3.89688,6.71875 -1.74687,15.05 -9.40625,13.975l-34.80312,-4.70312c-3.09063,-0.40312 -6.18125,0.67188 -8.19687,2.95625l-23.78438,26.06875c-5.24062,5.77812 -14.78125,2.95625 -16.25937,-4.70312l-6.31563,-34.66875c-0.5375,-3.09062 -2.55312,-5.64375 -5.375,-6.85312l-31.98125,-14.37812c-7.12187,-3.225 -7.39062,-13.16875 -0.5375,-16.79687l30.90625,-16.6625c2.6875,-1.47812 4.56875,-4.16562 4.8375,-7.25625l3.89688,-34.9375c0.94062,-7.79375 10.2125,-11.2875 15.85625,-5.9125z" fill="#fff0b3"></path><path d="M55.22813,134.10625c-1.88125,0 -3.62812,-1.34375 -3.89687,-3.35937l-1.88125,-10.75c-0.26875,-1.74688 -1.47812,-3.225 -3.09062,-3.89688l-32.11563,-14.5125c-4.70312,-2.15 -7.79375,-6.58438 -7.92813,-11.825c-0.13437,-5.10625 2.55313,-9.80938 7.12188,-12.3625l30.90625,-16.52812c2.01563,-1.075 4.43437,-0.26875 5.50937,1.6125c1.075,2.01563 0.26875,4.43438 -1.6125,5.50938l-31.04062,16.6625c-1.88125,0.94062 -2.95625,2.82187 -2.82187,4.97187c0.13438,2.15 1.20938,3.89688 3.225,4.70313l32.11562,14.5125c4.03125,1.88125 6.85312,5.50937 7.65938,9.80938l1.88125,10.75c0.40313,2.15 -1.075,4.3 -3.225,4.70313c-0.26875,0 -0.5375,0 -0.80625,0z" fill="#444b54"></path><path d="M68.93438,165.68437c-1.20938,0 -2.55313,-0.13437 -3.7625,-0.5375c-4.97188,-1.47813 -8.6,-5.50938 -9.54062,-10.48125c-0.40313,-2.15 1.075,-4.3 3.225,-4.70312c2.15,-0.40313 4.3,1.075 4.70313,3.225c0.40312,2.01563 1.74687,3.62813 3.7625,4.16563c2.01563,0.5375 4.03125,0 5.50938,-1.6125l23.65,-26.06875c2.95625,-3.225 7.39063,-4.8375 11.69062,-4.3l34.80312,4.70312c2.01563,0.26875 4.03125,-0.5375 5.24063,-2.28437c1.20937,-1.74687 1.20937,-3.89688 0.26875,-5.64375l-17.46875,-30.50313c-2.15,-3.89688 -2.41875,-8.46562 -0.40313,-12.49687l15.31875,-31.7125c0.94063,-1.88125 0.67188,-4.03125 -0.67187,-5.64375c-1.34375,-1.6125 -3.225,-2.41875 -5.375,-2.01562l-34.4,7.12188c-4.3,0.94063 -8.86875,-0.40312 -11.95938,-3.49375l-25.39688,-24.05312c-1.47812,-1.47813 -3.62812,-1.88125 -5.50937,-1.20938c-2.01562,0.67188 -3.225,2.41875 -3.49375,4.43437l-2.28438,21.36563c-0.26875,2.15 -2.28438,3.7625 -4.43437,3.62813c-2.15,-0.26875 -3.7625,-2.28438 -3.62813,-4.43437l2.28438,-21.36563c0.5375,-5.10625 3.89688,-9.40625 8.73438,-11.15313c4.8375,-1.74687 10.2125,-0.67187 13.84063,2.95625l25.39687,24.32188c1.34375,1.20938 3.09063,1.74688 4.8375,1.34375l34.4,-7.12187c5.10625,-1.075 10.2125,0.80625 13.30313,4.8375c3.225,4.03125 3.7625,9.40625 1.47812,14.10938l-15.31875,31.7125c-0.80625,1.6125 -0.67187,3.49375 0.13437,4.97187l17.46875,30.50312c2.55313,4.43438 2.41875,9.94375 -0.5375,14.24375c-2.82188,4.3 -7.79375,6.45 -12.9,5.77812l-34.80313,-4.70312c-1.74687,-0.26875 -3.49375,0.40312 -4.70312,1.74687l-23.65,25.93438c-2.55313,2.95625 -6.18125,4.43437 -9.80938,4.43437z" fill="#444b54"></path><path d="M81.29688,73.77187c-1.6125,0 -3.225,-1.075 -3.7625,-2.6875l-11.95937,-32.7875c-0.80625,-2.15 0.26875,-4.43438 2.41875,-5.10625c2.15,-0.80625 4.43437,0.26875 5.10625,2.41875l11.95938,32.7875c0.80625,2.15 -0.26875,4.43438 -2.41875,5.10625c-0.40313,0.13438 -0.94062,0.26875 -1.34375,0.26875z" fill="#f2b630"></path><path d="M102.125,79.68438c-1.20938,0 -2.41875,-0.5375 -3.225,-1.6125c-1.34375,-1.74687 -1.075,-4.3 0.67188,-5.64375l33.05625,-25.93438c1.74687,-1.34375 4.3,-1.075 5.64375,0.67188c1.34375,1.74687 1.075,4.3 -0.67187,5.64375l-32.92187,26.06875c-0.80625,0.5375 -1.6125,0.80625 -2.55313,0.80625z" fill="#f2b630"></path><path d="M68.8,127.25313c-0.40312,0 -0.80625,0 -1.075,-0.13437c-2.15,-0.67187 -3.35937,-2.82187 -2.82188,-4.97187l5.50938,-18.94687c0.67188,-2.15 2.82188,-3.35937 4.97187,-2.82187c2.15,0.67188 3.35938,2.82187 2.82188,4.97187l-5.50938,18.94687c-0.5375,1.74687 -2.15,2.95625 -3.89688,2.95625z" fill="#ffffff"></path><path d="M71.08437,148.75313c-0.40312,0 -0.80625,0 -1.075,-0.13438c-2.15,-0.67187 -3.35937,-2.82187 -2.82188,-4.97188l8.46563,-29.42812c0.67188,-2.15 2.82187,-3.35937 4.97187,-2.82187c2.15,0.67188 3.35938,2.82187 2.82188,4.97187l-8.46563,29.42812c-0.5375,1.88125 -2.15,2.95625 -3.89688,2.95625z" fill="#f2b630"></path><path d="M137.33125,124.7c-0.80625,0 -1.6125,-0.26875 -2.28438,-0.67187l-35.20625,-23.78438c-8.73437,-5.9125 -18.94688,-8.73437 -29.42813,-8.46562l-38.96875,1.34375c-2.15,0.13437 -4.03125,-1.6125 -4.16563,-3.89688c-0.13438,-2.28438 1.6125,-4.03125 3.89687,-4.16563l38.96875,-1.34375c12.22813,-0.40313 24.05312,2.95625 34.26562,9.80938l35.34062,23.78438c1.88125,1.20937 2.28438,3.7625 1.075,5.64375c-0.94062,1.075 -2.15,1.74688 -3.49375,1.74688z" fill="#f2b630"></path><path d="M45.15,84.65625c-2.15,0 -3.89687,-1.74688 -4.03125,-3.89687c-0.13437,-2.28438 1.6125,-4.03125 3.89688,-4.16563l24.725,-0.94062c2.15,-0.13438 4.03125,1.6125 4.16563,3.89687c0.13438,2.28437 -1.6125,4.03125 -3.89687,4.16563l-24.725,0.94062z" fill="#ffffff"></path><path d="M121.34063,123.625c-0.80625,0 -1.6125,-0.26875 -2.28438,-0.67187l-23.78437,-16.125c-1.88125,-1.20938 -2.28438,-3.7625 -1.075,-5.64375c1.20938,-1.88125 3.7625,-2.28438 5.64375,-1.075l23.78437,16.125c1.88125,1.20938 2.28437,3.7625 1.075,5.64375c-0.80625,1.075 -2.15,1.74688 -3.35937,1.74688z" fill="#ffffff"></path></g></g></svg>