<svg version="1.1" xmlns="http://www.w3.org/2000/svg" xmlns:xlink="http://www.w3.org/1999/xlink" viewBox="0 0 172 172"><g fill="none" fill-rule="nonzero" stroke="none" stroke-width="1" stroke-linecap="butt" stroke-linejoin="miter" stroke-miterlimit="10" stroke-dasharray="" stroke-dashoffset="0" font-family="none" font-weight="none" font-size="none" text-anchor="none" style="mix-blend-mode: normal"><path d="M0,172v-172h172v172z" fill="none"></path><g id="Layer_1"><circle cx="64" cy="64" transform="scale(1.34375,1.34375)" r="45" fill="#adf9d2"></circle><path d="M143.64688,67.45625c-5.24062,-15.99063 -16.79687,-29.15937 -31.84687,-36.14687c-3.09062,-1.47812 -5.64375,0.13438 -5.50937,3.62813l0.13437,5.64375c0,2.95625 -1.74687,5.77813 -4.56875,6.9875c-6.04687,2.6875 -12.09375,1.20937 -14.64688,8.19687c-1.88125,5.24063 3.49375,19.35 10.2125,19.35c8.46562,0 12.63125,-17.06562 15.05,-17.06562c1.6125,0 4.16562,5.24062 7.12188,9.00313c2.01563,2.55312 5.10625,4.03125 8.33125,4.03125h5.64375l5.375,1.20937c2.95625,0.80625 5.50938,-2.01562 4.70313,-4.8375z" fill="rgba(255,160,140,1)"></path><path d="M96.88438,99.16875c-3.09062,4.3 13.03438,17.33437 18.40938,14.78125c9.1375,-4.3 15.18438,-13.16875 15.18438,-16.52813c0,-3.35937 -4.3,-9.675 -18.94688,0.26875c-4.16562,2.95625 -11.55625,-2.95625 -14.64688,1.47813z" fill="rgba(255,160,140,1)"></path><path d="M72.83125,87.20938c3.225,-3.225 4.16563,-8.19688 2.55313,-11.15313c-5.375,-9.54062 -18.00625,-4.56875 -19.21563,5.64375c-0.67187,6.04688 -4.3,12.3625 -7.525,15.5875c-3.09062,3.09062 -9.27188,1.47812 -10.88438,-3.09063c-1.88125,-5.10625 4.70313,-6.9875 3.7625,-13.57187c-0.26875,-1.74688 -2.15,-2.6875 -4.43438,-3.09063l-3.49375,0.13437c-4.43437,0.13437 -8.0625,3.89687 -8.0625,8.33125v0c0,26.60625 17.06562,49.31563 40.85,57.64687c3.49375,1.20938 7.12188,-1.34375 7.12188,-4.97187v0c0,-2.55313 -0.94063,-4.8375 -2.6875,-6.58438v0c-2.6875,-2.6875 2.95625,-7.39062 4.43437,-13.4375c4.3,-16.6625 -10.07812,-17.33438 -10.48125,-20.9625c-0.5375,-4.16563 4.70313,-7.25625 8.0625,-10.48125z" fill="rgba(255,160,140,1)"></path><path d="M38.29688,24.99375c-1.20938,0 -2.41875,-0.5375 -3.225,-1.6125c-1.34375,-1.74687 -0.94062,-4.3 0.80625,-5.64375c5.9125,-4.3 12.3625,-7.92813 19.21562,-10.61563c2.01563,-0.80625 4.43437,0.26875 5.24063,2.28437c0.80625,2.01563 -0.26875,4.43438 -2.28438,5.24062c-6.18125,2.41875 -11.95938,5.64375 -17.33438,9.54063c-0.67187,0.5375 -1.6125,0.80625 -2.41875,0.80625z" fill="#444b54"></path><path d="M86,170.65625c-22.575,0 -43.80625,-8.86875 -59.79687,-24.85937c-27.68125,-27.54687 -32.92187,-70.14375 -12.76562,-103.60312c1.20937,-1.88125 3.62813,-2.55313 5.50937,-1.34375c1.88125,1.20937 2.55313,3.62812 1.34375,5.50937c-18.14062,30.23438 -13.4375,68.8 11.55625,93.79375c29.83125,29.83125 78.475,29.83125 108.30625,0c29.83125,-29.83125 29.83125,-78.475 0,-108.30625c-1.6125,-1.6125 -1.6125,-4.16563 0,-5.64375c1.6125,-1.6125 4.16563,-1.6125 5.64375,0c33.05625,33.05625 33.05625,86.67188 0,119.72813c-15.99062,15.85625 -37.22187,24.725 -59.79687,24.725z" fill="#444b54"></path><circle cx="106.4" cy="21.6" transform="scale(1.34375,1.34375)" r="7" fill="rgba(255,160,140,1)"></circle><path d="M142.975,42.4625c-7.39062,0 -13.4375,-6.04687 -13.4375,-13.4375c0,-7.39062 6.04688,-13.4375 13.4375,-13.4375c7.39063,0 13.4375,6.04688 13.4375,13.4375c0,7.39062 -6.04687,13.4375 -13.4375,13.4375zM142.975,23.65c-2.95625,0 -5.375,2.41875 -5.375,5.375c0,2.95625 2.41875,5.375 5.375,5.375c2.95625,0 5.375,-2.41875 5.375,-5.375c0,-2.95625 -2.41875,-5.375 -5.375,-5.375z" fill="#444b54"></path><g fill="#444b54"><circle cx="64" cy="4" transform="scale(1.34375,1.34375)" r="3"></circle></g></g></g></svg>