<svg version="1.1" xmlns="http://www.w3.org/2000/svg" xmlns:xlink="http://www.w3.org/1999/xlink" viewBox="0 0 172 172"><g fill="none" fill-rule="nonzero" stroke="none" stroke-width="1" stroke-linecap="butt" stroke-linejoin="miter" stroke-miterlimit="10" stroke-dasharray="" stroke-dashoffset="0" font-family="none" font-weight="none" font-size="none" text-anchor="none" style="mix-blend-mode: normal"><path d="M0,172v-172h172v172z" fill="none"></path><g fill="rgb(20, 167, 108)"><path d="M86,0c-38.19351,0 -70.67608,25.04026 -81.86538,59.53846h14.05769c1.86058,-4.75481 4.23798,-9.22536 7.02885,-13.4375c0.41346,0.07753 0.80108,0.20673 1.24038,0.20673h12.40385c-1.31791,4.1863 -2.40324,8.65685 -3.30769,13.23077h13.64423c1.03365,-4.6256 2.22236,-9.09615 3.72115,-13.23077h66.15385c1.4988,4.13462 2.6875,8.60517 3.72115,13.23077h13.64423c-0.90445,-4.57392 -1.98978,-9.04447 -3.30769,-13.23077h12.40385c0.4393,0 0.82692,-0.12921 1.24038,-0.20673c2.76503,4.21214 5.16827,8.68269 7.02885,13.4375h14.05769c-11.1893,-34.4982 -43.67187,-59.53846 -81.86538,-59.53846zM86,13.23077c10.25901,0 19.74279,7.6232 26.875,19.84615h-53.75c7.13221,-12.22296 16.61599,-19.84615 26.875,-19.84615zM49.61538,22.94712c-2.04147,3.10096 -3.8762,6.53786 -5.58173,10.12981h-7.85577c4.08294,-3.85036 8.55349,-7.28726 13.4375,-10.12981zM122.38462,22.94712c4.88401,2.84255 9.35457,6.27945 13.4375,10.12981h-7.85577c-1.70553,-3.59195 -3.54026,-7.02885 -5.58173,-10.12981zM1.65385,72.14904c-0.25841,0.12921 -0.4393,0.41346 -0.62019,0.62019c-0.33594,0.4393 -0.41346,0.95613 -0.20673,1.44712l10.33654,25.01442c0.25842,0.62019 0.87861,1.03365 1.65385,1.03365h5.58173c0.72356,0 1.36959,-0.4393 1.65385,-1.03365l5.58173,-11.78365c0.49099,-1.08533 0.95613,-2.27404 1.44712,-3.51442c0.4393,1.11118 0.93029,2.11899 1.44712,3.30769l5.16827,11.99038c0.25842,0.62019 0.90445,1.03365 1.65385,1.03365h5.78846c0.7494,0 1.39544,-0.41346 1.65385,-1.03365l10.95673,-25.01442c0.20673,-0.49099 0.15505,-1.00781 -0.20673,-1.44712c-0.33594,-0.4393 -0.85276,-0.62019 -1.44712,-0.62019h-6.20192c-0.77524,0 -1.39543,0.38762 -1.65385,1.03365l-4.96154,12.61058c-0.4393,1.11118 -0.69772,1.96394 -1.03365,2.89423c-0.38762,-0.98197 -0.77524,-1.96394 -1.24038,-3.10096l-5.375,-12.40385c-0.25841,-0.62019 -0.90445,-1.03365 -1.65385,-1.03365h-5.16827c-0.7494,0 -1.60216,0.41346 -1.86058,1.03365l-5.58173,12.61058c-0.46514,1.08534 -0.85276,2.14483 -1.24038,3.10096c-0.33594,-0.95613 -0.64603,-2.04147 -1.03365,-3.10096l-4.54808,-12.61058c-0.23257,-0.67187 -0.85276,-1.03365 -1.65385,-1.03365h-6.40865c-0.3101,0 -0.56851,-0.12921 -0.82692,0zM60.77885,72.14904c-0.25841,0.12921 -0.64603,0.41346 -0.82692,0.62019c-0.33594,0.4393 -0.41346,0.95613 -0.20673,1.44712l10.33654,25.01442c0.25842,0.62019 0.87861,1.03365 1.65385,1.03365h5.78846c0.7494,0 1.36959,-0.4393 1.65385,-1.03365l5.58173,-11.78365c0.49099,-1.08533 0.95613,-2.27404 1.44712,-3.51442c0.4393,1.11118 0.72356,2.11899 1.24038,3.30769l5.375,11.99038c0.25842,0.62019 0.90445,1.03365 1.65385,1.03365h5.58173c0.7494,0 1.39544,-0.41346 1.65385,-1.03365l11.16346,-25.01442c0.20673,-0.49099 0.15505,-1.00781 -0.20673,-1.44712c-0.33594,-0.4393 -1.03365,-0.62019 -1.65385,-0.62019h-5.99519c-0.77524,0 -1.60216,0.38762 -1.86058,1.03365l-4.75481,12.61058c-0.4393,1.11118 -0.90445,1.96394 -1.24038,2.89423c-0.38762,-0.98197 -0.77524,-1.96394 -1.24038,-3.10096l-5.16827,-12.40385c-0.25841,-0.62019 -1.11118,-1.03365 -1.86058,-1.03365h-5.16827c-0.7494,0 -1.39543,0.41346 -1.65385,1.03365l-5.58173,12.61058c-0.46514,1.08534 -0.85276,2.14483 -1.24038,3.10096c-0.33594,-0.95613 -0.64603,-2.04147 -1.03365,-3.10096l-4.54808,-12.61058c-0.23257,-0.67187 -1.05949,-1.03365 -1.86058,-1.03365h-6.20192c-0.28426,0 -0.56851,-0.12921 -0.82692,0zM119.69712,72.14904c-0.25841,0.12921 -0.4393,0.41346 -0.62019,0.62019c-0.33594,0.4393 -0.38762,0.95613 -0.20673,1.44712l10.33654,25.01442c0.25842,0.62019 0.87861,1.03365 1.65385,1.03365h5.58173c0.72356,0 1.36959,-0.4393 1.65385,-1.03365l5.58173,-11.78365c0.49099,-1.08533 0.95613,-2.27404 1.44712,-3.51442c0.4393,1.11118 0.93029,2.11899 1.44712,3.30769l5.16827,11.99038c0.25842,0.62019 0.90445,1.03365 1.65385,1.03365h5.78846c0.7494,0 1.36959,-0.41346 1.65385,-1.03365l10.95673,-25.01442c0.20673,-0.49099 0.12921,-1.00781 -0.20673,-1.44712c-0.33594,-0.4393 -0.82692,-0.62019 -1.44712,-0.62019h-6.20192c-0.77524,0 -1.42128,0.38762 -1.65385,1.03365l-4.96154,12.61058c-0.4393,1.11118 -0.69772,1.96394 -1.03365,2.89423c-0.38762,-0.98197 -0.77524,-1.96394 -1.24038,-3.10096l-5.375,-12.40385c-0.25841,-0.62019 -0.90445,-1.03365 -1.65385,-1.03365h-5.375c-0.7494,0 -1.39543,0.41346 -1.65385,1.03365l-5.58173,12.61058c-0.46514,1.08534 -0.85276,2.14483 -1.24038,3.10096c-0.33594,-0.95613 -0.64603,-2.04147 -1.03365,-3.10096l-4.54808,-12.61058c-0.23257,-0.67187 -0.85276,-1.03365 -1.65385,-1.03365h-6.40865c-0.3101,0 -0.56851,-0.12921 -0.82692,0zM4.13462,112.46154c11.1893,34.4982 43.67188,59.53846 81.86538,59.53846c38.19351,0 70.67608,-25.04026 81.86538,-59.53846h-14.05769c-1.86058,4.75481 -4.26382,9.22536 -7.02885,13.4375c-0.41346,-0.07753 -0.80108,-0.20673 -1.24038,-0.20673h-12.40385c1.31791,-4.18629 2.19651,-8.65685 3.10096,-13.23077h-13.4375c-1.00781,4.6256 -2.22235,9.12199 -3.72115,13.23077h-66.15385c-1.49879,-4.10878 -2.6875,-8.60517 -3.72115,-13.23077h-13.4375c0.90445,4.57392 1.78305,9.04447 3.10096,13.23077h-12.40385c-0.4393,0 -0.82692,0.12921 -1.24038,0.20673c-2.76503,-4.21214 -5.16827,-8.68269 -7.02885,-13.4375zM36.17788,138.92308h7.85577c1.70553,3.59195 3.54026,7.02885 5.58173,10.12981c-4.88401,-2.84254 -9.35456,-6.27945 -13.4375,-10.12981zM59.125,138.92308h53.75c-7.13221,12.22296 -16.61599,19.84615 -26.875,19.84615c-10.25901,0 -19.74279,-7.6232 -26.875,-19.84615zM127.96635,138.92308h7.85577c-4.08293,3.85036 -8.55349,7.28726 -13.4375,10.12981c2.04147,-3.10096 3.87621,-6.53786 5.58173,-10.12981z"></path></g></g></svg>