<svg version="1.1" xmlns="http://www.w3.org/2000/svg" xmlns:xlink="http://www.w3.org/1999/xlink" viewBox="0 0 172 172"><g fill="none" fill-rule="nonzero" stroke="none" stroke-width="1" stroke-linecap="butt" stroke-linejoin="miter" stroke-miterlimit="10" stroke-dasharray="" stroke-dashoffset="0" font-family="none" font-weight="none" font-size="none" text-anchor="none" style="mix-blend-mode: normal"><path d="M0,172v-172h172v172z" fill="none"></path><g><path d="M132.44,20.64c-0.94993,0 -1.72,0.77007 -1.72,1.72c0,0.94993 0.77007,1.72 1.72,1.72c0.94993,0 1.72,-0.77007 1.72,-1.72c0,-0.94993 -0.77007,-1.72 -1.72,-1.72z" fill="#007e58"></path><path d="M86,22.36c-35.1474,0 -63.64,28.4926 -63.64,63.64c0,35.1474 28.4926,63.64 63.64,63.64c35.1474,0 63.64,-28.4926 63.64,-63.64c0,-35.1474 -28.4926,-63.64 -63.64,-63.64z" fill="#ffffff"></path><path d="M142.76,18.92c-3.79972,0 -6.88,3.08028 -6.88,6.88c0,3.79972 3.08028,6.88 6.88,6.88c3.79972,0 6.88,-3.08028 6.88,-6.88c0,-3.79972 -3.08028,-6.88 -6.88,-6.88z" fill="#007e58"></path><path d="M149.64,37.84c-1.89986,0 -3.44,1.54014 -3.44,3.44c0,1.89986 1.54014,3.44 3.44,3.44c1.89986,0 3.44,-1.54014 3.44,-3.44c0,-1.89986 -1.54014,-3.44 -3.44,-3.44z" fill="#007e58"></path><path d="M139.32,127.28c-1.89986,0 -3.44,1.54014 -3.44,3.44c0,1.89986 1.54014,3.44 3.44,3.44c1.89986,0 3.44,-1.54014 3.44,-3.44c0,-1.89986 -1.54014,-3.44 -3.44,-3.44zM25.8,101.48c-3.79972,0 -6.88,3.08028 -6.88,6.88c0,3.79972 3.08028,6.88 6.88,6.88c3.79972,0 6.88,-3.08028 6.88,-6.88c0,-3.79972 -3.08028,-6.88 -6.88,-6.88z" fill="#00396f"></path><path d="M43,146.2c-1.89986,0 -3.44,1.54014 -3.44,3.44c0,1.89986 1.54014,3.44 3.44,3.44c1.89986,0 3.44,-1.54014 3.44,-3.44c0,-1.89986 -1.54014,-3.44 -3.44,-3.44z" fill="#007e58"></path><path d="M31.82,84.28c-2.37482,0 -4.3,1.92518 -4.3,4.3c0,2.37482 1.92518,4.3 4.3,4.3c2.37482,0 4.3,-1.92518 4.3,-4.3c0,-2.37482 -1.92518,-4.3 -4.3,-4.3zM136.74,55.04c-1.42489,0 -2.58,1.15511 -2.58,2.58c0,1.42489 1.15511,2.58 2.58,2.58c1.42489,0 2.58,-1.15511 2.58,-2.58c0,-1.42489 -1.15511,-2.58 -2.58,-2.58z" fill="#ffffff"></path><g><path d="M69.84576,131.89648l-6.8112,-10.33892l-12.4356,2.4682l15.19964,-37.16576l19.2468,7.87072z" fill="#556d89"></path><path d="M70.09516,134.46444l-7.62132,-11.56872l-13.8374,2.74684l16.5034,-40.35292l21.4742,8.78232zM63.59528,120.2194l6.00108,9.10912l13.87868,-33.93732l-17.01768,-6.95912l-13.8976,33.97688z" fill="#472b29"></path><path d="M102.15424,131.89648l6.8112,-10.33892l12.4356,2.4682l-15.19964,-37.16576l-19.2468,7.87072z" fill="#556d89"></path><path d="M101.90484,134.46444l-16.5206,-40.39076l21.47592,-8.78232l16.5034,40.35292l-13.83912,-2.74684zM88.52496,95.38948l13.8804,33.93732l5.99936,-9.10912l11.0338,2.18784l-13.89588,-33.97688z" fill="#472b29"></path><path d="M92.42592,106.038c-0.57276,0 -1.12488,-0.12556 -1.64432,-0.37668l-2.08808,-1.00964c-0.8342,-0.4042 -1.76644,-0.61748 -2.69352,-0.61748c-0.92708,0 -1.85932,0.21328 -2.69524,0.61748l-2.08636,1.00964c-0.51772,0.25112 -1.07156,0.37668 -1.64432,0.37668c-1.11628,0.00172 -2.16892,-0.48676 -2.88788,-1.33816l-1.49812,-1.77332c-1.17648,-1.39492 -2.8982,-2.193 -4.72484,-2.193c0,0 -2.5198,0.0774 -2.52152,0.0774c-1.79052,0 -3.27832,-1.11972 -3.74444,-2.72448l-0.64672,-2.22912c-0.52976,-1.82492 -1.84384,-3.28348 -3.60512,-4.00416l-2.15,-0.87548c-1.59788,-0.65188 -2.55076,-2.30308 -2.31684,-4.01276l0.31648,-2.29792c0.25972,-1.88512 -0.34744,-3.75304 -1.66496,-5.12388l-1.60648,-1.67356c-1.1954,-1.247 -1.39492,-3.14244 -0.48504,-4.6096l1.22292,-1.97112c1.00276,-1.61508 1.20916,-3.569 0.56416,-5.3578l-0.78776,-2.1844c-0.5848,-1.62368 0.00344,-3.43656 1.43104,-4.40664l1.91952,-1.30376c1.5738,-1.06812 2.55592,-2.76748 2.69352,-4.66636l0.17028,-2.31512c0.12556,-1.72172 1.40008,-3.13728 3.09944,-3.44172l2.28416,-0.40936c1.87136,-0.3354 3.46064,-1.49124 4.3602,-3.16996l1.09564,-2.04336c0.65876,-1.23152 1.935,-1.9952 3.33164,-1.9952c0.30272,0 0.60716,0.03612 0.90128,0.10836l2.2532,0.55384c0.48332,0.11868 0.9804,0.17888 1.47748,0.17888c1.36568,0 2.71244,-0.46268 3.7926,-1.30032l1.83352,-1.42244c0.6708,-0.516 1.47232,-0.78948 2.31856,-0.78948c0.84624,0 1.64776,0.27348 2.31684,0.79292l1.8318,1.42244c1.08016,0.83764 2.42692,1.30032 3.7926,1.30032c0.49708,0 0.99588,-0.0602 1.4792,-0.17888l2.25148,-0.55384c0.29584,-0.07224 0.60028,-0.10836 0.90128,-0.10836c1.39664,0 2.67288,0.76368 3.33164,1.9952l1.09736,2.04336c0.89784,1.677 2.48712,2.83112 4.35848,3.16824l2.28244,0.40936c1.69936,0.30444 2.97388,1.72 3.10116,3.44172l0.17028,2.31512c0.13932,1.89888 1.11972,3.59824 2.69352,4.66636l1.9178,1.30376c1.42932,0.97008 2.01928,2.78124 1.43276,4.40664l-0.78604,2.1844c-0.645,1.79052 -0.44032,3.74444 0.56244,5.3578l1.22292,1.97112c0.90988,1.46716 0.71208,3.36088 -0.48332,4.6096l-1.60648,1.67356c-1.31752,1.37084 -1.92468,3.23876 -1.66668,5.12388l0.31648,2.30136c0.23564,1.70796 -0.71724,3.35916 -2.31684,4.01104l-2.14656,0.87548c-1.763,0.72068 -3.0788,2.18096 -3.60684,4.00588l-0.64672,2.2274c-0.46612,1.60476 -1.95908,2.7262 -3.62748,2.7262l-2.63676,-0.07912c-1.82664,0 -3.54836,0.7998 -4.72656,2.19472l-1.4964,1.7716c-0.71896,0.84796 -1.7716,1.33472 -2.88788,1.33472z" fill="#c13526"></path><path d="M86,38.528c0.5762,0 1.12316,0.18748 1.57896,0.54008l1.8318,1.42244c1.29,1.00104 2.8982,1.55144 4.53048,1.55144c0.5934,0 1.18852,-0.07224 1.76644,-0.215l2.2532,-0.55384c0.20296,-0.04988 0.40936,-0.07396 0.61576,-0.07396c0.94944,0 1.81976,0.52116 2.26868,1.3588l1.09564,2.04508c1.07328,2.0038 2.97044,3.38152 5.20816,3.784l2.28244,0.40936c1.15756,0.20812 2.02616,1.17304 2.11216,2.34608l0.16856,2.3134c0.16512,2.26696 1.33816,4.3 3.21812,5.57452l1.91952,1.30376c0.97352,0.66048 1.37428,1.89544 0.97524,3.00312l-0.78604,2.18268c-0.77056,2.13624 -0.5246,4.47028 0.67252,6.40184l1.22292,1.97112c0.62092,1.00104 0.48504,2.29104 -0.33024,3.14072l-1.60648,1.67356c-1.5738,1.63916 -2.29792,3.87 -1.99004,6.1232l0.31648,2.29792c0.15996,1.16616 -0.48848,2.28932 -1.57896,2.73308l-2.14828,0.87548c-2.10356,0.85828 -3.67392,2.60064 -4.3086,4.78332l-0.64672,2.2274c-0.31648,1.0922 -1.33128,1.85588 -2.55076,1.85588c-0.00172,0 -0.00172,0 -0.00344,0l-2.32028,-0.07396l-0.2322,-0.00344c-2.18096,0 -4.2398,0.95632 -5.64676,2.62128l-1.4964,1.7716c-0.4902,0.58136 -1.20744,0.91332 -1.9694,0.91332c-0.39044,0 -0.7654,-0.086 -1.118,-0.25628l-2.08808,-1.00964c-0.9976,-0.48332 -2.11044,-0.73788 -3.21984,-0.73788c-1.1094,0 -2.22224,0.25456 -3.21812,0.73788l-2.08808,1.00964c-0.3526,0.17028 -0.72928,0.25628 -1.118,0.25628c-0.76024,0 -1.4792,-0.33196 -1.9694,-0.91332l-1.4964,-1.7716c-1.40696,-1.66668 -3.4658,-2.62128 -5.64676,-2.62128l-0.23392,0.00344l-2.40112,0.07568c-1.13692,0 -2.15344,-0.76368 -2.46992,-1.8576l-0.64672,-2.2274c-0.63296,-2.18268 -2.20332,-3.92676 -4.30688,-4.78332l-2.14828,-0.87548c-1.08876,-0.44376 -1.73892,-1.56864 -1.57896,-2.73308l0.31476,-2.29792c0.3096,-2.25148 -0.41624,-4.48232 -1.99004,-6.1232l-1.60648,-1.67356c-0.81528,-0.84968 -0.94944,-2.13968 -0.33024,-3.139l1.22292,-1.97112c1.19712,-1.93156 1.44308,-4.26388 0.67252,-6.40184l-0.78604,-2.18268c-0.39904,-1.10768 0.00172,-2.34092 0.97524,-3.00312l1.91952,-1.30376c1.87996,-1.27624 3.053,-3.30756 3.21812,-5.57452l0.16856,-2.3134c0.086,-1.17304 0.9546,-2.13796 2.11216,-2.34608l2.28416,-0.40936c2.236,-0.40248 4.13488,-1.78192 5.20644,-3.784l1.09564,-2.04508c0.44892,-0.83764 1.31924,-1.3588 2.26868,-1.3588c0.2064,0 0.4128,0.0258 0.61576,0.07396l2.2532,0.55384c0.57792,0.14276 1.17132,0.215 1.76472,0.215c1.63228,0 3.2422,-0.5504 4.53048,-1.55144l1.8318,-1.42244c0.46096,-0.35432 1.00792,-0.5418 1.58412,-0.5418M86,36.12c-1.07844,0 -2.15688,0.34916 -3.05472,1.04576l-1.83352,1.42244c-0.88236,0.68456 -1.95908,1.04576 -3.05472,1.04576c-0.39732,0 -0.79636,-0.04816 -1.19024,-0.14448l-2.2532,-0.55384c-0.39732,-0.09804 -0.79636,-0.14448 -1.19024,-0.14448c-1.80428,0 -3.5088,0.98384 -4.39116,2.62988l-1.09564,2.04508c-0.71896,1.3416 -2.0124,2.28244 -3.51052,2.55076l-2.28416,0.40936c-2.23944,0.40248 -3.9216,2.2704 -4.08844,4.5408l-0.16856,2.3134c-0.1118,1.51876 -0.90988,2.90336 -2.17064,3.7582l-1.91952,1.30376c-1.88168,1.27968 -2.65912,3.67048 -1.88856,5.81016l0.78604,2.18268c0.516,1.43276 0.34916,3.02204 -0.45408,4.31548l-1.22292,1.97112c-1.20056,1.935 -0.9374,4.43416 0.63812,6.07676l1.60648,1.67356c1.05436,1.09908 1.548,2.61956 1.3416,4.128l-0.31648,2.29792c-0.3096,2.25492 0.94772,4.43244 3.05472,5.29072l2.14828,0.87548c1.4104,0.57448 2.48024,1.763 2.90336,3.225l0.64672,2.2274c0.6192,2.13452 2.57312,3.59308 4.78332,3.59308c0.05332,0 0.10664,0 0.15996,-0.00172l2.31856,-0.07396c0.05332,-0.00172 0.10492,-0.00172 0.15652,-0.00172c1.46544,0 2.85864,0.645 3.80808,1.76816l1.4964,1.7716c0.9718,1.14896 2.37532,1.76816 3.80808,1.76816c0.73272,0 1.47404,-0.16168 2.1672,-0.49708l2.08808,-1.00964c0.68456,-0.33196 1.4276,-0.4988 2.17064,-0.4988c0.74304,0 1.48436,0.16684 2.17064,0.4988l2.08808,1.00964c0.69316,0.3354 1.43448,0.49708 2.1672,0.49708c1.43276,0 2.838,-0.61748 3.80808,-1.76816l1.4964,-1.7716c0.94772,-1.12316 2.34264,-1.76816 3.80808,-1.76816c0.0516,0 0.10492,0 0.15652,0.00172l2.31856,0.07396c0.05332,0.00172 0.10664,0.00172 0.15996,0.00172c2.20848,0 4.16412,-1.46028 4.78332,-3.59308l0.64672,-2.2274c0.42484,-1.462 1.49468,-2.65052 2.90336,-3.225l2.14828,-0.87548c2.107,-0.86 3.36432,-3.03752 3.05472,-5.29072l-0.31648,-2.29792c-0.2064,-1.50844 0.28724,-3.02892 1.3416,-4.128l1.60648,-1.67356c1.57552,-1.6426 1.83868,-4.14176 0.63812,-6.07676l-1.22292,-1.97112c-0.80324,-1.29344 -0.97008,-2.88444 -0.45408,-4.31548l0.78604,-2.18268c0.77228,-2.1414 -0.00516,-4.5322 -1.88856,-5.81016l-1.91952,-1.30376c-1.25904,-0.85484 -2.05884,-2.23944 -2.17064,-3.7582l-0.16856,-2.3134c-0.16512,-2.26868 -1.849,-4.13832 -4.08844,-4.5408l-2.28416,-0.40936c-1.49812,-0.27004 -2.79156,-1.20916 -3.51052,-2.55076l-1.09564,-2.04508c-0.88236,-1.64604 -2.58688,-2.62988 -4.39116,-2.62988c-0.39388,0 -0.79464,0.04644 -1.19024,0.14448l-2.2532,0.55384c-0.39388,0.09632 -0.79292,0.14448 -1.19024,0.14448c-1.09564,0 -2.17236,-0.3612 -3.05472,-1.04576l-1.83352,-1.42244c-0.88752,-0.6966 -1.96596,-1.04576 -3.0444,-1.04576z" fill="#472b29"></path><path d="M111.37172,65.31184c-0.3698,0 -0.71036,-0.23908 -0.82388,-0.60888c-0.1118,-0.37324 -0.23736,-0.74132 -0.36636,-1.10596c-0.51084,-1.42072 -1.1524,-2.80188 -1.90404,-4.10392c-0.23908,-0.40936 -0.09804,-0.93568 0.31476,-1.17476c0.40076,-0.23908 0.93396,-0.10148 1.17476,0.31476c0.80496,1.38976 1.48952,2.8638 2.03648,4.38428c0.13932,0.39044 0.27004,0.78432 0.39388,1.18336c0.1376,0.45408 -0.11696,0.93396 -0.57276,1.07328c-0.086,0.0258 -0.17028,0.03784 -0.25284,0.03784zM60.0108,67.16428c-0.06192,0 -0.12384,-0.00688 -0.18576,-0.02064c-0.4644,-0.1032 -0.7568,-0.56244 -0.6536,-1.02684c2.752,-12.43732 14.0352,-21.4656 26.83028,-21.4656c7.86384,0 15.36476,3.36776 20.57808,9.24156c0.39388,0.44548 0.774,0.90128 1.13864,1.37084c0.2924,0.37496 0.22532,0.91504 -0.15136,1.20572c-0.37324,0.28896 -0.91504,0.22532 -1.20572,-0.15136c-0.34056,-0.4386 -0.6966,-0.86516 -1.06812,-1.28312c-4.88996,-5.50572 -11.92132,-8.66364 -19.29324,-8.66364c-11.99356,0 -22.57156,8.46068 -25.14984,20.11884c-0.08944,0.40076 -0.44376,0.67424 -0.83936,0.67424zM86,99.43492c-13.39364,0 -24.7766,-9.53396 -27.06764,-22.6696c-0.08084,-0.46784 0.2322,-0.91332 0.70004,-0.99416c0.47644,-0.08944 0.91332,0.23048 0.99588,0.69832c2.14484,12.31004 12.81572,21.24544 25.37172,21.24544c14.20204,0 25.75528,-11.5154 25.75528,-25.671c0,-1.28828 -0.09804,-2.58344 -0.28896,-3.85108c-0.07224,-0.46956 0.25112,-0.90816 0.72068,-0.97868c0.4644,-0.0602 0.90816,0.25112 0.97868,0.72068c0.20468,1.35364 0.3096,2.73652 0.3096,4.1108c0,15.1016 -12.32552,27.38928 -27.47528,27.38928zM113.71436,118.17604c-0.17028,0 -0.33024,-0.10148 -0.39732,-0.26832l-1.6942,-4.1968c-0.08944,-0.22016 0.0172,-0.46956 0.23736,-0.559c0.22016,-0.09116 0.46956,0.01548 0.559,0.23736l1.6942,4.1968c0.08944,0.22016 -0.0172,0.46956 -0.23736,0.559c-0.05332,0.02064 -0.10664,0.03096 -0.16168,0.03096z" fill="#472b29"></path><g fill="#472b29"><path d="M110.7852,110.91592c-0.17028,0 -0.33024,-0.10148 -0.39732,-0.26832l-3.90268,-9.66296c-0.08944,-0.22016 0.0172,-0.46956 0.23736,-0.559c0.22188,-0.09288 0.46956,0.01548 0.559,0.23736l3.90268,9.66296c0.08944,0.22016 -0.0172,0.46956 -0.23736,0.559c-0.05332,0.02064 -0.10836,0.03096 -0.16168,0.03096z"></path></g><g fill="#472b29"><path d="M68.53512,122.77188c-0.05676,0 -0.11352,-0.01204 -0.16856,-0.0344c-0.21844,-0.0946 -0.32164,-0.34572 -0.22704,-0.56416l1.76988,-4.16756c0.09288,-0.22016 0.34744,-0.31304 0.56416,-0.22876c0.21844,0.0946 0.32164,0.34572 0.22704,0.56416l-1.76988,4.16756c-0.0688,0.16512 -0.22876,0.26316 -0.3956,0.26316z"></path></g><g fill="#472b29"><path d="M71.59672,115.56508c-0.05676,0 -0.11352,-0.01204 -0.16856,-0.0344c-0.21844,-0.0946 -0.32164,-0.34572 -0.22704,-0.56416l0.87376,-2.0554c0.09288,-0.22016 0.34744,-0.31304 0.56416,-0.22876c0.21844,0.0946 0.32164,0.34572 0.22704,0.56416l-0.87376,2.0554c-0.07052,0.16684 -0.22876,0.26316 -0.3956,0.26316z"></path></g><g fill="#472b29"><path d="M73.44744,111.21004c-0.05676,0 -0.11352,-0.01204 -0.16856,-0.0344c-0.21844,-0.0946 -0.32164,-0.34572 -0.22704,-0.56416l2.22396,-5.2374c0.09288,-0.22016 0.34744,-0.31992 0.56416,-0.22876c0.21844,0.0946 0.32164,0.34572 0.22704,0.56416l-2.22396,5.2374c-0.07052,0.16684 -0.22876,0.26316 -0.3956,0.26316z"></path></g></g></g></g></svg>