<svg version="1.1" xmlns="http://www.w3.org/2000/svg" xmlns:xlink="http://www.w3.org/1999/xlink" viewBox="0 0 172 172"><g fill="none" fill-rule="nonzero" stroke="none" stroke-width="1" stroke-linecap="butt" stroke-linejoin="miter" stroke-miterlimit="10" stroke-dasharray="" stroke-dashoffset="0" font-family="none" font-weight="none" font-size="none" text-anchor="none" style="mix-blend-mode: normal"><path d="M0,172v-172h172v172z" fill="none"></path><g><path d="M86,22.36c-35.1474,0 -63.64,28.4926 -63.64,63.64c0,35.1474 28.4926,63.64 63.64,63.64c35.1474,0 63.64,-28.4926 63.64,-63.64c0,-35.1474 -28.4926,-63.64 -63.64,-63.64z" fill="#ffffff"></path><path d="M22.36,46.44c-1.89986,0 -3.44,1.54014 -3.44,3.44c0,1.89986 1.54014,3.44 3.44,3.44c1.89986,0 3.44,-1.54014 3.44,-3.44c0,-1.89986 -1.54014,-3.44 -3.44,-3.44z" fill="#e67e22"></path><path d="M132.44,20.64c-0.94993,0 -1.72,0.77007 -1.72,1.72c0,0.94993 0.77007,1.72 1.72,1.72c0.94993,0 1.72,-0.77007 1.72,-1.72c0,-0.94993 -0.77007,-1.72 -1.72,-1.72zM142.76,18.92c-3.79972,0 -6.88,3.08028 -6.88,6.88c0,3.79972 3.08028,6.88 6.88,6.88c3.79972,0 6.88,-3.08028 6.88,-6.88c0,-3.79972 -3.08028,-6.88 -6.88,-6.88z" fill="#e74c3c"></path><path d="M149.64,37.84c-1.89986,0 -3.44,1.54014 -3.44,3.44c0,1.89986 1.54014,3.44 3.44,3.44c1.89986,0 3.44,-1.54014 3.44,-3.44c0,-1.89986 -1.54014,-3.44 -3.44,-3.44z" fill="#e67e22"></path><path d="M139.32,127.28c-1.89986,0 -3.44,1.54014 -3.44,3.44c0,1.89986 1.54014,3.44 3.44,3.44c1.89986,0 3.44,-1.54014 3.44,-3.44c0,-1.89986 -1.54014,-3.44 -3.44,-3.44zM25.8,101.48c-3.79972,0 -6.88,3.08028 -6.88,6.88c0,3.79972 3.08028,6.88 6.88,6.88c3.79972,0 6.88,-3.08028 6.88,-6.88c0,-3.79972 -3.08028,-6.88 -6.88,-6.88z" fill="#2ecc71"></path><path d="M43,146.2c-1.89986,0 -3.44,1.54014 -3.44,3.44c0,1.89986 1.54014,3.44 3.44,3.44c1.89986,0 3.44,-1.54014 3.44,-3.44c0,-1.89986 -1.54014,-3.44 -3.44,-3.44z" fill="#e67e22"></path><path d="M31.82,87.72c-2.37482,0 -4.3,1.92518 -4.3,4.3c0,2.37482 1.92518,4.3 4.3,4.3c2.37482,0 4.3,-1.92518 4.3,-4.3c0,-2.37482 -1.92518,-4.3 -4.3,-4.3z" fill="#ffffff"></path><path d="M36.12,113.52c-0.94993,0 -1.72,0.77007 -1.72,1.72c0,0.94993 0.77007,1.72 1.72,1.72c0.94993,0 1.72,-0.77007 1.72,-1.72c0,-0.94993 -0.77007,-1.72 -1.72,-1.72z" fill="#e74c3c"></path><path d="M137.6,56.76c-0.94993,0 -1.72,0.77007 -1.72,1.72c0,0.94993 0.77007,1.72 1.72,1.72c0.94993,0 1.72,-0.77007 1.72,-1.72c0,-0.94993 -0.77007,-1.72 -1.72,-1.72z" fill="#ffffff"></path><g><path d="M125.56,53.32h-79.12c-1.89716,0 -3.44,1.54284 -3.44,3.44v58.48c0.00172,1.89544 1.54456,3.44 3.44,3.44h6.88v-1.72c0,-0.94944 0.77056,-1.72 1.72,-1.72h6.88c0.94944,0 1.72,0.77056 1.72,1.72v1.72h46.43828l0.00172,-1.72c0,-0.94944 0.77056,-1.72 1.72,-1.72h6.88c0.94944,0 1.72,0.77056 1.72,1.72v1.72h5.16c0.91848,0 1.78192,-0.35776 2.43208,-1.00792c0.65016,-0.65016 1.00792,-1.5136 1.00792,-2.43208v-46.44v-12.04c0,-1.89716 -1.54284,-3.44 -3.44,-3.44z" fill="#fdfcef"></path><path d="M125.56,51.6c0,0 -33.26996,0 -36.12,0h-43c-2.85004,0 -5.16,2.30996 -5.16,5.16v58.48c0.00172,2.84832 2.31168,5.16 5.16,5.16v0l6.87828,-0.00172c0,0 0,0 0.00172,0c0.94944,0 1.72,-0.77056 1.72,-1.72v-1.71828h6.88v1.72c0,0.94944 0.77056,1.72 1.72,1.72h46.43828c0,0 0,0 0.00172,0c0.94944,0 1.72,-0.77056 1.72,-1.72v-1.72h6.88v1.72c0,0.94944 0.77056,1.72 1.72,1.72h5.16c2.85004,0 5.16,-2.30996 5.16,-5.16v-46.44v-12.04c0,-2.85004 -2.30996,-5.16 -5.16,-5.16zM128.312,68.8v46.44c0,0.73444 -0.28552,1.42588 -0.80668,1.94532c-0.51944,0.51944 -1.21088,0.80668 -1.94532,0.80668h-4.472v-1.032c0,-1.32956 -1.07844,-2.408 -2.408,-2.408h-6.88c-1.32956,0 -2.408,1.07844 -2.408,2.408v1.03028h-40.34432h-4.71968v-1.03028c0,-1.32956 -1.07844,-2.408 -2.408,-2.408h-6.88c-1.32956,0 -2.408,1.07844 -2.408,2.408v1.03028l-6.192,0.00172c-1.51532,0 -2.75028,-1.23496 -2.752,-2.752v-58.48c0,-1.51704 1.23496,-2.752 2.752,-2.752h79.12c1.51704,0 2.752,1.23496 2.752,2.752z" fill="#333333"></path><path d="M91.16,98.47c0.71208,0 1.29,0.57792 1.29,1.29v3.44c0,0.71208 -0.57792,1.29 -1.29,1.29c-0.71208,0 -1.29,-0.57792 -1.29,-1.29v-3.44c0,-0.71208 0.57792,-1.29 1.29,-1.29M98.04,98.47c0.71208,0 1.29,0.57792 1.29,1.29v3.44c0,0.71208 -0.57792,1.29 -1.29,1.29c-0.71208,0 -1.29,-0.57792 -1.29,-1.29v-3.44c0,-0.71208 0.57792,-1.29 1.29,-1.29M104.92,98.47c0.71208,0 1.29,0.57792 1.29,1.29v3.44c0,0.71208 -0.57792,1.29 -1.29,1.29c-0.71208,0 -1.29,-0.57792 -1.29,-1.29v-3.44c0,-0.71208 0.57792,-1.29 1.29,-1.29M111.8,98.47c0.71208,0 1.29,0.57792 1.29,1.29v3.44c0,0.71208 -0.57792,1.29 -1.29,1.29c-0.71208,0 -1.29,-0.57792 -1.29,-1.29v-3.44c0,-0.71208 0.57792,-1.29 1.29,-1.29M118.68,98.47c0.71208,0 1.29,0.57792 1.29,1.29v3.44c0,0.71208 -0.57792,1.29 -1.29,1.29c-0.71208,0 -1.29,-0.57792 -1.29,-1.29v-3.44c0,-0.71208 0.57792,-1.29 1.29,-1.29" fill="#95a5a6"></path><path d="M91.16,98.9c0.47472,0 0.86,0.38528 0.86,0.86v3.44c0,0.47472 -0.38528,0.86 -0.86,0.86c-0.47472,0 -0.86,-0.38528 -0.86,-0.86v-3.44c0,-0.47472 0.38528,-0.86 0.86,-0.86M91.16,98.04c-0.94944,0 -1.72,0.77056 -1.72,1.72c0,0.59512 0,2.83628 0,3.44c0,0.94944 0.77056,1.72 1.72,1.72c0.94944,0 1.72,-0.77056 1.72,-1.72c0,-0.60372 0,-2.84488 0,-3.44c0,-0.94944 -0.77056,-1.72 -1.72,-1.72zM98.04,98.9c0.47472,0 0.86,0.38528 0.86,0.86v3.44c0,0.47472 -0.38528,0.86 -0.86,0.86c-0.47472,0 -0.86,-0.38528 -0.86,-0.86v-3.44c0,-0.47472 0.38528,-0.86 0.86,-0.86M98.04,98.04c-0.94944,0 -1.72,0.77056 -1.72,1.72c0,0.59512 0,2.83628 0,3.44c0,0.94944 0.77056,1.72 1.72,1.72c0.94944,0 1.72,-0.77056 1.72,-1.72c0,-0.60372 0,-2.84488 0,-3.44c0,-0.94944 -0.77056,-1.72 -1.72,-1.72zM104.92,98.9c0.47472,0 0.86,0.38528 0.86,0.86v3.44c0,0.47472 -0.38528,0.86 -0.86,0.86c-0.47472,0 -0.86,-0.38528 -0.86,-0.86v-3.44c0,-0.47472 0.38528,-0.86 0.86,-0.86M104.92,98.04c-0.94944,0 -1.72,0.77056 -1.72,1.72c0,0.59512 0,2.83628 0,3.44c0,0.94944 0.77056,1.72 1.72,1.72c0.94944,0 1.72,-0.77056 1.72,-1.72c0,-0.60372 0,-2.84488 0,-3.44c0,-0.94944 -0.77056,-1.72 -1.72,-1.72zM111.8,98.9c0.47472,0 0.86,0.38528 0.86,0.86v3.44c0,0.47472 -0.38528,0.86 -0.86,0.86c-0.47472,0 -0.86,-0.38528 -0.86,-0.86v-3.44c0,-0.47472 0.38528,-0.86 0.86,-0.86M111.8,98.04c-0.94944,0 -1.72,0.77056 -1.72,1.72c0,0.59512 0,2.83628 0,3.44c0,0.94944 0.77056,1.72 1.72,1.72c0.94944,0 1.72,-0.77056 1.72,-1.72c0,-0.60372 0,-2.84488 0,-3.44c0,-0.94944 -0.77056,-1.72 -1.72,-1.72zM118.68,98.9c0.47472,0 0.86,0.38528 0.86,0.86v3.44c0,0.47472 -0.38528,0.86 -0.86,0.86c-0.47472,0 -0.86,-0.38528 -0.86,-0.86v-3.44c0,-0.47472 0.38528,-0.86 0.86,-0.86M118.68,98.04c-0.94944,0 -1.72,0.77056 -1.72,1.72c0,0.59512 0,2.83628 0,3.44c0,0.94944 0.77056,1.72 1.72,1.72c0.94944,0 1.72,-0.77056 1.72,-1.72c0,-0.60372 0,-2.84488 0,-3.44c0,-0.94944 -0.77056,-1.72 -1.72,-1.72z" fill="#333333"></path><path d="M52.46,66.22h29.24v37.84h-29.24z" fill="#ffffff"></path><g><path d="M75.92768,81.95284c-0.07396,-0.27864 -0.27692,-0.49192 -0.50224,-0.62436c-0.02064,-0.01204 -0.043,-0.02236 -0.06536,-0.03268c0.00688,-0.01892 0.01376,-0.03784 0.01892,-0.05848c0.0774,-0.17372 0.11352,-0.35948 0.10664,-0.55728v-0.10664c-0.00172,-0.27004 -0.06536,-0.52116 -0.1892,-0.75336c-0.0688,-0.09632 -0.1376,-0.19264 -0.2064,-0.28896c0.0344,-0.0344 0.0688,-0.07224 0.09976,-0.1118c0.12384,-0.1376 0.20812,-0.29756 0.25456,-0.47988c0.07224,-0.17028 0.1032,-0.35088 0.09288,-0.5418v-0.10664c-0.00688,-0.26144 -0.07224,-0.50396 -0.19436,-0.72584c-0.07396,-0.09976 -0.14792,-0.20124 -0.22188,-0.301c-0.0516,-0.05332 -0.10664,-0.09804 -0.1634,-0.14104c0.0344,-0.02752 0.0688,-0.05504 0.1032,-0.08256c0.21156,-0.20296 0.31304,-0.51256 0.3354,-0.81356c0.01204,-0.16168 -0.01204,-0.31304 -0.07396,-0.4558c-0.03784,-0.15652 -0.11008,-0.2924 -0.21672,-0.40936c-0.0946,-0.11868 -0.20812,-0.20468 -0.33884,-0.258c-0.1204,-0.07568 -0.25284,-0.11352 -0.39388,-0.11524h-0.09632c-0.01032,0 -0.01892,0.00172 -0.02924,0c0.13588,-0.29412 0.20296,-0.62436 0.17372,-0.9288c-0.086,-0.86688 -0.72068,-1.35364 -1.43964,-1.42072c0.00516,-0.04644 0.01204,-0.09116 0.01376,-0.13932c0.04128,-0.90988 -0.64328,-1.83696 -1.4964,-1.83696c-0.22704,0 -0.4472,0.04816 -0.64844,0.1376c-0.1806,-0.6622 -0.76368,-1.0406 -1.3932,-1.0406c-0.19436,0 -0.37496,0.06364 -0.53492,0.16856c-0.00344,-0.00516 -0.00344,-0.01204 -0.00688,-0.0172c-0.05504,-0.08772 -0.11008,-0.17544 -0.16512,-0.26144c-0.18576,-0.24768 -0.47472,-0.36808 -0.75508,-0.40076c-0.1548,-0.01548 -0.29928,0.01032 -0.43688,0.08084c-0.14276,0.04128 -0.26832,0.1204 -0.37668,0.23736c-0.07568,0.07052 -0.1376,0.15308 -0.18404,0.24424c-0.04816,-0.09116 -0.10836,-0.17372 -0.18404,-0.24424c-0.10836,-0.11696 -0.23392,-0.19608 -0.37668,-0.23736c-0.1376,-0.07052 -0.2838,-0.09632 -0.43688,-0.08084c-0.28036,0.03268 -0.56932,0.15308 -0.75508,0.40076c-0.05504,0.08772 -0.11008,0.17544 -0.16512,0.26144c-0.00344,0.00516 -0.00516,0.01204 -0.00688,0.0172c-0.15996,-0.10492 -0.34056,-0.16856 -0.53492,-0.16856c-0.62952,0 -1.21088,0.3784 -1.3932,1.0406c-0.20124,-0.08772 -0.4214,-0.1376 -0.64844,-0.1376c-0.85312,0 -1.53768,0.92708 -1.4964,1.83696c0.00172,0.04816 0.0086,0.09288 0.01376,0.13932c-0.71896,0.06708 -1.35192,0.55384 -1.43964,1.42072c-0.03096,0.30272 0.03612,0.63468 0.17372,0.9288c-0.01032,0 -0.01892,-0.00172 -0.02924,0h-0.09632c-0.14104,0.00172 -0.27348,0.03956 -0.39388,0.11524c-0.13244,0.0516 -0.24424,0.1376 -0.33884,0.258c-0.10664,0.11696 -0.17716,0.25284 -0.21672,0.40936c-0.0602,0.14276 -0.086,0.29584 -0.07396,0.4558c0.02408,0.301 0.12384,0.6106 0.3354,0.81356c0.0344,0.02752 0.0688,0.05504 0.1032,0.08256c-0.05676,0.04128 -0.1118,0.08772 -0.1634,0.14104c-0.07396,0.09976 -0.14792,0.20124 -0.22188,0.301c-0.12384,0.2236 -0.16512,0.43344 -0.172,0.69488v0.10664c-0.01032,0.19092 -0.00172,0.40248 0.07052,0.57276c0.04644,0.18232 0.13244,0.34228 0.25456,0.47988c0.03096,0.04128 0.06536,0.0774 0.09976,0.1118c-0.0688,0.09632 -0.1376,0.19264 -0.2064,0.28896c-0.12384,0.2322 -0.18576,0.48332 -0.1892,0.75336v0.10664c-0.00688,0.1978 0.02752,0.38356 0.10664,0.55728c0.00516,0.02064 0.01376,0.03784 0.01892,0.05848c-0.02236,0.01032 -0.043,0.01892 -0.06536,0.03268c-0.22532,0.13244 -0.42828,0.34572 -0.50396,0.62436c-0.07052,0.2666 -0.07396,0.55728 0.04128,0.81184c0.03268,0.07224 0.06536,0.14276 0.09632,0.215c0.11352,0.25284 0.31992,0.46612 0.56244,0.55728c0.10148,0.043 0.20296,0.05848 0.30788,0.05332c0.01548,0.07912 0.04128,0.1548 0.08084,0.22532c0.043,0.12384 0.11352,0.22876 0.20812,0.31304c0.08772,0.08944 0.18748,0.15136 0.29928,0.18404c0.10836,0.05332 0.22188,0.07396 0.34056,0.0602c0.0258,-0.00344 0.05332,-0.00688 0.07912,-0.01204c-0.1032,0.1892 -0.1634,0.40076 -0.1634,0.63124v0.10664c-0.00516,0.17028 0.02752,0.32852 0.09804,0.47472c0.04644,0.1548 0.12384,0.28724 0.23564,0.39904c0.10148,0.11696 0.22016,0.1978 0.35604,0.24596c0.129,0.07224 0.2666,0.10492 0.4128,0.09976c0.09804,-0.01548 0.19436,-0.02924 0.2924,-0.04472c0.02924,-0.0086 0.05676,-0.02236 0.08428,-0.03268c0.00516,0.10664 0.02408,0.21156 0.05848,0.31304c0.03096,0.17888 0.10148,0.34056 0.20812,0.48332c0.10148,0.1548 0.22704,0.27176 0.38184,0.34916c0.14276,0.10836 0.301,0.17028 0.47816,0.18576c0.11008,-0.00172 0.21844,-0.00516 0.32852,-0.00688c0.0946,-0.01548 0.18232,-0.04472 0.26832,-0.08084c0.0344,0.08256 0.07912,0.15824 0.13416,0.22876c0.08944,0.13072 0.20124,0.22876 0.3354,0.29412c0.12556,0.09116 0.26488,0.14276 0.41796,0.15308c0.09976,-0.00344 0.19952,-0.0086 0.29928,-0.01204c0.13588,-0.02752 0.26316,-0.07912 0.3784,-0.15652c0.25112,0.45924 0.68972,0.7912 1.31408,0.7912c0.41968,0 0.7482,-0.15136 0.989,-0.38872c0.2408,0.23736 0.5676,0.38872 0.989,0.38872c0.62436,0 1.06296,-0.33196 1.31408,-0.7912c0.11524,0.07568 0.24252,0.129 0.3784,0.15652c0.09976,0.00344 0.19952,0.0086 0.29928,0.01204c0.15308,-0.01032 0.2924,-0.06192 0.41796,-0.15308c0.13416,-0.06536 0.24424,-0.1634 0.3354,-0.29412c0.05676,-0.07052 0.09976,-0.14792 0.13416,-0.22876c0.086,0.03612 0.17544,0.06536 0.26832,0.08084c0.11008,0.00172 0.21844,0.00516 0.32852,0.00688c0.17544,-0.01548 0.3354,-0.0774 0.47816,-0.18576c0.15308,-0.0774 0.28036,-0.19436 0.38184,-0.34916c0.10836,-0.14276 0.17716,-0.30444 0.20812,-0.48332c0.0344,-0.10148 0.05332,-0.2064 0.05848,-0.31304c0.02752,0.01204 0.05504,0.02408 0.08428,0.03268c0.09804,0.01548 0.19436,0.02924 0.2924,0.04472c0.14792,0.00688 0.28552,-0.02752 0.4128,-0.09976c0.13588,-0.04644 0.25456,-0.129 0.35604,-0.24596c0.1118,-0.1118 0.1892,-0.24424 0.23564,-0.39904c0.07052,-0.1462 0.1032,-0.30444 0.09804,-0.47472v-0.10664c0,-0.23048 -0.0602,-0.44204 -0.1634,-0.63124c0.0258,0.00516 0.05332,0.0086 0.07912,0.01204c0.1204,0.01204 0.23392,-0.0086 0.34056,-0.0602c0.11352,-0.03268 0.21328,-0.09288 0.29928,-0.18404c0.0946,-0.086 0.16512,-0.1892 0.20812,-0.31304c0.03956,-0.07052 0.06536,-0.1462 0.08084,-0.22532c0.10492,0.00688 0.2064,-0.01032 0.30788,-0.05332c0.24424,-0.09288 0.44892,-0.30444 0.56244,-0.55728c0.03268,-0.07224 0.06536,-0.14276 0.09632,-0.215c0.13072,-0.25456 0.12728,-0.54524 0.05676,-0.81184z" fill="#333333"></path><path d="M78.69,104.06c0,-4.3 -0.84624,-6.97288 -1.72,-7.525c-0.87376,-0.55212 -5.805,-2.15 -6.235,-2.365c-0.43,-0.215 -0.645,-1.29 -0.645,-3.87h-6.02c0,2.58 -0.215,3.655 -0.645,3.87c-0.43,0.215 -5.36124,1.81288 -6.235,2.365c-0.87376,0.55212 -1.72,3.225 -1.72,7.525z" fill="#ffc290"></path><path d="M76.97,96.535c-0.60716,-0.38356 -3.17168,-1.27108 -4.8246,-1.85072c-0.39388,0.34228 -2.07948,1.63572 -5.0654,1.63572c-2.98592,0 -4.67152,-1.29344 -5.0654,-1.63572c-1.65292,0.57792 -4.21744,1.46716 -4.8246,1.85072c-0.87376,0.55212 -1.72,3.225 -1.72,7.525h23.22c0,-4.3 -0.84624,-6.97288 -1.72,-7.525z" fill="#2ecc71"></path><path d="M67.08,96.32c-3.44,0 -5.16,-1.72 -5.16,-1.72l2.795,9.46h4.73l2.795,-9.46c0,0 -1.72,1.72 -5.16,1.72z" fill="#fdfcef"></path><path d="M79.12,104.49h-24.08v-0.43c0,-4.05576 0.75336,-7.15348 1.91952,-7.88792c0.57448,-0.3612 2.45444,-1.032 4.66808,-1.806c0.72928,-0.25456 1.48264,-0.51944 1.60648,-0.57964c0.09288,-0.06192 0.40592,-0.49536 0.40592,-3.48644v-0.43h6.88v0.43c0,2.99108 0.31304,3.42452 0.40764,3.48644c0.1204,0.0602 0.87548,0.32336 1.60476,0.57792c2.21364,0.774 4.0936,1.4448 4.66808,1.806c1.16616,0.73616 1.91952,3.83388 1.91952,7.88964zM55.90344,103.63h22.35312c-0.05676,-4.23292 -0.94772,-6.3726 -1.51704,-6.73208c-0.53664,-0.33884 -3.01172,-1.204 -4.49092,-1.72172c-1.00964,-0.3526 -1.54284,-0.54008 -1.70452,-0.62264c-0.53492,-0.2666 -0.85312,-0.99416 -0.88236,-3.82528h-5.16344c-0.02924,2.83112 -0.34744,3.55868 -0.88236,3.82528c-0.16168,0.08084 -0.69488,0.27004 -1.70452,0.62264c-1.4792,0.51772 -3.956,1.38288 -4.49092,1.72172c-0.56932,0.35948 -1.46028,2.49916 -1.51704,6.73208z" fill="#333333"></path><path d="M75.97756,83.35464c0.09976,-0.34228 0.18404,-0.67768 0.30272,-1.01136c0.1548,-0.43688 0.04472,-0.71552 -0.4386,-0.98556c-0.02236,-0.01204 -0.04128,-0.02752 -0.05848,-0.04128c-0.0774,-0.01204 -0.15136,-0.02236 -0.215,-0.02924c-0.43516,-0.0516 -1.20744,-0.07396 -1.43276,-0.52632c-0.25456,-0.51428 -0.129,-1.05952 -0.06192,-1.60132c0.07224,-0.59684 -0.15136,-1.17132 -0.15308,-1.76644c-0.03956,-0.05848 -0.0688,-0.12728 -0.0774,-0.20984c-0.08944,-0.87892 -0.34572,-1.71828 -0.688,-2.53012c-1.20228,-1.59444 -3.4486,-2.67116 -6.02,-2.67116c-3.83388,0 -6.95224,2.3908 -6.95224,5.33028c0,0.13932 0.0086,0.27692 0.02236,0.4128c-0.03784,0.53148 -0.08772,1.00448 -0.06364,1.58584c0.02236,0.51428 -0.05332,0.89612 -0.00344,1.57552c0.02752,0.38356 -0.1462,0.13588 -0.75852,0.16684c-0.07912,0 -0.15308,0 -0.22876,0.00516c-0.6708,0.04472 -1.2126,0.47644 -1.32956,1.01136c0.08256,0.04988 0.14792,0.13072 0.17716,0.25112c0.24424,0.99244 0.20984,2.13968 0.7052,3.06332c0.27692,0.51428 0.70692,0.58652 1.15068,0.91848c0.24596,0.18404 0.2924,0.39216 0.35948,0.66736c0.24768,1.01996 0.93912,1.88512 1.6942,2.62472c0.38356,0.37496 0.79464,0.71208 1.20916,1.05264c0.344,0.28208 0.7052,0.60888 1.13176,0.77744c0.14276,0.05676 0.23048,0.15652 0.27348,0.27004c0.28208,0.15136 0.68284,0.36464 0.68284,0.3612c1.36568,0.54868 2.6746,0.59512 4.05748,-0.0258c0,0.00516 0,0.01032 0,0.01548c0.00688,-0.00516 0.67252,-0.3268 0.94428,-0.47644c0.02064,-0.02924 0.04644,-0.05848 0.07912,-0.086c0.41796,-0.35432 0.88236,-0.65016 1.31408,-0.989c0.35432,-0.27864 0.645,-0.58652 0.91848,-0.92192c-0.06364,-0.14448 0.0774,-0.02064 0.20812,-0.172c0.61232,-0.71208 1.18852,-1.83352 1.28828,-2.74684c0.00516,-0.04644 0.03956,-0.08084 0.06364,-0.11524c-0.07912,-0.25284 0.11696,-0.39216 0.47988,-0.40076c0.3268,-0.0086 0.52116,-0.3784 0.77228,-0.55728c0.18576,-0.71896 0.44032,-1.51704 0.64672,-2.22568z" fill="#ffd3a5"></path><path d="M74.31948,82.75608c0.0086,-0.11696 0.01032,-0.2322 -0.00344,-0.34744l0.86688,0.16856l-0.31476,1.5738l-0.34916,-0.06364l0.24768,-1.24356z" fill="#666666" opacity="0.8"></path><path d="M75.4908,81.07048c-0.29756,-0.07568 -0.61404,-0.08256 -0.94944,-0.12384c0,-0.03612 -0.086,0.03784 -0.086,0.00172c-0.21156,-0.02064 -0.32336,-0.27004 -0.3268,-0.53148c-0.00688,-0.52632 -0.07224,-1.10424 -0.02408,-1.65636c0.01376,-0.4988 -0.07568,-0.817 -0.172,-1.1696c0.01548,-0.14448 0.02408,-0.29068 0.02408,-0.4386c0,-3.02032 -3.11836,-5.4782 -6.95224,-5.4782c-3.83388,0 -6.95224,2.45788 -6.95224,5.4782c0,0.14276 0.0086,0.2838 0.02236,0.42484c-0.03784,0.54524 -0.08772,1.032 -0.06364,1.63056c0.02236,0.52804 -0.05332,0.92192 -0.00344,1.62024c0.02752,0.39388 -0.1462,0.13932 -0.75852,0.17028c-0.07912,0 -0.15308,0.00172 -0.22876,0.00516c-0.83076,0.05676 -1.46716,0.72584 -1.33472,1.44824c0.15308,0.83764 0.3354,1.67012 0.54352,2.49744c0.20468,0.81872 0.60888,1.4878 1.58928,1.58412c0.12556,1.06468 0.3526,1.60476 1.02168,2.44412c0.9116,1.14036 1.99176,2.11044 3.29724,2.81908c0.13588,0.07396 0.9374,0.51772 0.9374,0.51084c1.36568,0.56416 2.6746,0.61232 4.05748,-0.02752c0,0.00516 0,0.01032 0,0.01548c0.0086,-0.00516 0.87032,-0.43344 1.032,-0.54352c0.65532,-0.44032 1.32268,-0.88064 1.89888,-1.40696c1.14208,-1.04404 2.22052,-2.14828 2.33404,-3.81668c0.96836,-0.08772 1.37084,-0.7482 1.57724,-1.54628c0.20296,-0.7826 0.34916,-1.57896 0.51256,-2.37016c0.15996,-0.76024 -0.20812,-1.3416 -0.99588,-1.54112zM59.81816,85.957c-0.48504,0.01204 -0.80668,-0.17888 -0.97696,-0.7224c-0.23392,-0.74476 -0.58136,-2.29792 -0.5848,-2.30996c-0.36636,-1.13176 0.3268,-1.634 1.56176,-1.39664v0.65704c-0.00516,0 -0.01204,0.54524 0,0.54868zM73.86196,86.73444c-0.00344,0.29412 -0.0516,0.62436 -0.19952,0.87376c-1.35536,2.29448 -3.26284,3.96288 -5.99592,4.62508c-0.94772,0.23048 -1.83696,-0.09976 -2.66084,-0.49536c-1.72688,-0.82732 -3.10976,-2.04336 -4.16584,-3.59136c-0.34572,-0.5074 -0.53148,-1.05092 -0.50396,-1.67528c0.0344,-0.82388 0.0086,-1.64948 0.0086,-2.47336c0,-0.10148 0.0086,-0.20296 -0.00172,-0.30444c-0.20296,-2.26352 0.26832,-6.4586 0.26832,-6.54116c0,-2.7262 2.86724,-4.945 6.39324,-4.945c3.52428,0 6.50848,2.2188 6.50848,4.945c0,0.05504 0.02236,0.12212 0.02064,0.17716c0.24252,0.23048 0.06364,2.43552 0.31476,3.54664c0.02752,0.12556 0.02408,0.25972 0.02408,0.38872c0,1.8232 0.0086,3.6464 -0.01032,5.4696zM76.03432,82.4224c-0.17888,0.94944 -0.39904,1.89372 -0.66564,2.82424c-0.14964,0.52632 -0.43344,0.68456 -0.9718,0.73444v-3.24048c0,0 0.00172,0 0.00344,-0.00172c0,-0.01032 -0.00172,-0.01892 -0.00172,-0.03096v-0.68456c-0.00344,-0.00172 -0.00688,-0.00344 -0.01204,-0.00516v-0.54696c0.28896,0 0.559,-0.0172 0.82388,0.00344c0.53836,0.04472 0.9202,0.43688 0.82388,0.94772z" fill="#333333"></path><path d="M59.94372,83.03816c-0.0086,-0.12212 -0.01032,-0.24424 0.00344,-0.36464l-0.9116,0.17544l0.33024,1.65464l0.36808,-0.06708l-0.26144,-1.3072z" fill="#666666" opacity="0.8"></path><path d="M67.06452,85.94324c0.46096,0 0.90644,-0.20124 1.1954,-0.53836c0.02924,-0.0344 0.0258,-0.08428 -0.0086,-0.11352v0c-0.0344,-0.02924 -0.08428,-0.0258 -0.11352,0.0086c-0.23392,0.26832 -0.62436,0.4214 -1.07156,0.4214c-0.4472,0 -0.83764,-0.15308 -1.07156,-0.4214c-0.01548,-0.01892 -0.03784,-0.02752 -0.06192,-0.02752c-0.01892,0 -0.03784,0.00688 -0.05332,0.01892c-0.0344,0.02924 -0.03784,0.08084 -0.0086,0.11352c0.28724,0.33712 0.73444,0.53836 1.19368,0.53836z" fill="#333333" opacity="0.49"></path><path d="M65.59564,79.71856l0.2924,-0.56072c-1.23668,-0.28896 -2.65912,-0.24424 -3.83388,0.1204l0.36808,0.54696c0.96664,-0.3182 2.15344,-0.35948 3.1734,-0.10664zM71.7842,79.71856l0.2924,-0.56072c-1.23668,-0.28896 -2.65912,-0.24424 -3.83388,0.1204l0.36808,0.54696c0.96492,-0.3182 2.15344,-0.35948 3.1734,-0.10664zM63.81716,80.51148c-0.29756,0 -0.55728,0.19608 -0.70864,0.49364c0.03784,-0.01204 0.07568,-0.02064 0.11696,-0.02064c0.24424,0 0.44032,0.22016 0.44032,0.49192c0,0.27176 -0.1978,0.49192 -0.44032,0.49192c-0.07912,0 -0.15308,-0.0258 -0.21844,-0.06708c0.10492,0.44548 0.42656,0.77056 0.8084,0.77056c0.46612,0 0.84452,-0.48332 0.84452,-1.08016c0,-0.59684 -0.37668,-1.08016 -0.8428,-1.08016zM70.27748,80.51148c-0.25284,0 -0.47988,0.14276 -0.63468,0.3698c0.04816,-0.02064 0.09976,-0.03268 0.1548,-0.03268c0.24424,0 0.44032,0.22016 0.44032,0.49192c0,0.27176 -0.1978,0.49192 -0.44032,0.49192c-0.15136,0 -0.2838,-0.08428 -0.36292,-0.215c0.01032,0.5848 0.38356,1.05436 0.8428,1.05436c0.46612,0 0.84452,-0.48332 0.84452,-1.08016c0,-0.59684 -0.37668,-1.08016 -0.84452,-1.08016z" fill="#333333"></path><path d="M70.63696,87.1954c0.0344,-0.02752 0.03956,-0.07912 0.01204,-0.11352v0c-0.02752,-0.0344 -0.07912,-0.03956 -0.11352,-0.01204c-0.76196,0.60716 -2.02616,0.9546 -3.46924,0.9546c-1.44308,0 -2.70728,-0.34744 -3.46924,-0.9546c-0.01548,-0.01204 -0.03268,-0.0172 -0.04988,-0.0172c-0.02408,0 -0.04644,0.01032 -0.06364,0.03096c-0.02752,0.0344 -0.02236,0.086 0.01204,0.11352c0.86,0.70176 2.19472,1.12144 3.57072,1.12144c1.376,0 2.71072,-0.41968 3.57072,-1.12316z" fill="#333333" opacity="0.49"></path><path d="M60.3892,78.77772c0.31648,-1.46544 0.8342,-2.88272 1.54112,-4.18992c-0.22188,-0.3354 -0.63468,-0.42312 -1.01824,-0.3268c-1.1352,1.81288 -1.3932,4.10392 -1.42072,5.7018c0.05504,0.93396 0.20124,1.85072 0.47644,2.67804c0.22188,-1.2728 0.14448,-2.58172 0.4214,-3.86312zM73.66072,78.77772c-0.31648,-1.46544 -0.8342,-2.88272 -1.54112,-4.18992c0.22188,-0.3354 0.63468,-0.42312 1.01824,-0.3268c1.1352,1.81288 1.3932,4.10392 1.42072,5.7018c-0.05504,0.93396 -0.20124,1.85072 -0.47644,2.67804c-0.2236,-1.2728 -0.14448,-2.58172 -0.4214,-3.86312z" fill="#333333"></path><path d="M74.73744,79.1888c0.3182,-3.30412 -0.6364,-5.18924 -1.33816,-6.11976c-1.70452,-1.41212 -3.97148,-2.27384 -6.46032,-2.27384c-2.07604,0 -3.99556,0.60028 -5.5642,1.6168c-1.31924,1.34504 -2.86896,3.79948 -2.08808,6.77508c0.05504,0.93396 0.39388,3.53116 0.66908,4.35848c0.22188,-1.2728 0.14448,-4.26044 0.4214,-5.54184c0.20296,-0.94084 0.4902,-1.86104 0.85484,-2.74512c1.85416,-2.04336 9.55804,-1.95048 11.56012,0c0.36636,0.88408 0.65188,1.80428 0.85484,2.74512c0.27692,1.28312 0.19952,4.27076 0.4214,5.54184c0.2752,-0.8256 0.61404,-3.4228 0.66908,-4.35676z" fill="#333333"></path><g fill="#e74c3c"><path d="M66.21656,80.92428c-1.3244,-1.61336 -6.31756,-0.46956 -6.32272,-0.46956c0.09116,0.36464 0.172,0.72412 0.24252,1.08016c0.37152,0.03784 0.39216,0.87032 0.43,1.17648c0.17888,1.47232 1.16444,2.55592 3.23704,2.50604c2.07776,-0.10836 2.5628,-1.61164 2.6488,-2.55936c0.0946,-1.03372 -0.23736,-1.73032 -0.23564,-1.73376zM65.9792,82.732c-0.10664,1.31924 -0.91676,2.09152 -2.22568,2.15344c-0.13244,0.00688 -0.26144,0.0086 -0.38528,0.00344c-2.064,-0.00344 -2.4166,-1.80944 -2.45788,-2.95152c-0.0258,-0.6536 0.44032,-1.2126 1.09908,-1.27796c0.3784,-0.03784 0.80496,-0.03784 1.29688,-0.03784c1.54112,0 2.21364,0.36808 2.3908,0.6622c0.10836,0.17716 0.34228,0.73272 0.28208,1.44824zM67.67856,82.65804c0.086,0.946 0.57104,2.451 2.6488,2.55936c2.0726,0.0516 3.05816,-1.03372 3.23704,-2.50604c0.03612,-0.30444 0.05848,-1.13692 0.43,-1.17648c0.07224,-0.35604 0.15136,-0.71552 0.24252,-1.08016c-0.00516,0.00172 -4.99832,-1.1438 -6.32272,0.46956c0.00172,0.00344 -0.33024,0.70004 -0.23564,1.73376zM68.4302,81.28548c0.17888,-0.29584 0.84968,-0.6622 2.3908,-0.6622c0.49192,0 0.91848,0 1.29688,0.03784c0.65876,0.06536 1.12488,0.62436 1.09908,1.27796c-0.04128,1.14208 -0.39388,2.94808 -2.45788,2.95152c-0.12212,0.00516 -0.25284,0.00344 -0.38528,-0.00344c-1.30892,-0.06364 -2.11904,-0.83592 -2.22568,-2.15344c-0.05676,-0.71724 0.17716,-1.2728 0.28208,-1.44824z"></path><path d="M67.96064,82.19192c0,0 -0.33884,-0.2666 -0.93052,-0.2666c-0.55556,0 -0.86,0.2666 -0.86,0.2666c-0.09116,-0.2494 -0.1806,-0.50052 -0.27176,-0.74992c0.77916,0 1.5566,0 2.33576,0c-0.09288,0.25112 -0.18232,0.50052 -0.27348,0.74992z"></path></g></g><path d="M81.7,104.92h-29.24c-0.47472,0 -0.86,-0.38528 -0.86,-0.86v-37.84c0,-0.47472 0.38528,-0.86 0.86,-0.86h29.24c0.47472,0 0.86,0.38528 0.86,0.86v37.84c0,0.47472 -0.38528,0.86 -0.86,0.86zM53.32,103.2h27.52v-36.12h-27.52z" fill="#333333"></path><g fill="#333333"><path d="M111.37,91.16h-21.5c-0.23736,0 -0.43,-0.19264 -0.43,-0.43c0,-0.23736 0.19264,-0.43 0.43,-0.43h21.5c0.23736,0 0.43,0.19264 0.43,0.43c0,0.23736 -0.19264,0.43 -0.43,0.43zM119.97,84.28h-30.1c-0.23736,0 -0.43,-0.19264 -0.43,-0.43c0,-0.23736 0.19264,-0.43 0.43,-0.43h30.1c0.23736,0 0.43,0.19264 0.43,0.43c0,0.23736 -0.19264,0.43 -0.43,0.43zM119.97,77.4h-30.1c-0.23736,0 -0.43,-0.19264 -0.43,-0.43c0,-0.23736 0.19264,-0.43 0.43,-0.43h30.1c0.23736,0 0.43,0.19264 0.43,0.43c0,0.23736 -0.19264,0.43 -0.43,0.43z"></path></g></g></g></g></svg>