<svg version="1.1" xmlns="http://www.w3.org/2000/svg" xmlns:xlink="http://www.w3.org/1999/xlink" viewBox="0 0 172 172"><g transform=""><g fill="none" fill-rule="nonzero" stroke="none" stroke-width="1" stroke-linecap="butt" stroke-linejoin="miter" stroke-miterlimit="10" stroke-dasharray="" stroke-dashoffset="0" font-family="none" font-weight="none" font-size="none" text-anchor="none" style="mix-blend-mode: normal"><path d="M0,172v-172h172v172z" fill="none"></path><g id="original-icon" fill="#556d89"><path d="M86,0c-27.9388,0 -50.16667,22.22787 -50.16667,50.16667c0,43 50.16667,121.83333 50.16667,121.83333c0,0 50.16667,-79.56119 50.16667,-121.83333c0,-27.9388 -22.22786,-50.16667 -50.16667,-50.16667zM86,64.5c-7.89453,0 -14.33333,-6.4388 -14.33333,-14.33333c0,-7.89453 6.43881,-14.33333 14.33333,-14.33333c7.89453,0 14.33333,6.43881 14.33333,14.33333c0,7.89453 -6.4388,14.33333 -14.33333,14.33333z"></path></g><path d="" fill="none"></path><path d="" fill="none"></path><path d="M86,172c-47.49649,0 -86,-38.50351 -86,-86v0c0,-47.49649 38.50351,-86 86,-86v0c47.49649,0 86,38.50351 86,86v0c0,47.49649 -38.50351,86 -86,86z" fill="none"></path><path d="M86,168.56c-45.59663,0 -82.56,-36.96337 -82.56,-82.56v0c0,-45.59663 36.96337,-82.56 82.56,-82.56v0c45.59663,0 82.56,36.96337 82.56,82.56v0c0,45.59663 -36.96337,82.56 -82.56,82.56z" fill="none"></path><path d="M0,172v-172h172v172z" fill="none"></path><path d="M3.44,168.56v-165.12h165.12v165.12z" fill="none"></path><path d="" fill="none"></path></g></g></svg>