<svg version="1.1" xmlns="http://www.w3.org/2000/svg" xmlns:xlink="http://www.w3.org/1999/xlink" viewBox="0 0 172 172"><g fill="none" fill-rule="nonzero" stroke="none" stroke-width="1" stroke-linecap="butt" stroke-linejoin="miter" stroke-miterlimit="10" stroke-dasharray="" stroke-dashoffset="0" font-family="none" font-weight="none" font-size="none" text-anchor="none" style="mix-blend-mode: normal"><path d="M0,172v-172h172v172z" fill="none"></path><g><path d="M132.44,20.64c-0.94993,0 -1.72,0.77007 -1.72,1.72c0,0.94993 0.77007,1.72 1.72,1.72c0.94993,0 1.72,-0.77007 1.72,-1.72c0,-0.94993 -0.77007,-1.72 -1.72,-1.72z" fill="#f1bc19"></path><path d="M86,22.36c-35.1474,0 -63.64,28.4926 -63.64,63.64c0,35.1474 28.4926,63.64 63.64,63.64c35.1474,0 63.64,-28.4926 63.64,-63.64c0,-35.1474 -28.4926,-63.64 -63.64,-63.64z" fill="#ffffff"></path><path d="M142.76,18.92c-3.79972,0 -6.88,3.08028 -6.88,6.88c0,3.79972 3.08028,6.88 6.88,6.88c3.79972,0 6.88,-3.08028 6.88,-6.88c0,-3.79972 -3.08028,-6.88 -6.88,-6.88z" fill="#f1bc19"></path><path d="M149.64,37.84c-1.89986,0 -3.44,1.54014 -3.44,3.44c0,1.89986 1.54014,3.44 3.44,3.44c1.89986,0 3.44,-1.54014 3.44,-3.44c0,-1.89986 -1.54014,-3.44 -3.44,-3.44z" fill="#556d89"></path><path d="M139.32,127.28c-1.89986,0 -3.44,1.54014 -3.44,3.44c0,1.89986 1.54014,3.44 3.44,3.44c1.89986,0 3.44,-1.54014 3.44,-3.44c0,-1.89986 -1.54014,-3.44 -3.44,-3.44zM25.8,101.48c-3.79972,0 -6.88,3.08028 -6.88,6.88c0,3.79972 3.08028,6.88 6.88,6.88c3.79972,0 6.88,-3.08028 6.88,-6.88c0,-3.79972 -3.08028,-6.88 -6.88,-6.88z" fill="#fbcd59"></path><path d="M43,146.2c-1.89986,0 -3.44,1.54014 -3.44,3.44c0,1.89986 1.54014,3.44 3.44,3.44c1.89986,0 3.44,-1.54014 3.44,-3.44c0,-1.89986 -1.54014,-3.44 -3.44,-3.44z" fill="#556d89"></path><path d="M136.74,55.04c-1.42489,0 -2.58,1.15511 -2.58,2.58c0,1.42489 1.15511,2.58 2.58,2.58c1.42489,0 2.58,-1.15511 2.58,-2.58c0,-1.42489 -1.15511,-2.58 -2.58,-2.58z" fill="#ffffff"></path><path d="M55.298,124.356c-2.32544,0 -4.214,-1.89028 -4.214,-4.214v-63.124c0,-2.32544 1.89028,-4.214 4.214,-4.214h66.564c2.32544,0 4.214,1.89028 4.214,4.214v63.124c0,2.32544 -1.89028,4.214 -4.214,4.214z" fill="#fdfcee"></path><path d="M121.862,54.008c1.6598,0 3.01,1.3502 3.01,3.01v63.124c0,1.6598 -1.3502,3.01 -3.01,3.01h-66.564c-1.6598,0 -3.01,-1.3502 -3.01,-3.01v-63.124c0,-1.6598 1.3502,-3.01 3.01,-3.01h66.564M121.862,51.6h-66.564c-2.9928,0 -5.418,2.4252 -5.418,5.418v63.124c0,2.9928 2.4252,5.418 5.418,5.418h66.564c2.9928,0 5.418,-2.4252 5.418,-5.418v-63.124c0,-2.9928 -2.4252,-5.418 -5.418,-5.418z" fill="#282828"></path><path d="M52.31724,70.52h72.52724v-13.545c0,-1.7028 -1.37944,-3.08224 -3.08224,-3.08224h-66.65c-1.54284,0 -2.795,1.25216 -2.795,2.795z" fill="#007e58"></path><path d="M112.23,79.55h7.74v7.74h-7.74z" fill="#dcdcdc"></path><path d="M119.54,79.98v6.88h-6.88v-6.88h6.88M120.4,79.12h-8.6v8.6h8.6v-8.6z" fill="#282828"></path><path d="M98.47,79.55h7.74v7.74h-7.74z" fill="#dcdcdc"></path><path d="M105.78,79.98v6.88h-6.88v-6.88h6.88M106.64,79.12h-8.6v8.6h8.6v-8.6z" fill="#282828"></path><path d="M84.71,79.55h7.74v7.74h-7.74z" fill="#dcdcdc"></path><path d="M92.02,79.98v6.88h-6.88v-6.88h6.88M92.88,79.12h-8.6v8.6h8.6v-8.6z" fill="#282828"></path><path d="M70.95,79.55h7.74v7.74h-7.74z" fill="#dcdcdc"></path><path d="M78.26,79.98v6.88h-6.88v-6.88h6.88M79.12,79.12h-8.6v8.6h8.6v-8.6z" fill="#282828"></path><path d="M57.19,79.55h7.74v7.74h-7.74z" fill="#dcdcdc"></path><path d="M64.5,79.98v6.88h-6.88v-6.88h6.88M65.36,79.12h-8.6v8.6h8.6v-8.6z" fill="#282828"></path><g><path d="M112.23,93.31h7.74v7.74h-7.74z" fill="#dcdcdc"></path><path d="M119.54,93.74v6.88h-6.88v-6.88h6.88M120.4,92.88h-8.6v8.6h8.6v-8.6z" fill="#282828"></path></g><g><path d="M98.47,93.31h7.74v7.74h-7.74z" fill="#dcdcdc"></path><path d="M105.78,93.74v6.88h-6.88v-6.88h6.88M106.64,92.88h-8.6v8.6h8.6v-8.6z" fill="#282828"></path></g><g><path d="M84.71,93.31h7.74v7.74h-7.74z" fill="#dcdcdc"></path><path d="M92.02,93.74v6.88h-6.88v-6.88h6.88M92.88,92.88h-8.6v8.6h8.6v-8.6z" fill="#282828"></path></g><g><path d="M70.95,93.31h7.74v7.74h-7.74z" fill="#dcdcdc"></path><path d="M78.26,93.74v6.88h-6.88v-6.88h6.88M79.12,92.88h-8.6v8.6h8.6v-8.6z" fill="#282828"></path></g><g><path d="M57.19,93.31h7.74v7.74h-7.74z" fill="#dcdcdc"></path><path d="M64.5,93.74v6.88h-6.88v-6.88h6.88M65.36,92.88h-8.6v8.6h8.6v-8.6z" fill="#282828"></path></g><g><path d="M84.71,107.07h7.74v7.74h-7.74z" fill="#dcdcdc"></path><path d="M92.02,107.5v6.88h-6.88v-6.88h6.88M92.88,106.64h-8.6v8.6h8.6v-8.6z" fill="#282828"></path></g><g><path d="M70.95,107.07h7.74v7.74h-7.74z" fill="#dcdcdc"></path><path d="M78.26,107.5v6.88h-6.88v-6.88h6.88M79.12,106.64h-8.6v8.6h8.6v-8.6z" fill="#282828"></path></g><g><path d="M57.19,107.07h7.74v7.74h-7.74z" fill="#dcdcdc"></path><path d="M64.5,107.5v6.88h-6.88v-6.88h6.88M65.36,106.64h-8.6v8.6h8.6v-8.6z" fill="#282828"></path></g><g fill="#282828"><path d="M114.38,58.824c-0.66564,0 -1.204,-0.53836 -1.204,-1.204v-8.6c0,-0.66564 0.53836,-1.204 1.204,-1.204c0.66564,0 1.204,0.53836 1.204,1.204v8.6c0,0.66564 -0.53836,1.204 -1.204,1.204zM105.78,58.824c-0.66564,0 -1.204,-0.53836 -1.204,-1.204v-8.6c0,-0.66564 0.53836,-1.204 1.204,-1.204c0.66564,0 1.204,0.53836 1.204,1.204v8.6c0,0.66564 -0.53836,1.204 -1.204,1.204zM97.18,58.824c-0.66564,0 -1.204,-0.53836 -1.204,-1.204v-8.6c0,-0.66564 0.53836,-1.204 1.204,-1.204c0.66564,0 1.204,0.53836 1.204,1.204v8.6c0,0.66564 -0.53836,1.204 -1.204,1.204zM88.58,58.824c-0.66564,0 -1.204,-0.53836 -1.204,-1.204v-8.6c0,-0.66564 0.53836,-1.204 1.204,-1.204c0.66564,0 1.204,0.53836 1.204,1.204v8.6c0,0.66564 -0.53836,1.204 -1.204,1.204zM79.98,58.824c-0.66564,0 -1.204,-0.53836 -1.204,-1.204v-8.6c0,-0.66564 0.53836,-1.204 1.204,-1.204c0.66564,0 1.204,0.53836 1.204,1.204v8.6c0,0.66564 -0.53836,1.204 -1.204,1.204zM71.38,58.824c-0.66564,0 -1.204,-0.53836 -1.204,-1.204v-8.6c0,-0.66564 0.53836,-1.204 1.204,-1.204c0.66564,0 1.204,0.53836 1.204,1.204v8.6c0,0.66564 -0.53836,1.204 -1.204,1.204zM62.78,58.824c-0.66564,0 -1.204,-0.53836 -1.204,-1.204v-8.6c0,-0.66564 0.53836,-1.204 1.204,-1.204c0.66564,0 1.204,0.53836 1.204,1.204v8.6c0,0.66564 -0.53836,1.204 -1.204,1.204z"></path></g><g fill="#282828"><path d="M97.18,70.52h-44.72c-0.47472,0 -0.86,-0.38528 -0.86,-0.86c0,-0.47472 0.38528,-0.86 0.86,-0.86h44.72c0.47472,0 0.86,0.38528 0.86,0.86c0,0.47472 -0.38528,0.86 -0.86,0.86z"></path></g><g fill="#282828"><path d="M110.94,70.52h-6.88c-0.47472,0 -0.86,-0.38528 -0.86,-0.86c0,-0.47472 0.38528,-0.86 0.86,-0.86h6.88c0.47472,0 0.86,0.38528 0.86,0.86c0,0.47472 -0.38528,0.86 -0.86,0.86z"></path></g><g fill="#282828"><path d="M124.7,70.52h-8.6c-0.47472,0 -0.86,-0.38528 -0.86,-0.86c0,-0.47472 0.38528,-0.86 0.86,-0.86h8.6c0.47472,0 0.86,0.38528 0.86,0.86c0,0.47472 -0.38528,0.86 -0.86,0.86z"></path></g><g fill="#007e58"><path d="M107.672,91.848v10.664h-10.664v-10.664h10.664M110.08,89.44h-15.48v15.48h15.48v-15.48z"></path></g></g></g></svg>