<svg version="1.1" xmlns="http://www.w3.org/2000/svg" xmlns:xlink="http://www.w3.org/1999/xlink" viewBox="0 0 172 172"><g fill="none" fill-rule="nonzero" stroke="none" stroke-width="1" stroke-linecap="butt" stroke-linejoin="miter" stroke-miterlimit="10" stroke-dasharray="" stroke-dashoffset="0" font-family="none" font-weight="none" font-size="none" text-anchor="none" style="mix-blend-mode: normal"><path d="M0,172v-172h172v172z" fill="none"></path><g><path d="M134.16,22.36c-0.94993,0 -1.72,0.77007 -1.72,1.72c0,0.94993 0.77007,1.72 1.72,1.72c0.94993,0 1.72,-0.77007 1.72,-1.72c0,-0.94993 -0.77007,-1.72 -1.72,-1.72z" fill="#007e58"></path><path d="M86,20.64c-36.09733,0 -65.36,29.26267 -65.36,65.36c0,36.09733 29.26267,65.36 65.36,65.36c36.09733,0 65.36,-29.26267 65.36,-65.36c0,-36.09733 -29.26267,-65.36 -65.36,-65.36z" fill="#ffffff"></path><path d="M144.48,20.64c-3.79972,0 -6.88,3.08028 -6.88,6.88c0,3.79972 3.08028,6.88 6.88,6.88c3.79972,0 6.88,-3.08028 6.88,-6.88c0,-3.79972 -3.08028,-6.88 -6.88,-6.88z" fill="#007e58"></path><path d="M24.08,41.28c-1.89986,0 -3.44,1.54014 -3.44,3.44c0,1.89986 1.54014,3.44 3.44,3.44c1.89986,0 3.44,-1.54014 3.44,-3.44c0,-1.89986 -1.54014,-3.44 -3.44,-3.44z" fill="#00396f"></path><path d="M134.16,129c-1.89986,0 -3.44,1.54014 -3.44,3.44c0,1.89986 1.54014,3.44 3.44,3.44c1.89986,0 3.44,-1.54014 3.44,-3.44c0,-1.89986 -1.54014,-3.44 -3.44,-3.44zM29.24,127.28c-3.79972,0 -6.88,3.08028 -6.88,6.88c0,3.79972 3.08028,6.88 6.88,6.88c3.79972,0 6.88,-3.08028 6.88,-6.88c0,-3.79972 -3.08028,-6.88 -6.88,-6.88z" fill="#c13526"></path><path d="M41.28,139.32c-1.89986,0 -3.44,1.54014 -3.44,3.44c0,1.89986 1.54014,3.44 3.44,3.44c1.89986,0 3.44,-1.54014 3.44,-3.44c0,-1.89986 -1.54014,-3.44 -3.44,-3.44z" fill="#00396f"></path><path d="M114.35076,130.77848c-2.35868,0 -4.27076,1.91208 -4.27076,4.27076c0,2.35868 1.91208,4.27076 4.27076,4.27076c2.35868,0 4.27076,-1.91208 4.27076,-4.27076c0,-2.35868 -1.91208,-4.27076 -4.27076,-4.27076zM27.52,80.84c-0.94993,0 -1.72,0.77007 -1.72,1.72c0,0.94993 0.77007,1.72 1.72,1.72c0.94993,0 1.72,-0.77007 1.72,-1.72c0,-0.94993 -0.77007,-1.72 -1.72,-1.72z" fill="#ffffff"></path><path d="M147.92,51.6c-0.94993,0 -1.72,0.77007 -1.72,1.72c0,0.94993 0.77007,1.72 1.72,1.72c0.94993,0 1.72,-0.77007 1.72,-1.72c0,-0.94993 -0.77007,-1.72 -1.72,-1.72z" fill="#007e58"></path><path d="M137.6,110.08c-1.89986,0 -3.44,1.54014 -3.44,3.44c0,1.89986 1.54014,3.44 3.44,3.44c1.89986,0 3.44,-1.54014 3.44,-3.44c0,-1.89986 -1.54014,-3.44 -3.44,-3.44z" fill="#ffffff"></path><path d="M45.021,75.035v39.345h2.408v-39.345" fill="#472b29"></path><path d="M34.79388,73.17396l52.99664,-24.20212l52.99836,24.19524l-52.99836,24.20384z" fill="#00396f"></path><path d="M87.79052,50.2928l50.10016,22.876l-50.10016,22.87944l-50.10016,-22.87428l50.10016,-22.88116M87.79052,47.64572l-55.89656,25.52824l55.89656,25.52136l55.89656,-25.52824z" fill="#472b29"></path><path d="M57.964,100.74212v-24.209l0.1118,-0.2752c1.31752,-3.23188 13.02556,-6.72004 29.64248,-6.72004c16.61692,0 28.32668,3.48816 29.64248,6.72004l0.1118,0.2752v24.209z" fill="#556d89"></path><path d="M87.72,70.74188c17.37544,0 27.65416,3.82872 28.52792,5.97012l0.02408,0.05848v22.76764h-57.104v-22.76764l0.02408,-0.05848c0.87376,-2.14312 11.15248,-5.97012 28.52792,-5.97012M87.72,68.33388c-15.9358,0 -29.04564,3.268 -30.75876,7.46996h-0.20124v26.144h61.92v-26.144h-0.20124c-1.71312,-4.20196 -14.82296,-7.46996 -30.75876,-7.46996z" fill="#472b29"></path><path d="M87.72,95.58384c-16.43379,0 -29.756,3.36059 -29.756,7.50608c0,4.14549 13.32221,7.50608 29.756,7.50608c16.43379,0 29.756,-3.36059 29.756,-7.50608c0,-4.14549 -13.32221,-7.50608 -29.756,-7.50608z" fill="#00396f"></path><path d="M87.72,96.78612c18.54676,0 28.552,4.47372 28.552,6.30208c0,1.82836 -10.00524,6.3038 -28.552,6.3038c-18.54676,0 -28.552,-4.47372 -28.552,-6.30208c0,-1.82836 10.00524,-6.3038 28.552,-6.3038M87.72,94.37812c-17.09852,0 -30.96,3.90096 -30.96,8.71008c0,4.80912 13.86148,8.7118 30.96,8.7118c17.09852,0 30.96,-3.90096 30.96,-8.71008c0,-4.80912 -13.86148,-8.7118 -30.96,-8.7118z" fill="#472b29"></path><path d="M42.07464,117.55684l-0.71208,-1.55488c-0.39732,-0.81012 -0.59856,-1.64604 -0.59856,-2.48196c0,-3.12868 2.5456,-5.676 5.676,-5.676c3.1304,0 5.676,2.5456 5.676,5.676c0,1.15756 -0.3526,2.27556 -1.0234,3.23704l-0.0516,0.07396l-4.6612,9.44796z" fill="#c13526"></path><path d="M46.44,109.048c2.46648,0 4.472,2.00552 4.472,4.472c0,0.90988 -0.27864,1.79052 -0.80668,2.54732l-0.10492,0.14964l-0.08084,0.1634l-3.54148,7.17756l-2.28072,-4.61992h0.043l-1.69764,-3.46924c-0.31476,-0.64156 -0.47472,-1.2986 -0.47472,-1.94876c0,-2.46648 2.00552,-4.472 4.472,-4.472M46.44,106.64c-3.79948,0 -6.88,3.08052 -6.88,6.88c0,1.08532 0.27348,2.0984 0.72068,3.01h-0.05504l6.15416,12.47l5.70008,-11.55496c0.77572,-1.11284 1.24012,-2.46304 1.24012,-3.92504c0,-3.79948 -3.08052,-6.88 -6.88,-6.88zM103.05552,92.14384c3.20952,0.60888 6.3382,1.41212 9.33272,2.41144c0.45064,0.14964 0.9374,-0.09288 1.08876,-0.54352c0.14964,-0.45064 -0.09288,-0.9374 -0.54352,-1.08876c-3.07364,-1.02684 -6.27628,-1.849 -9.55804,-2.46992c-0.46612,-0.08772 -0.91676,0.21844 -1.00448,0.68456c-0.08944,0.46784 0.21672,0.91848 0.68456,1.0062zM93.54736,90.92952c1.71312,0.11868 3.41592,0.28724 5.10496,0.51084c0.47128,0.06192 0.903,-0.26832 0.96492,-0.7396c0.06192,-0.47128 -0.26832,-0.903 -0.7396,-0.96492c-1.72516,-0.22704 -3.46408,-0.40076 -5.2116,-0.52116c-0.47472,-0.03268 -0.88408,0.32508 -0.91676,0.79808c-0.03268,0.473 0.32508,0.88408 0.79808,0.91676zM63.05176,94.55528c7.6454,-2.5456 16.16456,-3.827 24.68372,-3.827c0.39732,0 0.79464,0.00344 1.19196,0.0086c0.47472,0.00688 0.86516,-0.37152 0.87204,-0.84624c0.00688,-0.47472 -0.37152,-0.86516 -0.84624,-0.87204c-0.40592,-0.00688 -0.81184,-0.0086 -1.21776,-0.0086c-8.69116,0 -17.38232,1.30204 -25.22724,3.91472c-0.45064,0.14964 -0.69488,0.6364 -0.54352,1.08704c0.14964,0.45064 0.6364,0.69488 1.08704,0.54352z" fill="#472b29"></path></g></g></svg>