<svg version="1.1" xmlns="http://www.w3.org/2000/svg" xmlns:xlink="http://www.w3.org/1999/xlink" viewBox="0 0 172 172"><g fill="none" fill-rule="nonzero" stroke="none" stroke-width="1" stroke-linecap="butt" stroke-linejoin="miter" stroke-miterlimit="10" stroke-dasharray="" stroke-dashoffset="0" font-family="none" font-weight="none" font-size="none" text-anchor="none" style="mix-blend-mode: normal"><path d="M0,172v-172h172v172z" fill="none"></path><g><path d="M132.44,20.64c-0.94993,0 -1.72,0.77007 -1.72,1.72c0,0.94993 0.77007,1.72 1.72,1.72c0.94993,0 1.72,-0.77007 1.72,-1.72c0,-0.94993 -0.77007,-1.72 -1.72,-1.72z" fill="#007e58"></path><path d="M86,22.36c-35.1474,0 -63.64,28.4926 -63.64,63.64c0,35.1474 28.4926,63.64 63.64,63.64c35.1474,0 63.64,-28.4926 63.64,-63.64c0,-35.1474 -28.4926,-63.64 -63.64,-63.64z" fill="#ffffff"></path><path d="M142.76,18.92c-3.79972,0 -6.88,3.08028 -6.88,6.88c0,3.79972 3.08028,6.88 6.88,6.88c3.79972,0 6.88,-3.08028 6.88,-6.88c0,-3.79972 -3.08028,-6.88 -6.88,-6.88z" fill="#007e58"></path><path d="M149.64,37.84c-1.89986,0 -3.44,1.54014 -3.44,3.44c0,1.89986 1.54014,3.44 3.44,3.44c1.89986,0 3.44,-1.54014 3.44,-3.44c0,-1.89986 -1.54014,-3.44 -3.44,-3.44z" fill="#c13526"></path><path d="M139.32,127.28c-1.89986,0 -3.44,1.54014 -3.44,3.44c0,1.89986 1.54014,3.44 3.44,3.44c1.89986,0 3.44,-1.54014 3.44,-3.44c0,-1.89986 -1.54014,-3.44 -3.44,-3.44zM25.8,101.48c-3.79972,0 -6.88,3.08028 -6.88,6.88c0,3.79972 3.08028,6.88 6.88,6.88c3.79972,0 6.88,-3.08028 6.88,-6.88c0,-3.79972 -3.08028,-6.88 -6.88,-6.88z" fill="#00396f"></path><path d="M43,146.2c-1.89986,0 -3.44,1.54014 -3.44,3.44c0,1.89986 1.54014,3.44 3.44,3.44c1.89986,0 3.44,-1.54014 3.44,-3.44c0,-1.89986 -1.54014,-3.44 -3.44,-3.44z" fill="#c13526"></path><path d="M31.82,84.28c-2.37482,0 -4.3,1.92518 -4.3,4.3c0,2.37482 1.92518,4.3 4.3,4.3c2.37482,0 4.3,-1.92518 4.3,-4.3c0,-2.37482 -1.92518,-4.3 -4.3,-4.3zM136.74,55.04c-1.42489,0 -2.58,1.15511 -2.58,2.58c0,1.42489 1.15511,2.58 2.58,2.58c1.42489,0 2.58,-1.15511 2.58,-2.58c0,-1.42489 -1.15511,-2.58 -2.58,-2.58z" fill="#ffffff"></path><g><path d="M65.36,127.28v-12.04c0,-4.085 -1.23496,-12.27736 -6.88,-18.92c-5.56936,-6.5532 -10.32,-17.2 -8.6,-25.8c1.72,-8.6 6.88,-30.96 29.24,-32.68c22.36,-1.72 37.84,3.44 44.72,22.36c1.65464,4.95016 -0.07224,6.95224 -1.00276,8.67224l9.10224,14.33276c1.14724,1.505 1.86276,5.805 -1.00276,6.59276c-3.4572,0.95116 -7.09672,1.36224 -7.09672,1.36224l1.43276,15.695c0.35948,5.08776 -1.075,9.81776 -6.59276,10.105c-5.15312,0.26832 -13.76,0 -13.76,0v17.2" fill="#fed5b3"></path><path d="M104.92,135.364c-0.66564,0 -1.204,-0.53836 -1.204,-1.204v-17.2c0,-0.32508 0.13244,-0.63812 0.36636,-0.86516c0.23392,-0.22532 0.57792,-0.38012 0.87548,-0.33712c0.08428,0.00344 8.6172,0.25972 13.66024,0c1.67356,-0.08772 2.924,-0.62436 3.82528,-1.6426c1.634,-1.84728 1.7888,-4.92092 1.62884,-7.17584l-1.43276,-15.6692c-0.0602,-0.65188 0.4128,-1.23152 1.06468,-1.30548c0.03612,-0.00516 3.59136,-0.4128 6.91096,-1.32612c0.49364,-0.13588 0.7912,-0.43172 0.97008,-0.95976c0.41452,-1.22808 -0.08944,-3.06504 -0.60544,-3.74444l-9.16072,-14.41704c-0.23392,-0.36808 -0.25112,-0.8342 -0.04128,-1.21948c0.10836,-0.1978 0.22532,-0.40076 0.34916,-0.61232c0.8772,-1.50672 1.87136,-3.21296 0.57104,-7.1036c-6.08536,-16.73388 -19.49964,-23.38168 -43.48504,-21.53956c-22.14844,1.7028 -26.66688,24.29156 -28.15124,31.71508c-1.66668,8.32652 3.15276,18.68264 8.33512,24.78348c5.28384,6.2178 7.16724,14.25192 7.16724,19.69916v12.04c0,0.66564 -0.53836,1.204 -1.204,1.204c-0.66564,0 -1.204,-0.53836 -1.204,-1.204v-12.04c0,-1.73376 -0.3182,-10.75516 -6.59276,-18.14084c-5.73276,-6.74584 -10.69668,-17.65408 -8.86316,-26.81652c4.22088,-21.10096 14.42392,-32.42028 30.32876,-33.64492c25.2496,-1.94876 39.41552,5.19612 45.94292,23.14948c1.63744,4.89512 0.23392,7.396 -0.72928,9.05064l8.7118,13.72216c0.9374,1.22292 1.59272,3.8786 0.91332,5.88928c-0.43,1.2728 -1.3588,2.16548 -2.6144,2.50948c-2.34092,0.645 -4.73344,1.04232 -6.10944,1.24356l1.32784,14.54432c0.2752,3.91472 -0.49536,7.00728 -2.22568,8.96464c-1.333,1.50672 -3.18544,2.3306 -5.504,2.45272c-4.03168,0.21156 -10.0362,0.10148 -12.61792,0.0344v15.9616c0,0.66564 -0.53836,1.204 -1.204,1.204z" fill="#472b29"></path></g><g><path d="M55.18448,89.64296c-1.54972,-0.43344 -3.0444,-1.04232 -4.46168,-1.81804c0.78604,-2.56452 0.2064,-4.8762 -1.70624,-6.73724c-1.2986,-1.26076 -2.80016,-1.9006 -4.46512,-1.9006c-0.7138,0 -1.4534,0.1204 -2.21192,0.3612c-0.79292,-1.40352 -1.419,-2.88272 -1.86792,-4.41524c2.43724,-1.2728 3.68596,-3.354 3.6206,-6.06816c-0.06192,-2.60236 -1.33644,-4.57692 -3.70316,-5.76372c0.43,-1.54112 1.03372,-3.02892 1.80256,-4.43932c0.78604,0.25628 1.55316,0.38872 2.29276,0.38872c1.7114,0 3.24736,-0.6794 4.56488,-2.01756c1.87996,-1.91092 2.39596,-4.25356 1.51876,-6.82152c1.38116,-0.774 2.8638,-1.3932 4.42212,-1.85072c1.22808,2.44928 3.24908,3.73584 5.89788,3.73584c0.20296,0 0.41108,-0.0086 0.62264,-0.02408c2.46132,-0.17888 4.31548,-1.46716 5.41112,-3.73928c1.53596,0.43688 3.0186,1.04748 4.43072,1.82836c-0.86516,2.61096 -0.32336,4.96736 1.60132,6.8628c1.31064,1.29344 2.82596,1.95048 4.50296,1.95048c0.75336,0 1.53252,-0.13588 2.32888,-0.40592c0.60888,1.11112 1.45168,3.12008 1.82148,4.42384c-2.46992,1.26592 -3.73756,3.35228 -3.6808,6.08708c0.05332,2.56968 1.3072,4.5408 3.64124,5.74996c-0.44376,1.53768 -1.06296,3.02032 -1.849,4.42728c-0.75508,-0.23048 -1.49124,-0.34572 -2.19644,-0.34572c-1.89544,0 -3.54836,0.8084 -4.91404,2.40112c-1.53596,1.79052 -1.9522,3.9388 -1.22636,6.26252c-1.40524,0.77744 -2.8982,1.39664 -4.45136,1.84212c-1.18336,-2.25664 -3.35056,-3.57932 -5.92884,-3.57932c-2.48196,0.02924 -4.65432,1.41728 -5.81704,3.60512zM60.98948,64.01668c-2.78812,0 -5.0654,2.25836 -5.07916,5.03788c-0.00516,1.35536 0.51772,2.6316 1.47404,3.59308c0.9546,0.96148 2.22912,1.49296 3.5862,1.49984c2.77608,-0.01548 5.00176,-2.1758 5.08088,-4.91576c0.03956,-1.37428 -0.46268,-2.67632 -1.41384,-3.6636c-0.94944,-0.98728 -2.22568,-1.53768 -3.59652,-1.54972c-0.00344,-0.00172 -0.04816,-0.00172 -0.0516,-0.00172z" fill="#556d89"></path><path d="M67.49624,49.97116c0.83248,0.28036 1.64776,0.61748 2.4424,1.00964c-0.56932,2.66084 0.16856,5.12732 2.16892,7.10188c1.52048,1.50328 3.3712,2.2962 5.34748,2.2962c0.56072,0 1.13176,-0.06364 1.70796,-0.1892c0.35088,0.74992 0.72584,1.66668 1.00448,2.451c-2.2962,1.5136 -3.50536,3.82012 -3.44516,6.66328c0.05504,2.66256 1.24872,4.83148 3.41076,6.27284c-0.28896,0.84796 -0.63468,1.67872 -1.03888,2.4854c-0.5332,-0.1032 -1.0578,-0.1548 -1.57208,-0.1548c-2.23084,0 -4.24496,0.97524 -5.82908,2.81908c-1.58068,1.84212 -2.16204,4.0678 -1.70968,6.41904c-0.81528,0.4042 -1.65636,0.75336 -2.5198,1.04232c-1.46888,-2.107 -3.81496,-3.35744 -6.4672,-3.35744c-0.01032,0 -0.09804,0 -0.10836,0c-2.51292,0.03268 -4.80568,1.3158 -6.24704,3.39012c-0.86516,-0.2838 -1.70452,-0.62608 -2.52496,-1.02856c0.49536,-2.61612 -0.2752,-5.03616 -2.2618,-6.96772c-1.50844,-1.46888 -3.34368,-2.2446 -5.30448,-2.2446c-0.52288,0 -1.05608,0.05504 -1.59616,0.1634c-0.40592,-0.80152 -0.75508,-1.6254 -1.04576,-2.46992c2.26696,-1.51876 3.45376,-3.81668 3.38668,-6.64264c-0.06364,-2.69696 -1.2814,-4.87276 -3.47612,-6.30036c0.27692,-0.83936 0.6106,-1.66152 0.9976,-2.4596c0.56416,0.11868 1.11972,0.17888 1.66668,0.17888c2.01756,0 3.89236,-0.82388 5.42316,-2.37876c1.95048,-1.98316 2.6574,-4.43244 2.07948,-7.05372c0.78604,-0.39216 1.60132,-0.73272 2.4424,-1.02168c1.46888,2.27384 3.70316,3.49848 6.46032,3.49848c0.23048,0 0.46784,-0.0086 0.71036,-0.02752c2.53528,-0.1806 4.57004,-1.40352 5.89788,-3.49504M60.97744,75.34976c0.00344,0 0.0086,0 0.01204,0c3.41592,-0.01892 6.16792,-2.6918 6.26596,-6.08708c0.04816,-1.69936 -0.57276,-3.30756 -1.74924,-4.53048c-1.17476,-1.2212 -2.75716,-1.90232 -4.51328,-1.91952c-3.45032,0 -6.2694,2.79672 -6.28488,6.235c-0.01548,3.45892 2.79156,6.2866 6.25736,6.30208c0.00344,0 0.00688,0 0.01204,0M66.20796,47.10564c-0.7998,2.32888 -2.35296,3.78744 -4.78676,3.96632c-0.18232,0.01376 -0.35948,0.02064 -0.5332,0.02064c-2.58344,0 -4.2828,-1.46716 -5.20988,-3.96288c-2.36672,0.57792 -4.57176,1.49468 -6.61856,2.77436c1.1266,2.37704 0.9804,4.601 -0.87032,6.48268c-1.118,1.13692 -2.36844,1.6598 -3.7066,1.6598c-0.903,0 -1.84728,-0.23736 -2.81736,-0.68456c-1.25388,2.064 -2.15516,4.27248 -2.69524,6.63748c2.40628,0.88236 3.85796,2.53356 3.91816,5.09292c0.06364,2.66256 -1.37256,4.40664 -3.8442,5.3664c0.56932,2.34608 1.49812,4.52876 2.7778,6.57384c0.93912,-0.41796 1.85244,-0.64156 2.72792,-0.64156c1.30376,0 2.52496,0.49192 3.62576,1.56176c1.8748,1.8232 2.10184,4.02652 1.06468,6.407c2.064,1.2556 4.26216,2.15344 6.61168,2.69524c0.0344,-0.07052 0.06192,-0.1118 0.07912,-0.15652c0.84968,-2.21536 2.77952,-3.63092 4.98628,-3.65844c0.0258,0 0.0516,0 0.0774,0c2.32544,0 4.2484,1.31236 5.1428,3.53632c0.06708,0.16512 0.13932,0.21672 0.24252,0.21672c0.0516,0 0.11008,-0.01204 0.17888,-0.02924c2.12764,-0.53836 4.13316,-1.36568 6.01656,-2.48884c0.1032,-0.06192 0.20124,-0.13244 0.28208,-0.18576c-0.95804,-2.1586 -0.87032,-4.20884 0.66048,-5.99248c1.16272,-1.35536 2.51464,-1.97972 4.00072,-1.97972c0.86688,0 1.77848,0.21328 2.7262,0.61576c1.26936,-2.05196 2.1844,-4.2398 2.74168,-6.58244c-2.37188,-0.90816 -3.80636,-2.53356 -3.85968,-5.09464c-0.05676,-2.7004 1.40524,-4.41008 3.8528,-5.35952c-0.14964,-1.47404 -1.8662,-5.62096 -2.73652,-6.60824c-0.95632,0.4472 -1.892,0.68456 -2.79156,0.68456c-1.31064,0 -2.5456,-0.50396 -3.65672,-1.60132c-1.90232,-1.87824 -2.05196,-4.12628 -0.94772,-6.52568c-2.05884,-1.2728 -4.27248,-2.19128 -6.6392,-2.73996zM60.97572,72.94176c-2.14484,-0.01032 -3.87172,-1.74752 -3.8614,-3.88376c0.01032,-2.12936 1.73548,-3.83904 3.8786,-3.83904c0.01204,0 0.0258,0 0.03784,0c2.1586,0.02064 3.88032,1.80944 3.81668,3.97492c-0.05676,2.01412 -1.6942,3.73584 -3.87172,3.74788z" fill="#472b29"></path><path d="M74.52932,65.63176c-1.90404,-7.482 -9.51504,-12.00388 -16.99704,-10.09812c-7.482,1.90404 -12.00388,9.51504 -10.09812,16.99704c1.90404,7.482 9.51504,12.00388 16.99704,10.09812c7.482,-1.90404 12.00388,-9.51504 10.09812,-16.99704zM63.73632,79.89916c-5.97528,1.52048 -12.05204,-2.0898 -13.57252,-8.06508c-1.52048,-5.97528 2.0898,-12.05204 8.06508,-13.57252c5.97528,-1.52048 12.05204,2.0898 13.57252,8.06508c1.52048,5.97528 -2.0898,12.05204 -8.06508,13.57252z" fill="#00396f"></path><path d="M49.66328,69.51036c-0.23736,0 -0.43,-0.19264 -0.43,-0.43c0,-6.47924 5.27008,-11.7476 11.7476,-11.7476c1.74236,0 3.42108,0.37324 4.98972,1.11112c0.215,0.10148 0.30788,0.35776 0.2064,0.57276c-0.10148,0.21672 -0.35776,0.30272 -0.57276,0.2064c-1.4534,-0.68284 -3.01,-1.03028 -4.62336,-1.03028c-6.0028,0 -10.8876,4.8848 -10.8876,10.8876c0,0.23736 -0.19264,0.43 -0.43,0.43zM60.98088,80.82796c-5.16172,0 -9.6664,-3.30584 -11.21096,-8.22504c-0.07052,-0.22704 0.05504,-0.46784 0.28208,-0.53836c0.22876,-0.07052 0.46784,0.05504 0.53836,0.28036c1.43104,4.55972 5.60548,7.62476 10.39052,7.62476c2.45788,0 4.77816,-0.7998 6.70972,-2.3134c0.18748,-0.14792 0.45752,-0.11524 0.60372,0.07224c0.1462,0.18576 0.11352,0.45752 -0.07224,0.60372c-2.08464,1.63228 -4.58896,2.49572 -7.2412,2.49572zM69.82512,76.57268c-0.0946,0 -0.1892,-0.03096 -0.26832,-0.0946c-0.18576,-0.14792 -0.215,-0.41968 -0.06708,-0.60544c1.5566,-1.94532 2.37876,-4.29312 2.37876,-6.79228c0,-1.36912 -0.25112,-2.70212 -0.74476,-3.96632c-0.086,-0.22016 0.02236,-0.46956 0.24424,-0.55556c0.2236,-0.08428 0.47128,0.02408 0.55728,0.24424c0.5332,1.36224 0.80324,2.80188 0.80324,4.27764c0,2.6574 -0.9116,5.26148 -2.56624,7.33064c-0.086,0.10492 -0.21156,0.16168 -0.33712,0.16168z" fill="#472b29"></path><g fill="#472b29"><path d="M70.305,63.09476c-0.13588,0 -0.27004,-0.06536 -0.35432,-0.18576c-0.58996,-0.85312 -1.29688,-1.61852 -2.10356,-2.27384c-0.18404,-0.15136 -0.21328,-0.4214 -0.06192,-0.60716c0.14964,-0.18404 0.4214,-0.20812 0.60544,-0.06192c0.87032,0.70864 1.63228,1.53424 2.26696,2.45616c0.13588,0.19436 0.086,0.46268 -0.10836,0.59856c-0.07396,0.04816 -0.15996,0.07396 -0.24424,0.07396z"></path></g></g><g><path d="M92.45172,112.7116c2.11388,1.13348 4.89684,2.24632 8.31276,2.81564" fill="#fed5b3"></path><path d="M100.76448,116.38724c-0.04644,0 -0.0946,-0.00344 -0.14276,-0.01204c-3.04268,-0.5074 -5.92884,-1.48436 -8.57764,-2.90508c-0.41796,-0.2236 -0.5762,-0.74648 -0.35088,-1.16444c0.2236,-0.41624 0.74476,-0.57792 1.16444,-0.35088c2.48368,1.33128 5.19096,2.24804 8.04788,2.72448c0.46784,0.0774 0.78604,0.52116 0.70692,0.989c-0.07052,0.4214 -0.43516,0.71896 -0.84796,0.71896z" fill="#472b29"></path></g><g><path d="M87.57724,109.22c0,0 0.645,0.68456 1.90404,1.6168" fill="#fed5b3"></path><path d="M89.47956,111.6968c-0.17716,0 -0.35776,-0.05504 -0.51084,-0.16856c-1.3072,-0.96836 -1.99176,-1.68904 -2.01928,-1.72c-0.32508,-0.34572 -0.30788,-0.88924 0.03612,-1.21432c0.344,-0.32336 0.88924,-0.3096 1.21432,0.0344c0.00688,0.00688 0.62092,0.65188 1.79224,1.51704c0.38184,0.2838 0.46268,0.82216 0.17888,1.204c-0.16684,0.22704 -0.42656,0.34744 -0.69144,0.34744z" fill="#472b29"></path></g></g></g></svg>