<svg version="1.1" xmlns="http://www.w3.org/2000/svg" xmlns:xlink="http://www.w3.org/1999/xlink" viewBox="0 0 172 172"><g fill="none" fill-rule="nonzero" stroke="none" stroke-width="1" stroke-linecap="butt" stroke-linejoin="miter" stroke-miterlimit="10" stroke-dasharray="" stroke-dashoffset="0" font-family="none" font-weight="none" font-size="none" text-anchor="none" style="mix-blend-mode: normal"><path d="M0,172v-172h172v172z" fill="none"></path><g><path d="M132.44,20.64c-0.94993,0 -1.72,0.77007 -1.72,1.72c0,0.94993 0.77007,1.72 1.72,1.72c0.94993,0 1.72,-0.77007 1.72,-1.72c0,-0.94993 -0.77007,-1.72 -1.72,-1.72z" fill="#ffe400"></path><path d="M86,22.36c-35.1474,0 -63.64,28.4926 -63.64,63.64c0,35.1474 28.4926,63.64 63.64,63.64c35.1474,0 63.64,-28.4926 63.64,-63.64c0,-35.1474 -28.4926,-63.64 -63.64,-63.64z" fill="#ffffff"></path><path d="M142.76,18.92c-3.79972,0 -6.88,3.08028 -6.88,6.88c0,3.79972 3.08028,6.88 6.88,6.88c3.79972,0 6.88,-3.08028 6.88,-6.88c0,-3.79972 -3.08028,-6.88 -6.88,-6.88z" fill="#ffe400"></path><path d="M149.64,37.84c-1.89986,0 -3.44,1.54014 -3.44,3.44c0,1.89986 1.54014,3.44 3.44,3.44c1.89986,0 3.44,-1.54014 3.44,-3.44c0,-1.89986 -1.54014,-3.44 -3.44,-3.44z" fill="#14a76c"></path><path d="M139.32,127.28c-1.89986,0 -3.44,1.54014 -3.44,3.44c0,1.89986 1.54014,3.44 3.44,3.44c1.89986,0 3.44,-1.54014 3.44,-3.44c0,-1.89986 -1.54014,-3.44 -3.44,-3.44zM25.8,101.48c-3.79972,0 -6.88,3.08028 -6.88,6.88c0,3.79972 3.08028,6.88 6.88,6.88c3.79972,0 6.88,-3.08028 6.88,-6.88c0,-3.79972 -3.08028,-6.88 -6.88,-6.88z" fill="#ff6525"></path><path d="M43,146.2c-1.89986,0 -3.44,1.54014 -3.44,3.44c0,1.89986 1.54014,3.44 3.44,3.44c1.89986,0 3.44,-1.54014 3.44,-3.44c0,-1.89986 -1.54014,-3.44 -3.44,-3.44z" fill="#14a76c"></path><path d="M136.74,55.04c-1.42489,0 -2.58,1.15511 -2.58,2.58c0,1.42489 1.15511,2.58 2.58,2.58c1.42489,0 2.58,-1.15511 2.58,-2.58c0,-1.42489 -1.15511,-2.58 -2.58,-2.58z" fill="#ffffff"></path><path d="M45.49744,120.916c-1.66152,0 -3.01344,-1.35536 -3.01344,-3.02204v-56.90792c0,-1.66668 1.35192,-3.02204 3.01344,-3.02204h79.28512c1.66152,0 3.01344,1.35536 3.01344,3.02204v56.90964c-0.00172,1.66496 -1.35192,3.02032 -3.01344,3.02032z" fill="#fff3a4"></path><path d="M124.78256,59.168c0.9976,0 1.80944,0.81528 1.80944,1.81804v56.90792c0,1.00276 -0.81184,1.81804 -1.80944,1.81804h-79.28512c-0.9976,0 -1.80944,-0.81528 -1.80944,-1.81804v-56.90792c0,-1.00276 0.81184,-1.81804 1.80944,-1.81804h79.28512M124.78256,56.76h-79.28512c-2.32028,0 -4.21744,1.90232 -4.21744,4.22604v56.90792c0,2.32544 1.89888,4.22604 4.21744,4.22604h79.28512c2.31856,0 4.21572,-1.9006 4.21744,-4.22432v-56.90964c0,-2.32544 -1.89888,-4.22604 -4.21744,-4.22604z" fill="#000000"></path><path d="M79.83724,119.64836v-60.52336h8.88552v1.66496v58.8584h-8.88552" fill="#14a76c"></path><path d="M120.56684,109.22h7.57316v0.89784v5.21848c0,4.41868 -0.69832,5.81532 -4.89684,5.92368l-7.19648,-0.05332l0.01548,-8.1442c-0.00172,-1.849 2.67632,-3.84248 4.50468,-3.84248z" fill="#ffcdb8"></path><path d="M123.26552,122.12l-8.08056,-0.0602l0.0172,-8.99904c0,-2.37532 3.07192,-4.69904 5.36468,-4.69904h8.43316v6.97804c0,4.58724 -0.82732,6.65468 -5.73448,6.78024zM116.9084,120.35356l6.34164,0.04644c3.46064,-0.08944 4.02996,-0.7998 4.02996,-5.06196v-5.25804h-6.71316c-1.38632,0 -3.64468,1.66668 -3.64468,2.98076z" fill="#000000"></path><path d="M70.65244,55.17932c-0.4644,-4.25356 3.71864,-9.59932 6.34508,-9.59932h14.64924c2.6316,0 6.29864,5.87552 6.4328,9.59932h3.40044c-0.44548,-7.10532 -3.20608,-14.75932 -8.85628,-14.75932h-16.60488c-4.2226,0 -8.49336,7.66604 -8.93884,14.75932z" fill="#dcdcdc"></path><path d="M102.39504,56.03932h-5.14624l-0.03096,-0.82904c-0.129,-3.61372 -3.71692,-8.77028 -5.5728,-8.77028h-14.64924c-0.73272,0 -1.81288,0.6966 -2.81908,1.82148c-1.51532,1.68904 -2.92916,4.4548 -2.67116,6.82668l0.10492,0.95288h-5.44724l0.05676,-0.91332c0.45236,-7.1982 4.82976,-15.566 9.7954,-15.566h16.6066c6.45,0 9.26392,8.385 9.71284,15.566zM98.86388,54.31932h1.68732c-0.602,-6.63232 -3.22156,-13.03932 -7.92576,-13.03932h-16.6066c-3.41076,0 -7.28592,6.43452 -7.99972,13.03932h1.74236c0.06708,-2.78984 1.66668,-5.5642 3.13728,-7.2068c0.7998,-0.8944 2.39768,-2.39252 4.09876,-2.39252h14.64924c2.99624,0 6.63404,5.51604 7.21712,9.59932zM122.12,113.52c-0.94993,0 -1.72,0.77007 -1.72,1.72c0,0.94993 0.77007,1.72 1.72,1.72c0.94993,0 1.72,-0.77007 1.72,-1.72c0,-0.94993 -0.77007,-1.72 -1.72,-1.72z" fill="#000000"></path><path d="M54.16452,113.06248l0.01548,8.1442l-7.19648,0.05332c-4.19852,-0.10836 -4.89684,-1.505 -4.89684,-5.92368v-5.21848v-0.89784h7.57316c1.82836,0 4.50468,1.99348 4.50468,3.84248z" fill="#ffcdb8"></path><path d="M46.98868,122.12c-4.93468,-0.12556 -5.76372,-2.193 -5.76372,-6.78196v-6.97804h8.43316c2.29276,0 5.36296,2.32372 5.36468,4.69904l0.0172,8.99904zM42.94668,110.08v5.25804c0,4.26388 0.56932,4.97424 4.05748,5.06196l6.31412,-0.04644l-0.01376,-7.29108c0,-1.3158 -2.25836,-2.98076 -3.64468,-2.98076h-6.71316z" fill="#000000"></path><g fill="#000000"><path d="M48.10668,113.52c-0.94993,0 -1.72,0.77007 -1.72,1.72c0,0.94993 0.77007,1.72 1.72,1.72c0.94993,0 1.72,-0.77007 1.72,-1.72c0,-0.94993 -0.77007,-1.72 -1.72,-1.72z"></path></g><g><path d="M74.34356,57.69224h-10.87212c-0.30272,0 -0.54696,-0.41796 -0.54696,-0.93052l0.00172,-1.6512c0,-0.51084 0.24596,-0.9288 0.54696,-0.9288h10.87212c0.30272,0 0.54696,0.41796 0.54696,0.93052v1.6512c-0.00172,0.50912 -0.2494,0.9288 -0.54868,0.9288z" fill="#dcdcdc"></path><path d="M74.34356,58.55224h-10.87212c-0.80324,0 -1.40696,-0.77056 -1.40696,-1.79224l0.00172,-1.65292c0,-1.01824 0.60544,-1.78708 1.40696,-1.78708h10.87212c0.80324,0 1.40696,0.76884 1.40696,1.79052v1.65292c-0.00344,1.02168 -0.60888,1.7888 -1.40868,1.7888zM63.7862,56.83224h10.2426c0.00172,-0.02236 0.00344,-0.04472 0.00344,-0.07224v-1.64948c0,-0.0258 -0.00172,-0.04816 -0.00344,-0.07052h-10.24088c-0.00172,0.02236 -0.00344,0.043 -0.00344,0.0688l-0.00172,1.65292c0,0.0258 0.00172,0.04816 0.00344,0.07052z" fill="#000000"></path></g><g><path d="M105.30356,57.69224h-10.87212c-0.30272,0 -0.54696,-0.41796 -0.54696,-0.93052l0.00172,-1.6512c0,-0.51084 0.24596,-0.9288 0.54696,-0.9288h10.87212c0.30272,0 0.54696,0.41796 0.54696,0.93052v1.6512c-0.00172,0.50912 -0.2494,0.9288 -0.54868,0.9288z" fill="#dcdcdc"></path><path d="M105.30356,58.55224h-10.87212c-0.80324,0 -1.40696,-0.77056 -1.40696,-1.79224l0.00172,-1.65292c0,-1.01824 0.60544,-1.78708 1.40696,-1.78708h10.87212c0.80324,0 1.40696,0.76884 1.40696,1.79052v1.65292c-0.00344,1.02168 -0.60888,1.7888 -1.40868,1.7888zM94.7462,56.83224h10.2426c0.00172,-0.02236 0.00344,-0.04472 0.00344,-0.07224v-1.64948c0,-0.0258 -0.00172,-0.04816 -0.00344,-0.07052h-10.24088c-0.00172,0.02236 -0.00344,0.043 -0.00344,0.0688l-0.00172,1.65292c0,0.0258 0.00172,0.04816 0.00344,0.07052z" fill="#000000"></path></g><g fill="#000000"><path d="M76.54,91.16h-32.68c-0.47472,0 -0.86,-0.38528 -0.86,-0.86c0,-0.47472 0.38528,-0.86 0.86,-0.86h32.68c0.47472,0 0.86,0.38528 0.86,0.86c0,0.47472 -0.38528,0.86 -0.86,0.86z"></path></g><g fill="#000000"><path d="M88.58,66.865c-0.23736,0 -0.43,-0.19264 -0.43,-0.43v-5.375c0,-0.23736 0.19264,-0.43 0.43,-0.43c0.23736,0 0.43,0.19264 0.43,0.43v5.375c0,0.23736 -0.19264,0.43 -0.43,0.43z"></path></g><g fill="#000000"><path d="M79.98,118.25c-0.23736,0 -0.43,-0.19264 -0.43,-0.43v-5.16c0,-0.23736 0.19264,-0.43 0.43,-0.43c0.23736,0 0.43,0.19264 0.43,0.43v5.16c0,0.23736 -0.19264,0.43 -0.43,0.43z"></path></g><g fill="#000000"><path d="M88.58,120.68724c-0.23736,0 -0.43,-0.19264 -0.43,-0.43v-50.66948c0,-0.23736 0.19264,-0.43 0.43,-0.43c0.23736,0 0.43,0.19264 0.43,0.43v50.66948c0,0.23736 -0.19264,0.43 -0.43,0.43z"></path></g><g fill="#000000"><path d="M79.98,109.65c-0.23736,0 -0.43,-0.19264 -0.43,-0.43v-51.6c0,-0.23736 0.19264,-0.43 0.43,-0.43c0.23736,0 0.43,0.19264 0.43,0.43v51.6c0,0.23736 -0.19264,0.43 -0.43,0.43z"></path></g><g fill="#000000"><path d="M128.14,91.16h-32.68c-0.47472,0 -0.86,-0.38528 -0.86,-0.86c0,-0.47472 0.38528,-0.86 0.86,-0.86h32.68c0.47472,0 0.86,0.38528 0.86,0.86c0,0.47472 -0.38528,0.86 -0.86,0.86z"></path></g><g><path d="M83.09148,74.94384l2.44068,-0.01548c2.62128,-0.0172 4.76784,2.17924 4.78504,4.89512l0.03612,5.77404c0.0172,2.71588 -2.10184,4.93984 -4.72312,4.95704l-2.4424,0.01548c-2.62128,0.0172 -4.76784,-2.17924 -4.78504,-4.89512l-0.03612,-5.77404c-0.01548,-2.7176 2.10528,-4.94156 4.72484,-4.95704zM85.69728,88.13452c1.24184,-0.0086 2.24632,-1.05952 2.23944,-2.34264l-0.03784,-6.13524c-0.0086,-1.28312 -1.02512,-2.32028 -2.26868,-2.3134l-2.60408,0.0172c-1.24184,0.0086 -2.24632,1.05952 -2.23944,2.34264l0.03784,6.13524c0.0086,1.28312 1.02512,2.32028 2.26868,2.3134z" fill="#ffcdb8"></path><path d="M83.15856,90.99832c-1.37428,0 -2.66772,-0.5504 -3.6464,-1.55144c-0.98384,-1.0062 -1.5308,-2.34608 -1.5394,-3.77024l-0.03612,-5.77232c-0.01892,-2.95496 2.29276,-5.37156 5.1514,-5.39048l2.44068,-0.01548c0.01204,0 0.02408,0 0.0344,0c1.37428,0 2.66772,0.5504 3.6464,1.55144c0.98384,1.0062 1.5308,2.34608 1.5394,3.77024l0.03612,5.77232c0.01892,2.95496 -2.29276,5.37156 -5.14968,5.39048l-2.4424,0.01548c-0.01376,0 -0.02408,0 -0.0344,0zM83.09664,75.37212c-2.38564,0.01548 -4.31376,2.04336 -4.29828,4.5236l0.03612,5.77232c0.00688,1.20228 0.46612,2.32888 1.29344,3.17684c0.817,0.8342 1.892,1.29344 3.03236,1.29344c0.01032,0 0.01892,0 0.02752,0l2.4424,-0.01548c2.38564,-0.01548 4.31204,-2.04336 4.29656,-4.5236l-0.03612,-5.77232c-0.00688,-1.20228 -0.46612,-2.32888 -1.29344,-3.17684c-0.817,-0.8342 -1.892,-1.29344 -3.03236,-1.29344c-0.01032,0 -0.01892,0 -0.02752,0zM83.08116,88.58172c-1.47232,0 -2.67632,-1.22636 -2.68664,-2.74168l-0.03784,-6.13352c-0.0086,-1.5222 1.18852,-2.76576 2.66772,-2.77608l2.60236,-0.0172c0.00516,0 0.01032,0 0.01548,0c1.47232,0 2.67804,1.22636 2.68836,2.74168l0.03784,6.13352c0.0086,1.5222 -1.1868,2.76576 -2.666,2.77608l-2.6058,0.0172c-0.00516,0 -0.01032,0 -0.01548,0zM85.64052,77.77324c-0.00344,0 -0.00688,0 -0.01032,0l-2.60064,0.0172c-1.0062,0.00688 -1.81976,0.86344 -1.8146,1.91092l0.03784,6.1318c0.00688,1.04232 0.82388,1.88856 1.82664,1.88856c0.00344,0 0.00688,0 0.01032,0l2.60408,-0.0172c1.00448,-0.00688 1.81804,-0.86344 1.81288,-1.91092l-0.03784,-6.1318c-0.00688,-1.04404 -0.82732,-1.88856 -1.82836,-1.88856z" fill="#000000"></path></g><g><path d="M83.7726,86h1.17992c0.19264,0 0.34916,0.1634 0.34916,0.36464l-0.00344,6.15072c0,0.20124 -0.15652,0.36464 -0.34916,0.36464h-1.17992c-0.19264,0 -0.34916,-0.1634 -0.34916,-0.36464l0.00344,-6.15072c0,-0.20124 0.15652,-0.36464 0.34916,-0.36464z" fill="#ffcdb8"></path><path d="M84.9508,93.31h-1.18164c-0.43,0 -0.77916,-0.35604 -0.77916,-0.79464l0.00344,-6.15072c0,-0.4386 0.34916,-0.79464 0.77744,-0.79464h1.18164c0.43,0 0.77916,0.35604 0.77916,0.79464l-0.00344,6.15072c0,0.4386 -0.34916,0.79464 -0.77744,0.79464zM83.85344,86.42484l-0.00344,6.09052l1.1008,-0.06536l-0.07912,-6.08536zM83.78292,86.43h-0.01204c0.00516,0 0.0086,0 0.01204,0z" fill="#000000"></path></g></g></g></svg>