<svg version="1.1" xmlns="http://www.w3.org/2000/svg" xmlns:xlink="http://www.w3.org/1999/xlink" viewBox="0 0 172 172"><g fill="none" fill-rule="nonzero" stroke="none" stroke-width="1" stroke-linecap="butt" stroke-linejoin="miter" stroke-miterlimit="10" stroke-dasharray="" stroke-dashoffset="0" font-family="none" font-weight="none" font-size="none" text-anchor="none" style="mix-blend-mode: normal"><path d="M0,172v-172h172v172z" fill="none"></path><g fill="#556d89"><path d="M73.745,3.46016c-4.66394,0.13929 -9.17022,2.56837 -11.73765,6.81281l-0.90703,1.505c-1.29532,2.13856 -3.57772,3.45572 -6.07375,3.50719h-0.00672l-1.76031,0.04031c-7.55371,0.15732 -13.70707,6.30623 -13.86078,13.86078l-0.04031,1.76031c-0.05146,2.49608 -1.37263,4.7832 -3.50719,6.07375l-1.505,0.91375c-6.46351,3.91258 -8.72033,12.31859 -5.07937,18.94015h0.00672l0.84656,1.54531c1.20451,2.18683 1.20451,4.82754 0,7.01437l-0.84656,1.5386c-3.64038,6.62051 -1.38834,15.02786 5.07937,18.94015l1.505,0.90703c2.13857,1.29532 3.45572,3.57772 3.50719,6.07375v0.00672l0.04031,1.76031c0.12725,6.11027 4.20124,11.24485 9.74219,13.08813l-17.87187,38.72687c-0.49283,1.06558 -0.40826,2.3089 0.22433,3.29793c0.63259,0.98902 1.72586,1.58718 2.89988,1.58661h22.42719l12.72531,15.91c0.75286,0.94059 1.94289,1.41883 3.13727,1.26077c1.19437,-0.15806 2.21905,-0.92938 2.70133,-2.03343l10.7164,-24.48985l10.7164,24.48985c0.48228,1.10405 1.50695,1.87537 2.70133,2.03343c1.19437,0.15806 2.38441,-0.32018 3.13727,-1.26077l12.72531,-15.91h22.42719c1.17403,0.00057 2.26729,-0.59758 2.89988,-1.58661c0.63259,-0.98902 0.71717,-2.23235 0.22433,-3.29793l-17.89875,-38.78734c5.44771,-1.89534 9.43492,-6.98425 9.56078,-13.02766v-0.00672l0.04031,-1.7536v-0.00672c0.05146,-2.49608 1.37263,-4.7832 3.50719,-6.07375l1.51172,-0.91375c6.46367,-3.91258 8.71361,-12.31187 5.07266,-18.93344l-0.00672,-0.00672l-0.86,-1.55203c-1.19719,-2.18423 -1.19551,-4.81854 0.00672,-7.00094l0.85328,-1.5386v-0.00672c3.6388,-6.61763 1.38859,-15.01894 -5.07265,-18.93344l-0.00672,-0.00672l-1.505,-0.90703c-2.13841,-1.29467 -3.45572,-3.57772 -3.50719,-6.07375v-0.00672l-0.04031,-1.75359v-0.00672c-0.15731,-7.55373 -6.30623,-13.70707 -13.86078,-13.86078l-1.76031,-0.04031c-2.49608,-0.05147 -4.7832,-1.37263 -6.07375,-3.50719l-0.91375,-1.505c-3.91229,-6.46772 -12.31964,-8.71975 -18.94015,-5.07937v0.00672l-1.54531,0.84656c-2.18683,1.20451 -4.82754,1.20451 -7.01437,0l-1.5386,-0.84656c-1.65513,-0.91009 -3.42011,-1.45279 -5.20031,-1.65281c-0.66757,-0.07501 -1.33591,-0.10052 -2.00219,-0.08062zM73.57031,10.32c1.36057,-0.09928 2.77041,0.18855 4.06484,0.90031l1.53188,0.84656c4.24597,2.33869 9.41325,2.33869 13.65922,0l1.5386,-0.85328v0.00672c3.45181,-1.89802 7.69656,-0.76381 9.73547,2.60687l0.91375,1.505c2.50654,4.1425 6.9709,6.72416 11.81156,6.82625l1.76703,0.04031c3.93966,0.08016 7.04844,3.18222 7.1286,7.12187v0.00672l0.0336,1.76031c0.0999,4.84493 2.68337,9.30896 6.82625,11.81828l1.505,0.91375c3.36862,2.03766 4.50674,6.27808 2.61359,9.72875l-0.85328,1.54531c-2.33869,4.24597 -2.33869,9.40653 0,13.6525l0.00672,0.00672v0.00672l0.85328,1.52516c1.89745,3.45075 0.75425,7.69685 -2.61359,9.73547l-1.505,0.91375c-4.14689,2.50721 -6.72636,6.9734 -6.82625,11.81828l-0.0336,1.76031v0.00672c-0.08015,3.93966 -3.18894,7.04172 -7.1286,7.12188l-1.76703,0.04031c-4.84235,0.10213 -9.30339,2.67856 -11.81156,6.81953v0.00672l-0.91375,1.505c-2.03891,3.37068 -6.28366,4.5049 -9.73547,2.60687v0.00672l-1.5386,-0.85328c-4.24597,-2.33869 -9.41325,-2.33869 -13.65922,0l-1.5386,0.85328v-0.00672c-3.45075,1.89745 -7.69685,0.76097 -9.73547,-2.60687l-0.91375,-1.505c-2.50654,-4.14251 -6.9709,-6.72416 -11.81156,-6.82625h-0.00672l-1.76031,-0.04031c-3.93966,-0.08015 -7.04844,-3.18221 -7.1286,-7.12188v-0.00672l-0.0336,-1.76031c-0.0999,-4.84493 -2.68337,-9.30896 -6.82625,-11.81828l-1.505,-0.91375c-3.37056,-2.03937 -4.51162,-6.28366 -2.61359,-9.73547l0.84656,-1.53188v-0.00672c2.33545,-4.24485 2.33761,-9.40849 0,-13.6525l-0.85328,-1.5386h0.00672c-1.89745,-3.45075 -0.76097,-7.69685 2.60687,-9.73547l1.505,-0.91375c4.14251,-2.50654 6.72416,-6.9709 6.82625,-11.81156v-0.00672l0.04031,-1.76031c0.08015,-3.93966 3.18221,-7.04843 7.12188,-7.12859h0.00672l1.76031,-0.03359c4.84493,-0.09989 9.30896,-2.68337 11.81828,-6.82625l0.91375,-1.505c1.01945,-1.68534 2.58568,-2.81741 4.3336,-3.28547c0.43698,-0.11702 0.88351,-0.19534 1.33703,-0.22844zM115.93203,108.7161l16.50125,35.7639h-18.69828c-1.04529,-0.0006 -2.03416,0.47405 -2.6875,1.29l-10.20578,12.75219l-10.97844,-25.10797l5.79156,-13.23594c5.52876,0.86352 11.29306,-1.57101 14.33781,-6.60453l0.91375,-1.505c1.10891,-1.83081 2.95514,-3.00461 5.02563,-3.35265zM56.26953,108.74297c1.99203,0.39102 3.76043,1.55543 4.83078,3.32578l0.91375,1.505c3.91258,6.46367 12.31859,8.72033 18.94015,5.07938v-0.00672l1.54531,-0.84656c2.0991,-1.15619 4.60625,-1.17093 6.7389,-0.1075l-17.86515,40.82984l-10.20578,-12.75219c-0.65334,-0.81595 -1.64221,-1.2906 -2.6875,-1.29h-18.69828z"></path></g></g></svg>