<svg version="1.1" xmlns="http://www.w3.org/2000/svg" xmlns:xlink="http://www.w3.org/1999/xlink" viewBox="0 0 172 172"><g fill="none" fill-rule="nonzero" stroke="none" stroke-width="1" stroke-linecap="butt" stroke-linejoin="miter" stroke-miterlimit="10" stroke-dasharray="" stroke-dashoffset="0" font-family="none" font-weight="none" font-size="none" text-anchor="none" style="mix-blend-mode: normal"><path d="M0,172v-172h172v172z" fill="none"></path><g fill="#556d89"><path d="M10.32,24.08c-5.65719,0 -10.32,4.66281 -10.32,10.32v110.08c0,5.65719 4.66281,10.32 10.32,10.32h24.08v-6.88h6.88v6.88h89.44v-6.88h6.88v6.88h24.08c5.65719,0 10.32,-4.66281 10.32,-10.32v-96.32c0,-5.65719 -4.66281,-10.32 -10.32,-10.32h-72.24v-3.44c0,-5.65719 -4.66281,-10.32 -10.32,-10.32zM10.32,30.96h68.8c1.935,0 3.44,1.505 3.44,3.44v10.32h79.12c1.935,0 3.44,1.505 3.44,3.44v96.32c0,1.935 -1.505,3.44 -3.44,3.44h-17.2v-6.88h-20.64v6.88h-75.68v-6.88h-20.64v6.88h-17.2c-1.935,0 -3.44,-1.505 -3.44,-3.44v-110.08c0,-1.935 1.505,-3.44 3.44,-3.44zM46.3325,61.92c-11.55625,0.215 -12.95375,9.00313 -10.4275,19.135c-0.44344,0.28219 -1.15562,1.29 -0.9675,2.9025c0.34938,2.99656 1.505,3.69531 2.2575,3.7625c0.28219,2.795 2.05594,6.14094 3.01,6.665c0,1.98875 0.08063,3.50719 -0.1075,5.6975c-2.28437,6.38281 -18.74531,4.56875 -19.4575,16.8775h51.6c-0.71219,-12.30875 -17.06562,-10.49469 -19.35,-16.8775c-0.18812,-2.19031 -0.1075,-3.70875 -0.1075,-5.6975c0.95406,-0.52406 2.60688,-3.87 2.9025,-6.665c0.7525,-0.06719 1.90813,-0.76594 2.2575,-3.7625c0.18813,-1.6125 -0.52406,-2.51281 -0.9675,-2.795c1.20938,-3.80281 3.69531,-15.65469 -4.73,-16.8775c-0.87344,-1.58562 -3.02344,-2.365 -5.9125,-2.365zM89.44,75.68v6.88h61.92v-6.88zM89.44,92.88v6.88h61.92v-6.88zM89.44,110.08v6.88h61.92v-6.88z"></path></g></g></svg>