<svg version="1.1" xmlns="http://www.w3.org/2000/svg" xmlns:xlink="http://www.w3.org/1999/xlink" viewBox="0 0 172 172"><g fill="none" fill-rule="nonzero" stroke="none" stroke-width="1" stroke-linecap="butt" stroke-linejoin="miter" stroke-miterlimit="10" stroke-dasharray="" stroke-dashoffset="0" font-family="none" font-weight="none" font-size="none" text-anchor="none" style="mix-blend-mode: normal"><path d="M0,172v-172h172v172z" fill="none"></path><g fill="#556d89"><path d="M34.4,13.76c-13.2225,0 -24.08,10.8575 -24.08,24.08v10.32c0,1.89469 1.54531,3.44 3.44,3.44h17.2v103.2c0,1.89469 1.54531,3.44 3.44,3.44h48.16v-6.88h-44.72v-99.76h65.36c1.89469,0 3.44,-1.54531 3.44,-3.44v-10.32c0,-9.47344 7.72656,-17.2 17.2,-17.2c0.1075,0 0.215,0 0.3225,0c9.32563,0.17469 16.8775,7.83406 16.8775,17.2v113.52h-17.2v6.88h20.64c1.89469,0 3.44,-1.54531 3.44,-3.44v-116.96c0,-13.04781 -10.56187,-23.79781 -23.5425,-24.08c-0.17469,0 -0.36281,0 -0.5375,0zM34.4,20.64h72.7775c-4.52844,4.38063 -7.4175,10.44094 -7.4175,17.2v6.88h-82.56v-6.88c0,-9.47344 7.72656,-17.2 17.2,-17.2zM55.04,61.92v6.88h68.8v-6.88zM55.04,82.56v6.88h68.8v-6.88zM103.2,103.2c-2.66062,0 -4.85094,1.47813 -6.45,3.5475c-2.39187,-0.52406 -4.97187,-0.40312 -7.095,1.29c-2.10969,1.69313 -2.66062,4.3 -2.58,6.7725c-2.23062,1.22281 -4.07156,3.06375 -4.515,5.6975c-0.43,2.60688 0.73906,4.91813 2.365,6.7725c-0.9675,2.44563 -1.06156,5.17344 0.215,7.31c0.22844,0.38969 0.56438,0.645 0.86,0.9675v29.5625c-0.01344,1.30344 0.71219,2.49938 1.88125,3.09063c1.15563,0.59125 2.55313,0.48375 3.60125,-0.29563l11.7175,-8.815l11.7175,8.815c1.04813,0.77938 2.44563,0.88688 3.60125,0.29563c1.16906,-0.59125 1.89469,-1.78719 1.88125,-3.09063v-29.5625c0.29563,-0.3225 0.63156,-0.57781 0.86,-0.9675c1.49156,-2.48594 1.16906,-5.02562 0.215,-7.31c1.62594,-1.85437 2.795,-4.16562 2.365,-6.7725c-0.44344,-2.63375 -2.28437,-4.47469 -4.515,-5.6975c0.08063,-2.4725 -0.47031,-5.07937 -2.58,-6.7725c-2.12312,-1.69312 -4.70312,-1.81406 -7.095,-1.29c-1.55875,-1.97531 -3.74906,-3.5475 -6.45,-3.5475zM110.08,107.3925c0.14781,0.1075 0.43,0.3225 0.3225,0.215l-0.1075,0.1075c-0.06719,-0.1075 -0.14781,-0.215 -0.215,-0.3225zM103.2,110.08c1.10188,0 1.20938,0.20156 1.505,1.075c0.17469,0.52406 0.47031,1.00781 0.86,1.3975c0.17469,0.17469 0.38969,0.40313 1.29,0.86c0.90031,0.45688 1.65281,0.43 1.8275,0.43c0.63156,0.02688 1.27656,-0.12094 1.8275,-0.43c0.51063,-0.30906 1.43781,-0.40312 1.935,0c0.57781,0.47031 0.57781,0.63156 0.215,1.72c-0.13437,0.37625 -0.215,0.77938 -0.215,1.1825c0,0.47031 0.24188,0.5375 0.43,0.9675c0.12094,1.54531 1.26313,2.83531 2.795,3.1175c0.5375,0.09406 1.19594,0.7525 1.29,1.29c0.09406,0.59125 -0.24187,1.30344 -0.7525,1.6125c-0.99437,0.63156 -1.6125,1.72 -1.6125,2.9025v1.075c-0.01344,0.72563 0.215,1.45125 0.645,2.0425c0.09406,0.13438 0.24188,1.505 0.1075,1.72c-0.30906,0.51063 -1.02125,0.84656 -1.6125,0.7525c-1.26312,-0.22844 -2.55312,0.26875 -3.3325,1.29c0,0.04031 0,0.06719 0,0.1075c-0.12094,0.09406 -0.06719,0.08063 -0.215,0.215c-0.04031,0.04031 -0.06719,-0.04031 -0.1075,0c-0.68531,0.645 -1.06156,1.53188 -1.075,2.4725c0,0.91375 0,0.92719 -0.7525,1.1825c-0.14781,0.06719 -0.29562,0.13438 -0.43,0.215c-0.02687,-0.01344 0.06719,0 -0.1075,0c-0.22844,0 -0.90031,-0.25531 -1.3975,-0.7525c-0.65844,-0.645 -1.55875,-0.99437 -2.4725,-0.9675h-1.29c-0.91375,-0.02687 -1.81406,0.3225 -2.4725,0.9675c-0.56437,0.56438 -1.1825,0.79281 -1.935,0.5375c-0.41656,-0.22844 -0.7525,-0.69875 -0.7525,-1.1825c0,-0.65844 -0.3225,-1.54531 -0.7525,-2.15c-0.38969,-0.55094 -0.73906,-0.81969 -0.9675,-0.9675c-0.79281,-0.79281 -1.90812,-1.15562 -3.01,-0.9675c-0.59125,0.09406 -1.30344,-0.24187 -1.6125,-0.7525c-0.40312,-0.68531 -0.5375,-0.94062 0,-1.6125c0.48375,-0.60469 0.7525,-1.37062 0.7525,-2.15v-1.075c0,-1.1825 -0.61812,-2.27094 -1.6125,-2.9025c-0.51062,-0.30906 -0.84656,-1.02125 -0.7525,-1.6125c0.09406,-0.5375 0.7525,-1.19594 1.29,-1.29c1.53188,-0.28219 2.67406,-1.57219 2.795,-3.1175c0.18813,-0.43 0.43,-0.49719 0.43,-0.9675c0,-0.40312 -0.08062,-0.80625 -0.215,-1.1825c-0.36281,-1.08844 -0.36281,-1.24969 0.215,-1.72c0.49719,-0.40312 1.42438,-0.30906 1.935,0c1.06156,0.61813 2.37844,0.61813 3.44,0c0.04031,0 0.06719,0 0.1075,0c0.04031,-0.04031 0.06719,-0.06719 0.1075,-0.1075c0.06719,-0.02687 0.14781,-0.06719 0.215,-0.1075c0.90031,-0.37625 1.6125,-1.11531 1.935,-2.0425c0.17469,-0.5375 0.9675,-1.075 1.505,-1.075zM92.88,141.255c0.77938,0.99438 1.72,1.78719 2.9025,2.2575c0.04031,0.04031 0.06719,0.06719 0.1075,0.1075c2.60688,0.87344 5.11969,0.1075 7.2025,-1.1825c0.02688,-0.01344 0.08063,0.01344 0.1075,0h0.645c1.22281,0.71219 2.31125,1.72 3.87,1.72c0.59125,0 1.77375,-0.25531 2.795,-0.645c0.05375,-0.05375 0.14781,-0.08062 0.215,-0.1075c0.06719,-0.02687 0.14781,0.04031 0.215,0v-0.1075c1.06156,-0.44344 1.90813,-1.11531 2.58,-1.935v16.8775l-8.2775,-6.235c-1.20937,-0.90031 -2.87562,-0.90031 -4.085,0l-8.2775,6.235z"></path></g></g></svg>