<svg version="1.1" xmlns="http://www.w3.org/2000/svg" xmlns:xlink="http://www.w3.org/1999/xlink" viewBox="0 0 172 172"><g fill="none" fill-rule="nonzero" stroke="none" stroke-width="1" stroke-linecap="butt" stroke-linejoin="miter" stroke-miterlimit="10" stroke-dasharray="" stroke-dashoffset="0" font-family="none" font-weight="none" font-size="none" text-anchor="none" style="mix-blend-mode: normal"><path d="M0,172v-172h172v172z" fill="none"></path><g id="original-icon" fill="#556d89"><path d="M104.91328,10.30656l-2.31797,14.23703c-1.846,0.59038 -3.61739,1.31443 -5.32125,2.18359l-11.74438,-8.39172l-12.0064,12.00641l8.25735,11.79813c-0.88909,1.72288 -1.63761,3.51565 -2.24406,5.38844l-14.17656,2.35828v16.97828l14.1564,2.5061c0.6029,1.8687 1.34903,3.65975 2.23735,5.38172l-8.36485,11.70406l11.99969,12.01313l11.825,-8.2775c1.71137,0.87744 3.49335,1.61355 5.34812,2.21047l2.365,14.23703h16.97828l2.53297,-14.27735c1.84812,-0.60456 3.62389,-1.34758 5.32797,-2.23062l11.87875,8.33797l12.01985,-12.01985l-8.4925,-11.79812c0.86186,-1.68601 1.58797,-3.44136 2.17687,-5.2675l14.3311,-2.51281v-2.88906v-14.10265l-14.34453,-2.34485c-0.59334,-1.82836 -1.31803,-3.58595 -2.1836,-5.27422l8.35141,-11.90562l-12.01313,-12.01313l-11.76453,8.45219c-1.69951,-0.87574 -3.46935,-1.61223 -5.31453,-2.21047l-2.49938,-14.27734zM72.29375,11.2875c-0.19583,-0.00099 -0.39138,0.01475 -0.58453,0.04703c-16.43147,2.55036 -27.68129,9.96062 -34.82328,20.00172c-6.97049,9.79998 -10.03564,21.88081 -11.45547,34.2925l-13.93469,24.01281l-0.01344,0.02687c-2.37125,4.26717 -0.85846,9.83575 3.44672,12.22813l0.06719,0.03359l10.51484,5.26078l3.38625,24.79891l0.00672,0.04031c1.4754,9.22231 9.56032,16.25209 18.92672,15.87641l10.64922,0.01344v6.88v3.44v3.44h2.86219c0.37149,0.0614 0.75054,0.0614 1.12203,0h2.89578v-3.44v-3.44v-13.76l-17.73078,-0.01344h-0.0739c-5.72832,0.22976 -10.91912,-4.21243 -11.8586,-10.08485l0.00672,0.08063l-3.86328,-28.35985l-13.56516,-6.77922c-1.13002,-0.62795 -1.42844,-1.70088 -0.77937,-2.86891l14.51922,-25.02734l0.08063,-0.72563c1.30007,-12.08934 4.27368,-23.3202 10.40063,-31.93422c6.12695,-8.61402 15.32304,-14.8726 30.27469,-17.19328c1.78643,-0.25407 3.07303,-1.84516 2.94761,-3.6452c-0.12542,-1.80004 -1.62024,-3.19734 -3.42465,-3.20121zM110.76531,17.18656h5.36828l2.20375,12.59766l2.17015,0.54422c2.83379,0.70691 5.49746,1.82699 7.92813,3.29891l1.94172,1.17578l10.38047,-7.46453l3.79609,3.79609l-7.37719,10.52156l1.14891,1.91485c1.4576,2.42625 2.56699,5.06767 3.27203,7.88781l0.55094,2.19703l12.6514,2.06938v5.36156l-12.66485,2.23063l-0.5375,2.17015c-0.69782,2.81589 -1.80837,5.46266 -3.26531,7.88781l-1.16235,1.94172l7.4914,10.40735l-3.79609,3.7961l-10.50813,-7.37719l-1.92156,1.16906c-2.41249,1.46834 -5.08819,2.59494 -7.91469,3.31235l-2.15,0.54422l-2.23062,12.59094h-5.38172l-2.08953,-12.55735l-2.19703,-0.54422c-2.83844,-0.70115 -5.5109,-1.81593 -7.955,-3.28547l-1.91485,-1.15562l-10.4275,7.30328l-3.80281,-3.80281l7.38391,-10.32672l-1.17578,-1.935c-1.48663,-2.45618 -2.6054,-5.12588 -3.31235,-7.97516l-0.5375,-2.17015l-12.49015,-2.21047v-5.38844l12.49015,-2.08281l0.55094,-2.1836c0.71448,-2.86101 1.83269,-5.53994 3.31234,-7.9886l1.16235,-1.91484l-7.28313,-10.41406l3.80281,-3.80281l10.34688,7.39063l1.935,-1.16234c2.43186,-1.45973 5.10896,-2.5701 7.94828,-3.26531l2.21047,-0.5375zM113.52,41.27328c-9.45855,0 -17.2,7.74145 -17.2,17.2c0,9.45855 7.74145,17.2 17.2,17.2c9.45855,0 17.2,-7.74145 17.2,-17.2c0,-9.45855 -7.74145,-17.2 -17.2,-17.2zM113.52,48.15328c5.74032,0 10.32,4.57968 10.32,10.32c0,5.74032 -4.57968,10.32 -10.32,10.32c-5.74032,0 -10.32,-4.57968 -10.32,-10.32c0,-5.74032 4.57968,-10.32 10.32,-10.32zM134.17344,105.37015c-1.13444,0.00672 -2.19264,0.57227 -2.82859,1.51172c-6.67802,9.54055 -10.8911,20.78506 -10.8911,32.76063v15.1575h-0.05375v6.88h2.91594c0.37149,0.0614 0.75054,0.0614 1.12203,0h2.84203v-2.795c0.03815,-0.21283 0.05614,-0.42879 0.05375,-0.645v-18.5975c0,-10.3638 3.63959,-20.24223 9.6414,-28.81672c0.75836,-1.04922 0.8635,-2.43534 0.2721,-3.58695c-0.59141,-1.15161 -1.77923,-1.87373 -3.07382,-1.86867z"></path></g></g></svg>