<svg version="1.1" xmlns="http://www.w3.org/2000/svg" xmlns:xlink="http://www.w3.org/1999/xlink" viewBox="0 0 172 172"><g fill="none" fill-rule="nonzero" stroke="none" stroke-width="1" stroke-linecap="butt" stroke-linejoin="miter" stroke-miterlimit="10" stroke-dasharray="" stroke-dashoffset="0" font-family="none" font-weight="none" font-size="none" text-anchor="none" style="mix-blend-mode: normal"><path d="M0,172v-172h172v172z" fill="none"></path><g fill="#556d89"><path d="M86,16.125c-10.01514,0 -18.2666,6.84473 -20.66016,16.125h-49.21484v107.5h69.875l-5.375,-5.375l5.375,-5.375h-59.125v-26.875h69.875v-5.375h21.5l5.375,-5.375h-96.75v-48.375h118.25v48.375l5.375,5.375h5.375v-64.5h-49.21484c-2.39355,-9.28027 -10.64502,-16.125 -20.66016,-16.125zM86,26.875c4.34619,0 7.68457,2.07861 9.40625,5.375h-18.8125c1.72168,-3.29639 5.06006,-5.375 9.40625,-5.375zM86,75.25c-2.96045,0 -5.375,2.41455 -5.375,5.375c0,2.96045 2.41455,5.375 5.375,5.375c2.96045,0 5.375,-2.41455 5.375,-5.375c0,-2.96045 -2.41455,-5.375 -5.375,-5.375zM134.375,96.37207l-11.12793,11.12793h-15.74707v15.74707l-11.12793,11.12793l11.12793,11.12793v15.74707h15.74707l11.12793,11.12793l11.12793,-11.12793h15.74707v-15.74707l11.12793,-11.12793l-11.12793,-11.12793v-15.74707h-15.74707zM134.375,111.57324l6.67676,6.67676h9.44824v9.44824l6.67676,6.67676l-6.67676,6.67676v9.44824h-9.44824l-6.67676,6.67676l-6.67676,-6.67676h-9.44824v-9.44824l-6.67676,-6.67676l6.67676,-6.67676v-9.44824h9.44824z"></path></g></g></svg>